<?xml version="1.0" standalone="no"?>
<!DOCTYPE svg PUBLIC "-//W3C//DTD SVG 20010904//EN"
 "http://www.w3.org/TR/2001/REC-SVG-20010904/DTD/svg10.dtd">
<svg version="1.0" xmlns="http://www.w3.org/2000/svg"
 width="288.000000pt" height="288.000000pt" viewBox="0 0 288.000000 288.000000"
 preserveAspectRatio="xMidYMid meet">
<metadata>
Created by potrace 1.11, written by Peter Selinger 2001-2013
</metadata>
<g transform="translate(0.000000,288.000000) scale(0.100000,-0.100000)"
fill="#000000" stroke="none">
<path d="M1275 2800 c-33 -5 -85 -19 -115 -31 -30 -12 -89 -32 -130 -44 -119
-37 -161 -53 -227 -90 -60 -33 -78 -35 -50 -6 10 11 9 12 -3 6 -79 -44 -162
-107 -227 -172 -43 -43 -81 -77 -85 -76 -4 2 -28 -21 -54 -50 -192 -214 -317
-512 -331 -792 -5 -96 -2 -127 22 -235 15 -69 36 -137 46 -152 11 -14 19 -30
19 -35 0 -5 15 -23 32 -40 94 -87 126 -154 111 -230 -9 -45 -6 -58 23 -134 22
-58 29 -86 21 -91 -12 -7 -7 -14 78 -108 184 -204 426 -345 705 -412 124 -29
140 -31 310 -31 209 1 336 27 565 116 65 26 230 131 314 202 141 117 266 275
350 443 33 66 101 258 101 285 0 9 11 28 25 43 29 31 28 29 13 57 -11 20 -12
75 -3 123 2 10 4 39 4 64 1 36 5 47 23 55 32 15 32 28 -2 47 -17 9 -30 25 -30
35 0 10 -12 67 -27 126 -24 94 -25 110 -13 117 35 20 54 39 48 46 -4 4 -83
-27 -175 -70 -93 -42 -174 -76 -181 -76 -7 0 -38 13 -70 29 -31 15 -67 32 -80
35 -21 7 -22 6 -16 -33 7 -46 9 -45 -35 -30 -41 14 -56 45 -76 155 -24 137
-23 133 -44 127 -11 -3 -22 -10 -24 -16 -2 -7 8 -82 24 -167 15 -85 28 -174
29 -197 l0 -43 -62 -29 c-338 -155 -972 -441 -974 -439 -1 2 -47 103 -102 225
l-100 222 250 116 c625 291 1305 555 1429 555 16 0 29 5 29 10 0 6 -35 11 -82
12 -182 3 -177 4 -395 -80 -89 -34 -103 -37 -103 -22 0 36 -21 76 -40 77 -11
1 -20 -2 -20 -7 0 -5 -32 -7 -71 -5 -74 4 -87 11 -117 63 -11 20 -10 22 11 22
13 0 29 6 35 13 7 6 16 12 20 12 4 1 18 7 31 14 18 10 33 10 66 2 122 -31 154
12 46 60 -31 14 -58 19 -84 16 -24 -3 -40 -1 -45 7 -6 12 -44 36 -56 36 -2 0
-12 -23 -21 -50 -13 -39 -14 -54 -5 -65 18 -21 3 -35 -30 -28 -17 3 -36 0 -43
-6 -8 -6 -17 -8 -20 -4 -11 10 -8 -16 3 -38 9 -16 7 -19 -10 -19 -26 0 -80 48
-80 71 0 11 -18 25 -55 40 -30 12 -55 26 -55 31 0 4 -9 8 -21 8 -11 0 -17 5
-14 10 3 6 -1 10 -9 10 -9 0 -16 -7 -16 -16 0 -20 50 -74 70 -74 24 -1 45 -23
46 -47 0 -13 -3 -23 -8 -23 -4 0 -8 5 -8 10 0 6 -29 24 -65 42 -36 17 -70 39
-76 49 -12 23 -48 25 -75 4 -12 -9 -31 -12 -51 -9 -28 5 -34 3 -42 -19 -6 -14
-20 -29 -33 -33 -24 -7 -55 -43 -50 -57 6 -18 -63 -67 -93 -67 -17 0 -37 -6
-44 -12 -10 -11 -14 -10 -22 5 -6 9 -20 17 -33 17 -18 0 -22 5 -20 30 1 17 7
36 12 43 6 7 12 26 14 42 2 17 8 33 13 37 6 4 43 8 83 8 66 0 73 2 81 23 11
29 -1 59 -27 73 -26 13 -18 24 15 24 12 0 23 3 23 8 0 4 12 8 27 9 15 0 32 8
39 17 6 9 16 16 22 16 6 0 23 11 38 25 15 14 37 25 50 25 17 0 23 6 26 27 2
14 9 28 16 31 8 2 11 -5 10 -20 -3 -22 0 -23 52 -21 111 3 125 6 128 31 3 18
8 23 23 19 21 -6 27 18 7 26 -7 3 -2 6 12 6 15 1 31 -4 37 -10 8 -8 11 -6 10
7 -2 14 4 18 21 16 12 -2 22 1 22 6 0 12 -38 23 -42 12 -2 -5 -26 -12 -55 -16
-46 -6 -52 -4 -62 15 -10 17 -9 22 4 27 8 3 15 10 15 15 0 18 -31 9 -58 -17
-24 -23 -25 -27 -11 -36 14 -10 14 -14 2 -39 -20 -41 -42 -44 -72 -10 -20 22
-31 27 -41 21 -8 -6 -25 -10 -37 -10 -18 0 -23 6 -23 24 0 19 8 27 34 36 18 6
48 24 66 40 41 36 88 44 186 31 85 -12 107 -21 53 -21 l-34 0 29 -15 c39 -20
52 -19 71 8 8 12 16 21 18 19 1 -2 13 1 27 6 24 9 24 9 -13 21 -20 7 -43 11
-50 8 -6 -2 -30 2 -51 10 -32 11 -177 19 -236 14 -8 -1 -26 0 -40 3 -14 2 -52
0 -85 -4z m-190 -109 c-6 -5 -28 -13 -50 -17 -34 -6 -38 -5 -28 7 7 8 29 16
50 17 25 2 34 0 28 -7z m86 -105 c-7 -8 -1 -22 19 -43 27 -29 28 -33 14 -47
-8 -9 -27 -16 -42 -16 -15 0 -38 -3 -52 -5 -14 -3 -19 -3 -12 1 6 3 12 12 12
19 0 8 7 21 17 30 14 14 14 18 2 26 -8 5 -9 9 -4 9 6 0 4 4 -3 9 -11 7 -11 11
2 24 18 18 62 12 47 -7z m-71 -35 c0 -18 -36 -50 -62 -57 -26 -6 -26 -5 -15
19 15 32 77 63 77 38z m270 -245 c0 -3 -4 -8 -10 -11 -5 -3 -10 -1 -10 4 0 6
5 11 10 11 6 0 10 -2 10 -4z m-2 -58 c-5 -32 -28 -35 -28 -4 0 17 5 26 16 26
10 0 14 -7 12 -22z m332 -54 c0 -14 -3 -15 -17 -3 -10 7 -20 15 -22 16 -2 2 5
3 17 3 14 0 22 -6 22 -16z m-190 -9 c0 -18 -8 -18 -40 0 l-25 14 33 1 c22 0
32 -5 32 -15z m-110 -29 c-6 -6 -5 -14 2 -23 8 -10 8 -17 0 -25 -7 -7 -12 -15
-12 -20 0 -14 54 -36 95 -39 23 -2 45 -11 52 -20 12 -16 50 -28 103 -32 21 -2
25 2 25 27 0 38 32 51 78 31 19 -8 37 -11 41 -8 3 4 6 1 6 -6 0 -7 7 -11 15
-8 8 4 17 2 20 -2 3 -5 -9 -14 -25 -20 -17 -5 -30 -15 -30 -20 0 -6 -9 -11
-20 -11 -24 0 -96 -28 -207 -81 -46 -21 -86 -39 -88 -39 -13 0 -351 -174 -357
-183 -4 -7 -8 -9 -8 -4 0 11 -172 -78 -208 -108 -30 -25 -40 -53 -25 -69 4 -3
8 -12 9 -19 1 -7 30 -71 63 -144 34 -72 61 -138 61 -146 0 -10 -15 -16 -47
-20 -27 -3 -58 -9 -70 -12 -17 -6 -32 3 -70 38 -26 24 -58 49 -70 56 -12 6
-24 24 -28 39 -3 16 -25 46 -49 69 -40 38 -43 44 -41 89 1 27 10 75 20 108 15
46 16 62 7 77 -17 27 -6 77 28 127 17 23 30 46 30 50 0 12 75 92 87 92 18 0
73 57 73 76 0 23 47 84 65 84 7 0 24 13 37 29 21 26 27 28 68 22 35 -5 54 -1
91 17 35 17 71 25 136 29 48 3 90 7 92 9 3 2 17 3 33 2 18 -1 24 -6 18 -12z
m1320 -629 l45 -20 -93 -17 c-51 -9 -95 -20 -99 -23 -3 -4 38 -61 91 -127 103
-128 104 -130 49 -162 l-28 -16 -95 121 c-52 66 -100 122 -105 124 -6 2 -28
-31 -48 -73 -21 -42 -40 -75 -41 -73 -2 2 -25 101 -50 219 -26 118 -49 223
-52 232 -4 12 50 -9 188 -74 106 -49 213 -99 238 -111z m-714 -218 c-1 -27 31
-50 43 -31 6 10 10 10 21 -2 7 -9 16 -14 20 -11 4 3 13 -2 20 -10 7 -8 19 -15
26 -15 8 0 14 -4 14 -8 0 -8 56 -29 90 -34 31 -4 88 13 106 33 18 21 19 20 31
-27 11 -46 11 -49 -22 -103 -73 -118 -78 -140 -64 -276 2 -11 2 -40 1 -64 -2
-46 -11 -58 -125 -158 -37 -33 -47 -48 -47 -73 0 -21 -9 -39 -26 -54 -15 -13
-34 -31 -43 -41 -119 -123 -166 -154 -274 -179 -93 -22 -117 -21 -117 4 0 10
-15 34 -34 52 -22 22 -37 47 -42 73 -4 23 -23 61 -45 89 -22 27 -39 56 -39 65
0 26 25 89 43 109 19 21 22 57 6 68 -6 3 -8 15 -6 26 8 28 -43 115 -102 176
-39 40 -50 57 -42 66 11 13 22 73 25 130 2 28 8 32 79 60 49 19 77 36 77 46 0
10 3 11 8 3 5 -8 26 -4 77 18 127 55 239 89 291 89 45 0 51 -2 50 -21z m455
-43 c-12 -24 -29 -50 -38 -58 -10 -7 -2 14 17 50 37 70 54 77 21 8z m-12 -515
c-69 -138 -133 -231 -161 -231 -14 0 2 62 23 89 11 13 19 32 19 42 0 30 21 66
45 79 13 7 39 35 57 61 28 42 34 46 36 28 2 -12 -7 -42 -19 -68z"/>
<path d="M2077 1133 c-4 -3 -7 -11 -7 -17 0 -6 5 -5 12 2 6 6 9 14 7 17 -3 3
-9 2 -12 -2z"/>
<path d="M2123 1080 c-18 -7 -23 -17 -23 -45 0 -34 12 -44 35 -27 17 12 38 60
31 71 -8 13 -13 13 -43 1z"/>
<path d="M2026 909 c3 -23 12 -48 20 -56 8 -8 14 -19 14 -24 0 -5 5 -9 10 -9
6 0 3 15 -7 33 -18 33 -19 38 -21 75 -1 12 -6 22 -11 22 -5 0 -7 -19 -5 -41z"/>
<path d="M2143 767 c-3 -57 9 -83 16 -37 7 38 3 80 -8 80 -3 0 -7 -19 -8 -43z"/>
<path d="M1400 2630 c0 -7 6 -10 14 -7 8 3 17 2 20 -4 2 -5 3 -4 2 3 -3 17
-36 23 -36 8z"/>
<path d="M1887 2424 c-11 -12 3 -24 29 -24 16 0 24 5 22 13 -5 13 -40 22 -51
11z"/>
<path d="M2097 2415 c-5 -13 44 -71 91 -107 12 -10 22 -27 22 -38 0 -12 13
-28 33 -40 37 -23 37 -23 56 -11 11 7 6 19 -25 57 -54 68 -62 75 -121 116 -37
27 -53 33 -56 23z"/>
<path d="M2533 2061 c-28 -9 -55 -19 -59 -23 -4 -5 -18 -8 -31 -8 -12 0 -23
-4 -23 -10 0 -5 -11 -10 -24 -10 -14 0 -28 -4 -31 -10 -3 -5 -15 -10 -27 -10
-12 0 -22 -8 -25 -20 -4 -16 -8 -18 -19 -9 -20 16 -44 4 -44 -23 0 -17 -3 -19
-12 -10 -17 17 -47 15 -54 -3 -6 -16 80 -141 103 -150 23 -8 33 3 33 37 0 29
1 30 18 15 22 -20 49 -22 55 -4 2 6 -4 43 -15 81 -10 38 -17 70 -16 72 2 1 23
-26 48 -62 47 -67 69 -76 81 -34 4 14 7 19 8 13 1 -15 37 -18 45 -4 3 5 -2 30
-10 55 -20 58 -13 68 15 24 41 -66 36 -62 70 -47 17 8 31 18 30 24 -1 23 -45
129 -54 131 -5 1 -33 -5 -62 -15z"/>
<path d="M2660 1976 c0 -15 18 -31 26 -23 7 7 -7 37 -17 37 -5 0 -9 -6 -9 -14z"/>
<path d="M1954 1905 c-5 -13 28 -243 42 -287 3 -10 14 -18 25 -18 25 0 25 33
-1 185 -11 64 -20 121 -20 126 0 15 -40 10 -46 -6z"/>
<path d="M1809 1774 c-15 -19 -2 -47 26 -52 25 -5 37 11 29 42 -7 30 -34 35
-55 10z"/>
<path d="M1630 1706 c-25 -13 -46 -30 -48 -38 -1 -8 20 -63 47 -122 40 -84 55
-107 68 -104 12 2 19 14 21 33 2 17 16 41 33 57 23 22 29 35 29 70 0 51 -29
104 -66 118 -34 13 -33 13 -84 -14z m78 -68 c17 -17 15 -48 -4 -55 -19 -7 -34
13 -34 45 0 24 19 29 38 10z"/>
<path d="M1433 1673 c-20 -7 -16 -83 4 -106 10 -10 29 -40 43 -65 22 -41 30
-47 61 -50 23 -2 40 2 48 12 19 22 6 46 -24 46 -19 0 -29 9 -42 35 -16 33 -15
36 1 54 22 24 14 51 -14 51 -11 0 -31 6 -43 14 -12 7 -28 12 -34 9z"/>
<path d="M1865 1659 c-12 -18 4 -59 23 -59 30 0 42 19 30 46 -12 25 -42 32
-53 13z"/>
<path d="M1277 1603 c-14 -13 -7 -81 9 -94 8 -7 26 -34 40 -61 30 -59 55 -74
95 -58 40 17 40 50 -1 50 -25 0 -33 6 -47 36 -14 28 -15 38 -5 52 22 31 25 44
11 53 -8 5 -21 6 -30 4 -9 -3 -22 1 -29 10 -13 16 -32 20 -43 8z"/>
<path d="M1054 1516 c-6 -15 82 -222 98 -232 5 -4 15 -1 21 5 8 8 4 26 -13 67
-17 42 -20 61 -13 73 18 29 38 17 71 -46 24 -46 37 -61 48 -56 20 7 14 42 -17
108 -30 64 -60 76 -121 50 -13 -5 -21 0 -29 19 -13 28 -36 34 -45 12z"/>
</g>
</svg>
