<?xml version="1.0" standalone="no"?>
<!DOCTYPE svg PUBLIC "-//W3C//DTD SVG 1.1//EN" "http://www.w3.org/Graphics/SVG/1.1/DTD/svg11.dtd" >
<svg xmlns="http://www.w3.org/2000/svg" xmlns:xlink="http://www.w3.org/1999/xlink" version="1.1">
<metadata>
Created by FontForge 20150824 at Tue Apr 12 06:04:33 2016
 By Everything Fonts
Font data copyright Google 2014
</metadata>
<defs>
<font id="RobotoBoldItalic" horiz-adv-x="1137" >
  <font-face 
    font-family="RobotoBoldItalic"
    font-weight="700"
    font-style="italic"
    font-stretch="normal"
    units-per-em="2048"
    panose-1="0 0 0 0 0 0 0 0 0 0"
    ascent="1536"
    descent="-512"
    x-height="1082"
    cap-height="1456"
    bbox="-1459 -480 2467 1934"
    underline-thickness="100"
    underline-position="-300"
    unicode-range="U+0002-04FF"
  />
<missing-glyph horiz-adv-x="505" 
 />
    <glyph glyph-name="fi" unicode="fi" horiz-adv-x="1219" 
d="M71 0l151 870h-157l38 212h146l8 46q18 105 62 185.5t111 135.5t155 83t195 27q83 -2 162.5 -19.5t158.5 -39.5l-61 -241q-63 22 -126 35.5t-129 14.5q-46 0 -86.5 -11t-72.5 -33.5t-54.5 -56.5t-32.5 -80l-9 -46h219l-38 -212h-206l-151 -870h-283zM982 0h-284l188 1082
h283z" />
    <glyph glyph-name=".notdef" horiz-adv-x="505" 
 />
    <glyph glyph-name=".null" horiz-adv-x="0" 
 />
    <glyph glyph-name="nonmarkingreturn" unicode="&#xd;" horiz-adv-x="505" 
 />
    <glyph glyph-name="NULL" horiz-adv-x="0" 
 />
    <glyph glyph-name="NULL" horiz-adv-x="0" 
 />
    <glyph glyph-name="uni0002" horiz-adv-x="10" 
 />
    <glyph glyph-name="uni0009" unicode="&#x9;" horiz-adv-x="10" 
 />
    <glyph glyph-name="space" unicode=" " horiz-adv-x="505" 
 />
    <glyph glyph-name="exclam" unicode="!" horiz-adv-x="550" 
d="M368 447h-235l142 1009h301zM40 131q-1 34 10.5 62.5t32.5 50t49.5 33.5t61.5 13t62 -10t50.5 -30.5t34 -47t13.5 -60.5q1 -34 -10.5 -63t-32.5 -50.5t-49.5 -33.5t-62.5 -13q-33 0 -61.5 10.5t-50 30.5t-34.5 47.5t-13 60.5z" />
    <glyph glyph-name="quotedbl" unicode="&#x22;" horiz-adv-x="647" 
d="M381 1382l-99 -395h-161l87 549h198zM697 1382l-99 -395h-160l86 549h197z" />
    <glyph glyph-name="numbersign" unicode="#" horiz-adv-x="1193" 
d="M596 410h-179l-142 -410h-185l141 410h-217l30 172h247l96 284h-222l31 174h252l143 416h185l-144 -416h180l144 416h186l-144 -416h210l-31 -174h-239l-98 -284h215l-31 -172h-242l-142 -410h-186zM475 582h179l99 284h-180z" />
    <glyph glyph-name="dollar" unicode="$" horiz-adv-x="1150" 
d="M734 390q6 44 -3.5 77t-30.5 58.5t-52 44.5t-68 36q-77 34 -145.5 75t-119 94.5t-78 123.5t-21.5 163t42 165t95 124t136.5 82.5t164.5 39.5l41 214h157l-42 -220q86 -18 145.5 -62t96 -106t51.5 -138t13 -157l-283 1q2 38 -1.5 80t-17.5 77t-42.5 58t-77.5 24
q-42 1 -76 -12.5t-59.5 -38t-41.5 -58t-21 -72.5q-6 -43 4.5 -75t32.5 -57t53 -44t66 -35q76 -36 144 -77.5t118 -95.5t77.5 -124t21.5 -163q-6 -94 -42 -166t-95.5 -123t-137 -80.5t-165.5 -38.5l-39 -199h-156l39 200q-94 14 -162.5 55.5t-112 104t-63.5 142.5t-17 171
l282 -1q-2 -47 4.5 -90.5t26 -77.5t54 -55t88.5 -22q42 -1 78.5 11t65.5 35.5t48 56.5t25 75z" />
    <glyph glyph-name="percent" unicode="%" horiz-adv-x="1477" 
d="M187 1176q6 68 33.5 124t71.5 96t102.5 61.5t127.5 20.5q66 -2 119.5 -24.5t90.5 -62.5t56 -94.5t15 -120.5l-6 -77q-7 -68 -34.5 -123.5t-71.5 -95t-102 -61t-127 -19.5q-65 1 -118.5 23.5t-90.5 62t-56 94t-16 119.5zM370 1095q-2 -24 2 -47.5t14.5 -41.5t29.5 -29
t47 -12q30 -1 54 10t42 29.5t29.5 43t16.5 51.5l10 78q3 25 -0.5 49t-14.5 42.5t-30 30t-47 12.5q-30 1 -54.5 -10t-42.5 -29.5t-30 -43.5t-16 -52zM720 357q6 68 33.5 124t72 95.5t103 61t127.5 20.5q66 -2 119.5 -24.5t90.5 -62t56 -94t15 -120.5l-6 -78
q-6 -68 -33.5 -124t-71.5 -95.5t-102.5 -61t-127.5 -19.5q-65 1 -118.5 24t-91 62.5t-56.5 94t-15 119.5zM901 277q-2 -24 2.5 -47t16 -41.5t30.5 -30.5t46 -13q31 -1 56 9t42.5 28.5t28.5 43t16 53.5l10 80q3 25 -0.5 48.5t-14.5 41.5t-30 29.5t-47 12.5q-30 1 -54.5 -9.5
t-43 -29t-30.5 -43.5t-17 -52zM383 111l-139 85l878 1124l137 -83z" />
    <glyph glyph-name="ampersand" unicode="&#x26;" horiz-adv-x="1314" 
d="M36 385q4 71 33 128t73 103.5t98.5 84.5t110.5 72q-17 37 -33.5 75t-29 76.5t-19 79t-3.5 82.5q6 87 40 159.5t90 124.5t131.5 80t162.5 26q70 -2 131.5 -26.5t106.5 -68t69.5 -104t21.5 -132.5q-3 -55 -22 -102.5t-49.5 -88.5t-70 -75.5t-82.5 -63.5l-117 -77l188 -282
q42 60 67 123t34 135h239q-9 -132 -55 -250t-138 -215l168 -249h-302l-55 84q-86 -51 -178 -78t-193 -25q-89 1 -167.5 29t-136 80t-88.5 126t-25 169zM475 213q56 -2 108 16t101 43l-214 330l-24 -16q-47 -35 -80 -82t-41 -105q-5 -39 2.5 -72.5t27 -58t50 -39.5t70.5 -16z
M513 1090q-4 -24 -1 -47.5t10.5 -46t17.5 -44.5t21 -43l84 51q24 15 46 32t40 37.5t30 44.5t15 54q3 24 -2.5 45t-19 37t-33.5 25t-45 9q-33 1 -61 -11.5t-49 -33.5t-35 -49.5t-18 -59.5z" />
    <glyph glyph-name="quotesingle" unicode="'" horiz-adv-x="331" 
d="M389 1373l-88 -388h-181l87 551h207z" />
    <glyph glyph-name="parenleft" unicode="(" horiz-adv-x="707" 
d="M119 588q13 97 38 199.5t63 202.5t89 195t116.5 177.5t145.5 148t177 108.5l48 -161q-102 -78 -176.5 -176.5t-126 -210.5t-84 -233.5t-50.5 -245.5l-4 -26q-9 -65 -16.5 -141.5t-8.5 -157.5t6.5 -162.5t28.5 -156t58 -139.5t95 -113l-63 -151q-85 47 -146 117.5
t-102 155.5t-64.5 180.5t-33.5 192.5t-7.5 192.5t13.5 180.5z" />
    <glyph glyph-name="parenright" unicode=")" horiz-adv-x="710" 
d="M587 574q-14 -98 -39.5 -200.5t-65 -203.5t-92 -196.5t-119.5 -177.5t-148.5 -147.5t-178.5 -106.5l-48 158q102 79 176 178t125.5 211t84 234t50.5 246l4 26q9 65 16 141t8 157t-6.5 162.5t-28.5 156.5t-57.5 140t-93.5 113l63 151q85 -46 147 -116t105 -154.5
t68 -180.5t36 -193.5t9.5 -193.5t-12.5 -181z" />
    <glyph glyph-name="asterisk" unicode="*" horiz-adv-x="910" 
d="M383 968l-290 89l82 172l289 -128l36 355h192l-74 -348l305 119l30 -192l-327 -90l166 -271l-161 -105l-131 293l-216 -278l-150 117z" />
    <glyph glyph-name="plus" unicode="+" horiz-adv-x="1094" 
d="M712 815h350l-46 -261h-349l-71 -408h-269l71 408h-352l46 261h351l68 391h269z" />
    <glyph glyph-name="comma" unicode="," horiz-adv-x="495" 
d="M281 50q-20 -124 -86 -230.5t-164 -184.5l-149 81q24 39 48 76.5t45 75.5t37 79t25 87l37 212h238z" />
    <glyph glyph-name="hyphen" unicode="-" horiz-adv-x="780" 
d="M638 507h-548l40 233h549z" />
    <glyph glyph-name="period" unicode="." horiz-adv-x="587" 
d="M43 137q-1 34 10.5 63t32.5 50.5t50 34t63 13.5q33 1 62.5 -10t51.5 -31t35 -48t13 -62q1 -34 -11 -63t-33 -50t-50 -33.5t-63 -12.5q-33 -1 -62 9.5t-51 30.5t-34.5 47.5t-13.5 61.5z" />
    <glyph glyph-name="slash" unicode="/" horiz-adv-x="752" 
d="M77 -125h-222l794 1581h223z" />
    <glyph glyph-name="zero" unicode="0" horiz-adv-x="1150" 
d="M1050 603q-12 -79 -33 -157t-53 -148t-76.5 -129t-103 -102t-133 -66t-166.5 -21q-87 2 -152.5 28t-112 70.5t-75.5 104t-43 128t-15 143t8 148.5l38 253q12 79 32.5 157t53 147.5t77.5 128.5t103.5 101.5t133 65.5t165.5 21q87 -2 153 -28t112.5 -70.5t75.5 -103.5
t43 -127.5t15 -143t-8 -148.5zM813 898q4 29 7.5 65.5t3.5 74.5t-6 74t-21.5 64.5t-42.5 47t-70 20.5q-47 2 -83.5 -12.5t-64 -40.5t-47 -61.5t-33 -75t-22 -80t-13.5 -77.5l-49 -334q-4 -30 -7.5 -66.5t-4 -75t5.5 -75.5t21.5 -66t42.5 -47.5t70 -20.5q48 -3 84.5 12
t64 41.5t47 62.5t32.5 75.5t21.5 81t13.5 78.5z" />
    <glyph glyph-name="one" unicode="1" horiz-adv-x="1150" 
d="M674 0h-282l192 1108l-354 -107l44 247l608 210l37 1z" />
    <glyph glyph-name="two" unicode="2" horiz-adv-x="1150" 
d="M971 0h-970l33 210l523 491q34 33 73.5 72t75 82t61 90.5t33.5 98.5q6 39 0.5 75t-22.5 64t-47 45t-73 18q-54 1 -96 -19.5t-71.5 -55t-47.5 -79.5t-24 -94l-282 -1q6 107 51.5 196t118.5 152.5t168 98t200 33.5q93 -2 172.5 -28.5t136 -78t85.5 -127t22 -173.5
q-7 -89 -46 -167.5t-94.5 -148.5t-121 -132t-125.5 -119l-298 -268l602 -2z" />
    <glyph glyph-name="three" unicode="3" horiz-adv-x="1150" 
d="M425 856l134 -2q50 1 94 15t78 40.5t56 66t29 90.5q11 80 -28.5 128.5t-121.5 50.5q-39 1 -74.5 -10t-64 -32.5t-48.5 -52.5t-27 -70l-282 -2q6 98 51 173t114.5 126t157.5 76t179 24q93 -2 174 -28.5t140.5 -77.5t91 -126.5t24.5 -175.5q-4 -61 -27.5 -110.5t-60.5 -90
t-84 -72t-99 -55.5q48 -23 83 -57t57.5 -76t31.5 -91t6 -101q-7 -109 -56 -191.5t-125.5 -137.5t-173 -82t-197.5 -25q-95 2 -175.5 31t-138.5 83t-90.5 131t-30.5 175h280q-2 -83 43.5 -134t130.5 -53q48 -1 91.5 13t77.5 41.5t56.5 66.5t29.5 87q14 100 -32.5 152
t-144.5 56l-169 1z" />
    <glyph glyph-name="four" unicode="4" horiz-adv-x="1150" 
d="M918 548h160l-41 -233h-160l-55 -315h-282l55 315h-578l20 197l743 944h295zM330 550l306 -2l99 518l-26 -36z" />
    <glyph glyph-name="five" unicode="5" horiz-adv-x="1150" 
d="M156 721l209 735h796l-43 -241h-558l-103 -316q46 30 101.5 43.5t109.5 13.5q104 0 177.5 -40t119 -107t63 -154t9.5 -181q-10 -109 -54.5 -201t-116 -158t-166 -102.5t-205.5 -33.5q-93 2 -172 33.5t-136.5 88t-90 134.5t-33.5 172l277 -1q2 -40 12 -74.5t30.5 -60
t51.5 -41t74 -16.5q59 -2 103 22t74 63.5t47 90.5t23 102q6 48 0 92t-25.5 78t-55 55t-89.5 22q-59 1 -106.5 -19.5t-90.5 -58.5z" />
    <glyph glyph-name="six" unicode="6" horiz-adv-x="1149" 
d="M986 1472l-22 -239h-12q-99 1 -182 -25t-150 -75.5t-118.5 -120.5t-88.5 -159q60 60 134 91t160 29q100 -2 169 -45t111 -112t57.5 -155.5t8.5 -173.5q-9 -107 -52.5 -200t-114.5 -162t-165 -108t-203 -37q-120 2 -205.5 52.5t-138.5 131.5t-73 184t-9 211l14 112
q22 168 89 314t173.5 254t250 170t320.5 63h47zM612 743q-74 2 -132.5 -36.5t-96.5 -98.5l-13 -88q-3 -30 -4 -64t3 -68t14 -65t28 -55t46 -39t68 -16q55 -2 98.5 22.5t74 63.5t49 88.5t23.5 97.5q5 43 0 88t-23 82.5t-51 61.5t-84 26z" />
    <glyph glyph-name="seven" unicode="7" horiz-adv-x="1150" 
d="M1164 1279l-740 -1279h-311l738 1222h-696l37 234h999z" />
    <glyph glyph-name="eight" unicode="8" horiz-adv-x="1150" 
d="M1099 1077q-4 -60 -24.5 -110t-53.5 -91t-77 -73.5t-95 -58.5q85 -59 127 -146t35 -190q-6 -107 -51.5 -187.5t-117.5 -134.5t-164 -81t-192 -25q-92 1 -173 28.5t-140 79.5t-90.5 127.5t-25.5 174.5q4 67 27.5 123t61 101t87.5 80t109 62q-72 57 -107 135t-30 170
q6 100 48 178.5t109 131.5t154 80t183 25q89 -2 165 -29.5t130.5 -78.5t82.5 -124.5t22 -166.5zM733 428q5 41 -2.5 77.5t-27 64t-51 43.5t-74.5 17q-48 1 -88.5 -15.5t-71.5 -46.5t-50 -70.5t-25 -86.5q-5 -41 2.5 -77t27 -63t51 -42.5t75.5 -16.5q48 -1 88.5 15t71 45.5
t49.5 69.5t25 86zM814 1063q4 35 -1 67.5t-21 57.5t-42.5 40t-65.5 16q-43 1 -78 -14.5t-60.5 -42.5t-41 -63.5t-20.5 -76.5q-4 -35 1 -68t20 -59t42 -42t66 -17q43 -1 78.5 15.5t61 44.5t41 65t20.5 77z" />
    <glyph glyph-name="nine" unicode="9" horiz-adv-x="1150" 
d="M242 227q197 -3 324 85.5t193 270.5q-55 -51 -120.5 -82t-142.5 -30q-101 1 -172 43t-114.5 110t-61 154.5t-9.5 175.5q9 106 52 201.5t113.5 167.5t164.5 113.5t205 39.5q81 -2 144.5 -27t111 -67.5t79.5 -99.5t50 -122.5t22.5 -136.5t-2.5 -141l-13 -101
q-23 -173 -88 -318.5t-170 -251.5t-249 -165.5t-325 -60.5h-29l22 242h15zM574 691q34 -1 64 8.5t57 26t49.5 39.5t41.5 49l17 121q5 42 4.5 94.5t-14.5 100t-45.5 80t-89.5 34.5q-55 1 -97 -26.5t-71.5 -70t-46.5 -94t-22 -97.5q-5 -42 -1 -88t21 -85t49 -65t84 -27z" />
    <glyph glyph-name="colon" unicode=":" horiz-adv-x="571" 
d="M42 137q-1 34 10.5 63t32.5 50.5t50 34t63 13.5q33 1 62.5 -10t51.5 -31t35 -48t13 -62q1 -34 -11 -63t-33 -50t-50 -33.5t-63 -12.5q-33 -1 -62 9.5t-51 30.5t-34.5 47.5t-13.5 61.5zM183 956q-1 34 10.5 63t32.5 50.5t50 34t63 13.5q33 1 62.5 -10t51.5 -31t35 -48
t13 -62q1 -34 -11 -63t-33 -50t-50 -33.5t-63 -12.5q-33 -1 -62 9.5t-51 30.5t-34.5 47.5t-13.5 61.5z" />
    <glyph glyph-name="semicolon" unicode=";" horiz-adv-x="531" 
d="M166 956q-1 34 10.5 63t32.5 50.5t50 34t63 13.5q33 1 62.5 -10t51.5 -31t35 -48t13 -62q1 -34 -11 -63t-33 -50t-50 -33.5t-63 -12.5q-33 -1 -62 9.5t-51 30.5t-34.5 47.5t-13.5 61.5zM302 50q-20 -124 -86 -230.5t-164 -184.5l-149 81q24 39 48 76.5t45 75.5t37 79
t25 87l37 212h238z" />
    <glyph glyph-name="less" unicode="&#x3c;" horiz-adv-x="1021" 
d="M337 612l519 -201l-46 -267l-774 365l41 236l901 365l-52 -293z" />
    <glyph glyph-name="equal" unicode="=" horiz-adv-x="1147" 
d="M1025 746h-869l42 236h869zM950 313h-869l42 236h869z" />
    <glyph glyph-name="greater" unicode="&#x3e;" horiz-adv-x="1036" 
d="M685 627l-530 203l47 265l783 -365l-41 -235l-911 -366l52 292z" />
    <glyph glyph-name="question" unicode="?" horiz-adv-x="998" 
d="M321 446q4 60 16 113t34.5 100t56.5 88.5t81 80.5q31 25 64 52t61.5 57.5t49 66t27.5 77.5q5 33 2 62t-16 51t-37 35.5t-60 14.5q-40 1 -71 -13t-54 -38t-38 -55.5t-22 -67.5l-283 -2q7 100 47 177t104.5 129t149 78.5t181.5 24.5q88 -2 162 -27.5t126.5 -74t79.5 -119.5
t20 -164q-5 -70 -33 -127t-69.5 -105.5t-92 -91t-100.5 -82.5q-61 -49 -94 -105.5t-45 -133.5zM228 134q-1 34 10.5 63t32.5 50.5t50 34t63 13.5q33 1 61.5 -10t50.5 -31t34.5 -48t13.5 -61q1 -34 -11 -62.5t-33 -50t-50 -33.5t-62 -13q-33 0 -61.5 10.5t-50.5 30t-34.5 47
t-13.5 60.5z" />
    <glyph glyph-name="at" unicode="@" horiz-adv-x="1788" 
d="M1687 541q-11 -66 -31 -133.5t-50 -130.5t-70.5 -118t-92.5 -96t-116 -63.5t-141 -20.5q-36 1 -70.5 9.5t-63.5 26t-50.5 44.5t-33.5 63q-27 -31 -56.5 -57t-62.5 -45t-70 -29.5t-79 -9.5q-57 1 -98.5 22t-69.5 55.5t-43.5 79t-22 93.5t-4 98.5t10.5 93.5q12 64 35 131.5
t56.5 131t78 119.5t99 98t119 65.5t139.5 22.5q43 -1 81 -9t73.5 -22.5t69.5 -34t69 -42.5l-134 -582q-5 -25 -7.5 -53t2.5 -52t21.5 -40t50.5 -18q46 -2 83.5 17t67 51.5t51.5 75t38.5 87.5t26.5 88.5t16 77.5q16 91 19 179t-11.5 167.5t-47 146.5t-88 116.5t-135 78
t-186.5 30.5q-111 2 -208.5 -28.5t-181.5 -86t-153 -131.5t-122 -165.5t-89.5 -187.5t-55.5 -197q-18 -91 -21.5 -180.5t10.5 -171t47.5 -151t89 -120.5t136 -80.5t188.5 -30.5q88 -1 172.5 17.5t165.5 50.5l28 -158q-39 -26 -83.5 -42.5t-92 -26.5t-96 -13.5t-93.5 -3.5
q-201 2 -338.5 76t-216.5 199t-100.5 289t9.5 346q21 125 66 245t111.5 227t153 197t191 155t225 101t255.5 34q126 -2 227.5 -35t177.5 -92t128 -140t79.5 -178t32 -206t-14.5 -224zM696 422q-4 -19 -8.5 -46t-6 -56t0.5 -57.5t12 -51.5t28.5 -38t49.5 -16q32 -2 62 14.5
t54.5 42t43.5 55.5t29 57l127 478q-31 11 -69 13q-52 2 -93.5 -15t-75 -47t-58.5 -70.5t-43.5 -85t-31.5 -90.5t-21 -87z" />
    <glyph glyph-name="A" unicode="A" horiz-adv-x="1347" 
d="M877 300h-508l-150 -300h-323l778 1456h271l277 -1456h-299zM489 543h351l-82 542z" />
    <glyph glyph-name="B" unicode="B" horiz-adv-x="1278" 
d="M21 0l253 1456l477 -1q93 -2 181.5 -22t155.5 -66t104.5 -120t30.5 -182q-4 -61 -24.5 -110.5t-53.5 -89t-78 -70t-99 -53.5q49 -17 83.5 -48.5t56.5 -72.5t30.5 -89t5.5 -97q-8 -117 -56.5 -200t-125.5 -135.5t-175.5 -76.5t-205.5 -23h-560zM425 634l-69 -393l231 -1
q48 0 93 12t81 36.5t61 61.5t33 88q14 90 -24.5 140.5t-129.5 54.5zM461 846l199 -2q47 1 91.5 12t80.5 33.5t61 58.5t33 87q7 49 -3 82.5t-35 54t-61.5 30t-81.5 10.5l-220 1z" />
    <glyph glyph-name="C" unicode="C" horiz-adv-x="1310" 
d="M1206 486q-14 -121 -69.5 -216t-139.5 -160t-191 -98.5t-225 -31.5q-98 2 -175 30.5t-134 77.5t-95.5 115t-59.5 143t-25.5 162t6.5 171l13 96q13 91 41 179.5t71.5 167t101 144.5t130 113.5t159.5 73t188 23.5q119 -2 210 -40t154.5 -105.5t98.5 -162t41 -208.5l-292 1
q0 60 -11 109t-37 84t-69.5 55t-108.5 22q-64 2 -115 -16t-90.5 -50.5t-69 -77t-50 -95.5t-34 -106.5t-20.5 -108.5l-13 -99q-6 -44 -10 -94.5t-2 -100t12 -95.5t34 -81.5t63.5 -58t100.5 -24.5q134 -5 214.5 63.5t106.5 196.5z" />
    <glyph glyph-name="D" unicode="D" horiz-adv-x="1301" 
d="M21 0l253 1456l417 -1q97 -2 178 -29t145 -74t110 -111t74 -140.5t36.5 -163t-1.5 -177.5l-9 -66q-20 -147 -82.5 -274t-160.5 -220.5t-227 -147t-282 -52.5h-451zM525 1213l-169 -972l122 -1q102 0 179.5 36t133 98t89 144.5t47.5 175.5l9 69q7 51 8.5 103.5t-5.5 102
t-24 92.5t-47 76t-75 53t-108 22z" />
    <glyph glyph-name="E" unicode="E" horiz-adv-x="1127" 
d="M982 631h-558l-68 -390h656l-42 -241h-949l253 1456h947l-43 -243h-653l-61 -347h560z" />
    <glyph glyph-name="F" unicode="F" horiz-adv-x="1098" 
d="M976 595h-558l-104 -595h-293l253 1456h922l-43 -243h-628l-66 -376h560z" />
    <glyph glyph-name="G" unicode="G" horiz-adv-x="1363" 
d="M1184 184q-47 -60 -115 -100t-145 -63t-157 -32t-151 -8q-100 1 -179.5 28.5t-140 76t-101.5 114t-64.5 143.5t-29 164.5t5.5 176.5l12 86q13 94 41 183t71 168t100.5 145t130.5 113.5t161 73t191 23.5q117 -2 207 -35.5t153 -95.5t99 -151t45 -203l-282 1q-5 54 -19 98
t-40.5 75.5t-67.5 49t-99 19.5q-64 2 -116 -16t-93 -51.5t-72 -79t-53.5 -98t-36.5 -108t-22 -109.5l-12 -89q-6 -48 -8.5 -100.5t2.5 -103.5t20 -97t43 -81t71.5 -56.5t106.5 -22.5q69 -2 133 14t121 57l49 251h-266l39 221h556z" />
    <glyph glyph-name="H" unicode="H" horiz-adv-x="1414" 
d="M1173 0h-293l108 624h-565l-109 -624h-293l253 1456h293l-103 -590h566l102 590h293z" />
    <glyph glyph-name="I" unicode="I" horiz-adv-x="589" 
d="M333 0h-293l252 1456h293z" />
    <glyph glyph-name="J" unicode="J" horiz-adv-x="1120" 
d="M843 1456h293l-171 -1008q-14 -105 -59.5 -192.5t-115.5 -149.5t-162 -95.5t-200 -31.5q-105 2 -185.5 34t-134.5 90t-80.5 141t-23.5 187l295 -1q-3 -42 1.5 -79.5t20.5 -66t45.5 -45.5t77.5 -18q50 -2 89 16.5t67.5 50.5t46 73.5t24.5 86.5z" />
    <glyph glyph-name="K" unicode="K" horiz-adv-x="1271" 
d="M576 581l-192 -178l-70 -403h-293l253 1456h293l-112 -642l149 168l438 474h382l-629 -662l375 -794h-334z" />
    <glyph glyph-name="L" unicode="L" horiz-adv-x="1086" 
d="M356 241h618l-42 -241h-911l253 1456h293z" />
    <glyph glyph-name="M" unicode="M" horiz-adv-x="1750" 
d="M650 1456l179 -1053l543 1053h390l-253 -1456h-294l72 415l142 648l-558 -1063h-201l-195 1100l-94 -717l-67 -383h-293l253 1456h376z" />
    <glyph glyph-name="N" unicode="N" horiz-adv-x="1413" 
d="M1172 0h-284l-405 971l-169 -971h-293l253 1456h283l406 -973l169 973h292z" />
    <glyph glyph-name="O" unicode="O" horiz-adv-x="1382" 
d="M1305 696q-13 -93 -41.5 -183t-72.5 -170t-103.5 -147.5t-133.5 -116t-162.5 -75t-190.5 -24.5q-99 2 -177.5 31.5t-137.5 79.5t-99.5 118t-63 147t-28 165t5.5 174l8 64q13 93 42 183t73.5 170t104 148t134 116.5t163 75t190.5 24.5q100 -2 178 -31.5t137 -80
t98.5 -118.5t61.5 -147t27 -166t-5 -174zM1016 768q5 44 8 95t-0.5 101.5t-16 97t-38.5 83t-66.5 59.5t-100.5 25q-64 2 -116.5 -16.5t-94 -53t-73 -81.5t-54 -100t-37 -109.5t-21.5 -110.5l-8 -65q-6 -45 -8.5 -96t1 -102.5t16.5 -99t38.5 -84.5t66.5 -60.5t102 -25.5
q65 -3 117 16.5t93.5 54.5t72.5 83t53 101.5t36 110t21 110.5z" />
    <glyph glyph-name="P" unicode="P" horiz-adv-x="1291" 
d="M404 513l-90 -513h-293l253 1456l533 -1q105 -2 194 -35.5t152.5 -94t96 -147.5t23.5 -196q-9 -120 -61.5 -208t-133.5 -146.5t-184 -87t-214 -28.5zM445 756l244 -2q55 0 104 14.5t87 42.5t64 70t34 99q7 49 -0.5 90.5t-30 72t-59 49t-87.5 20.5l-276 1z" />
    <glyph glyph-name="Q" unicode="Q" horiz-adv-x="1382" 
d="M1303 696q-12 -92 -38.5 -178t-69 -163.5t-102 -143t-138.5 -116.5l202 -198l-200 -157l-255 248q-26 -4 -52.5 -6t-53.5 -1q-99 1 -177 30.5t-136.5 80t-98.5 118.5t-62 146.5t-27.5 165t4.5 173.5l8 64q13 93 42 183t73.5 170t104 148t134 116.5t163 75t190.5 24.5
q99 -2 177.5 -31.5t137.5 -80t99 -118.5t62 -147t27 -166t-5 -174zM1014 768q6 44 8.5 95t-1 101.5t-16 97t-38.5 83t-66.5 59.5t-100.5 25q-64 2 -116.5 -16.5t-94 -53t-73 -81.5t-54 -100t-37 -109.5t-21.5 -110.5l-8 -65q-6 -45 -8.5 -96t1 -102.5t16.5 -99t38.5 -84.5
t66.5 -60.5t102 -25.5q65 -3 117 16.5t93.5 54.5t72.5 83t53 101.5t36 110t21 110.5z" />
    <glyph glyph-name="R" unicode="R" horiz-adv-x="1278" 
d="M645 533h-238l-93 -533h-293l253 1456l507 -1q100 -2 188 -28.5t152 -79t97.5 -133t25.5 -190.5q-11 -156 -94 -258.5t-226 -158.5l205 -591v-16h-312zM449 776l218 -2q54 1 101.5 15.5t85 43t62.5 70.5t33 98q14 97 -31 152t-143 59l-250 1z" />
    <glyph glyph-name="S" unicode="S" horiz-adv-x="1231" 
d="M825 389q8 52 -11 88t-53 60.5t-77.5 41.5t-83.5 32q-52 19 -103.5 42t-99 52t-88 64.5t-69.5 79t-44.5 96.5t-11.5 116q4 72 29.5 131t67 105.5t96 81t116 56.5t127 32t129.5 9q102 -2 189 -33t151 -89t99.5 -141t34.5 -188l-292 1q3 99 -46.5 153.5t-151.5 56.5
q-42 1 -85 -9t-79 -31.5t-61.5 -55t-32.5 -79.5q-7 -47 15.5 -80.5t59.5 -57t80 -39t77 -27.5q82 -29 158.5 -69t134.5 -95.5t90.5 -130t26.5 -171.5q-5 -73 -29.5 -132.5t-64.5 -105.5t-92.5 -79t-113 -54.5t-126 -31.5t-131.5 -9q-109 2 -204.5 34t-166 93t-111 149.5
t-38.5 203.5l292 -1q-5 -121 56.5 -180t182.5 -61q43 0 85 9t77 29.5t59.5 53.5t32.5 80z" />
    <glyph glyph-name="T" unicode="T" horiz-adv-x="1239" 
d="M1296 1213h-432l-210 -1213h-293l210 1213h-427l43 243h1152z" />
    <glyph glyph-name="U" unicode="U" horiz-adv-x="1318" 
d="M1345 1456l-164 -960q-17 -121 -69 -218t-132 -164t-184.5 -102t-226.5 -33q-115 2 -208 39t-156 104t-92 161.5t-16 211.5l163 961h293l-163 -962q-7 -56 -1 -105t28 -86t62.5 -58.5t102.5 -23.5q66 -2 118 17t90 55.5t62.5 88t34.5 113.5l164 961h294z" />
    <glyph glyph-name="V" unicode="V" horiz-adv-x="1309" 
d="M606 364l490 1092h336l-719 -1456h-306l-262 1456h315z" />
    <glyph glyph-name="W" unicode="W" horiz-adv-x="1747" 
d="M1195 423l351 1033h299l-541 -1456h-295l-77 970l-381 -970h-295l-86 1456h286l29 -1028l392 1028h249z" />
    <glyph glyph-name="X" unicode="X" horiz-adv-x="1272" 
d="M679 956l343 500h352l-535 -736l302 -720h-324l-191 508l-351 -508h-356l547 748l-293 708h320z" />
    <glyph glyph-name="Y" unicode="Y" horiz-adv-x="1238" 
d="M640 802l407 654h336l-636 -944l-88 -512h-298l95 545l-302 910l309 1z" />
    <glyph glyph-name="Z" unicode="Z" horiz-adv-x="1214" 
d="M385 243l707 -2l-38 -241h-1078l30 189l853 1022l-693 2l39 243h1061l-29 -186z" />
    <glyph glyph-name="bracketleft" unicode="[" horiz-adv-x="562" 
d="M673 1471h-138l-248 -1587h138l-35 -223h-421l318 2033h421z" />
    <glyph glyph-name="backslash" unicode="\" horiz-adv-x="848" 
d="M154 1456h275l316 -1581h-276z" />
    <glyph glyph-name="bracketright" unicode="]" horiz-adv-x="562" 
d="M183 1694h421l-318 -2033h-421l35 223h139l248 1587h-139z" />
    <glyph glyph-name="asciicircum" unicode="^" horiz-adv-x="878" 
d="M543 1183l-247 -454h-239l417 727h205l164 -727h-211z" />
    <glyph glyph-name="underscore" unicode="_" horiz-adv-x="897" 
d="M743 -226h-886l40 226h885z" />
    <glyph glyph-name="grave" unicode="`" horiz-adv-x="667" 
d="M638 1226l-211 1l-223 307l291 2z" />
    <glyph glyph-name="a" unicode="a" horiz-adv-x="1075" 
d="M626 0q-8 25 -10 48.5t-1 49.5q-57 -57 -125.5 -88.5t-150.5 -29.5q-68 1 -127.5 24t-104 64.5t-69.5 99.5t-22 128q3 71 26.5 125.5t62 95.5t89.5 68.5t108.5 44.5t119.5 24.5t122 7.5l132 -2l14 65q6 33 3 62.5t-16.5 51.5t-38 35.5t-61.5 14.5q-66 2 -112 -32.5
t-59 -99.5l-283 -1q4 90 49 156t113.5 109t151.5 62.5t163 18.5q85 -2 157.5 -28t123.5 -74.5t77 -118.5t17 -160l-74 -459q-5 -30 -9 -61t-5 -62t2.5 -61.5t14.5 -58.5l-1 -19h-277zM409 199q64 -2 118.5 28t94.5 78l35 187l-98 1q-43 -1 -86 -10.5t-78.5 -30.5t-60.5 -54
t-31 -81q-8 -54 22.5 -85.5t83.5 -32.5z" />
    <glyph glyph-name="b" unicode="b" horiz-adv-x="1128" 
d="M1043 538q-8 -68 -25 -136t-44.5 -130.5t-66 -117t-89 -94t-115 -61.5t-142.5 -20q-81 2 -148 36t-112 102l-41 -117h-257l266 1536h283l-109 -553q54 58 119 89.5t145 29.5q74 -1 130 -25t95.5 -64t64.5 -93t37.5 -113t14.5 -123.5t-4 -124.5zM763 559q3 29 5.5 63.5
t0.5 68t-9 65t-23.5 56t-43.5 40t-68 16.5q-68 2 -118.5 -28.5t-88.5 -84.5l-78 -430q20 -57 61 -83.5t101 -28.5q69 -2 115 27.5t75.5 76.5t45 105.5t22.5 114.5z" />
    <glyph glyph-name="c" unicode="c" horiz-adv-x="1046" 
d="M473 212q78 -2 131 42.5t69 118.5l265 2q-6 -92 -47.5 -166t-106.5 -126t-147.5 -79t-171.5 -25q-117 3 -200 48t-134 120t-70.5 172t-8.5 204l3 29q13 113 56 214t114 177t168 119t218 40q94 -2 168 -34t124 -88.5t75.5 -133.5t24.5 -168h-263q0 37 -7.5 71t-25 60.5
t-46 42t-70.5 17.5q-67 2 -112.5 -26.5t-74.5 -75t-44.5 -104t-22.5 -111.5l-3 -28q-5 -45 -7 -99t9.5 -100.5t43 -79t93.5 -33.5z" />
    <glyph glyph-name="d" unicode="d" horiz-adv-x="1129" 
d="M55 543q8 67 25.5 135t45.5 130.5t66.5 117t90 94.5t115.5 62.5t142 20.5q75 -2 136.5 -32.5t107.5 -88.5l106 554h283l-266 -1536h-252l16 116q-56 -65 -125.5 -102t-156.5 -35q-72 1 -127 25.5t-94.5 65t-64.5 93.5t-38.5 113t-16 123t3.5 122zM335 521
q-3 -28 -5 -61.5t0 -67t10 -65t24 -56.5t42.5 -40.5t65.5 -16.5q67 -3 117.5 28.5t89.5 83.5l77 430q-39 107 -156 112q-66 2 -113 -28t-77.5 -78t-47.5 -106.5t-24 -112.5z" />
    <glyph glyph-name="e" unicode="e" horiz-adv-x="1084" 
d="M505 -20q-112 2 -199.5 43t-146.5 111t-86 164.5t-17 202.5l4 40q12 113 56 216t116.5 180.5t171.5 122.5t220 42q114 -2 194 -46.5t128 -118t65 -169t5 -198.5l-19 -123h-662q-3 -48 8 -90t35.5 -73.5t62.5 -50t89 -19.5q81 -3 149 29.5t123 89.5l128 -161
q-34 -51 -82.5 -88t-105 -60.5t-117.5 -34t-120 -9.5zM609 870q-52 1 -91.5 -18t-70 -51.5t-52.5 -74t-39 -83.5h389l6 27q7 40 2.5 76t-22 63t-48 43t-74.5 18z" />
    <glyph glyph-name="f" unicode="f" horiz-adv-x="722" 
d="M79 0l151 870h-156l37 212l156 1l12 93q11 90 46.5 161.5t91.5 121t131 75.5t167 25q39 -1 77 -7t76 -14l-25 -225q-20 5 -41 8.5t-42 3.5q-74 1 -127 -37t-67 -112l-16 -94h209l-37 -212h-208l-151 -870h-284z" />
    <glyph glyph-name="g" unicode="g" horiz-adv-x="1144" 
d="M57 542q8 68 26.5 136.5t48 131.5t70.5 117t93.5 93.5t118 61.5t143.5 21q78 -2 145 -31t113 -94l37 105l259 -1l-177 -1045q-15 -111 -64 -198.5t-124 -147t-172 -90t-208 -28.5q-54 1 -107.5 13t-103 34t-93.5 54.5t-78 74.5l140 172q45 -57 103.5 -89t132.5 -34
q58 -2 106.5 14t86 47t63.5 75t39 99l15 61q-55 -55 -120.5 -85.5t-144.5 -28.5q-72 1 -128 24.5t-97 64t-68 93.5t-42 112.5t-18 123t3 123.5zM338 521q-5 -45 -4.5 -97.5t15 -98.5t47.5 -77.5t92 -33.5q63 -2 113 24.5t91 73.5l84 458q-23 50 -63.5 73t-95.5 25
q-66 2 -115 -28t-82.5 -77.5t-53 -106t-26.5 -114.5z" />
    <glyph glyph-name="h" unicode="h" horiz-adv-x="1122" 
d="M433 962q58 65 131 103t162 37q91 -2 151.5 -37t94.5 -93.5t44.5 -133.5t2.5 -156l-114 -682h-282l115 685q5 39 2 72t-16.5 57t-40 38.5t-69.5 15.5q-63 2 -111.5 -24.5t-88.5 -73.5l-136 -770h-282l266 1536h283z" />
    <glyph glyph-name="i" unicode="i" horiz-adv-x="537" 
d="M301 0h-284l188 1082h284zM238 1357q-1 34 10.5 62t32.5 48.5t50 32.5t62 12q32 1 61 -9.5t50.5 -29.5t34.5 -46t14 -60q1 -34 -11 -62t-33 -49t-49.5 -32.5t-61.5 -12.5t-61.5 9.5t-50.5 29.5t-34.5 46.5t-13.5 60.5z" />
    <glyph glyph-name="j" unicode="j" horiz-adv-x="526" 
d="M490 1082l-194 -1141q-11 -86 -42.5 -156.5t-82.5 -120.5t-122 -77.5t-161 -26.5q-38 1 -75 6t-75 13l23 230q22 -5 43.5 -8.5t43.5 -4.5q70 -1 109.5 38.5t52.5 105.5l196 1142h284zM233 1357q-1 34 10.5 62t32.5 48.5t50 32t62 12.5q32 0 61 -10t50.5 -29t34.5 -46
t14 -60q1 -34 -10.5 -62.5t-32.5 -49t-50 -32t-62 -12.5t-61.5 9.5t-50.5 29.5t-34.5 46.5t-13.5 60.5z" />
    <glyph glyph-name="k" unicode="k" horiz-adv-x="1071" 
d="M471 431l-131 -114l-55 -317h-282l266 1536h283l-146 -834l55 59l321 321h362l-473 -465l301 -617h-309z" />
    <glyph glyph-name="l" unicode="l" horiz-adv-x="537" 
d="M301 0h-284l267 1536h283z" />
    <glyph glyph-name="m" unicode="m" horiz-adv-x="1730" 
d="M453 1083l-23 -123q63 70 142 107t175 35q42 -1 82.5 -10.5t74.5 -30t59.5 -51t38.5 -73.5q66 78 148 122.5t188 42.5q90 -2 149.5 -36.5t92.5 -91.5t42.5 -131t1.5 -154l-115 -689h-283l115 691q4 37 2.5 69t-14.5 56t-38 37.5t-67 14.5q-34 0 -62.5 -9t-53 -25.5
t-45 -39.5t-38.5 -50l-3 -23l-126 -721h-282l115 689q4 37 2.5 69t-14 56t-37.5 38t-67 15q-62 2 -108.5 -26.5t-84.5 -74.5l-135 -766h-282l187 1082z" />
    <glyph glyph-name="n" unicode="n" horiz-adv-x="1123" 
d="M449 1083l-24 -128q62 72 140.5 110.5t174.5 36.5q90 -2 147.5 -37t89.5 -92.5t41 -131.5t1 -153l-114 -688h-282l116 691q5 39 1.5 71t-17.5 55t-41 36t-69 14q-63 2 -111.5 -27t-87.5 -76l-135 -764h-282l188 1082z" />
    <glyph glyph-name="o" unicode="o" horiz-adv-x="1133" 
d="M55 544q13 115 58 217.5t117.5 179t172 120.5t222.5 41q117 -2 202 -47.5t138 -121t74.5 -173.5t10.5 -206l-2 -22q-14 -115 -59.5 -216.5t-118.5 -177t-172.5 -118.5t-220.5 -40q-116 2 -201 47t-138 119t-74.5 171.5t-10.5 205.5zM335 523q-5 -48 -4.5 -101.5
t15.5 -99.5t49.5 -77.5t96.5 -33.5q67 -2 115 27t81 75.5t51.5 104.5t25.5 114l3 21q3 31 4 66.5t-2.5 70t-13.5 66.5t-28.5 56.5t-47.5 39.5t-71 17q-67 2 -115 -27.5t-80.5 -77t-51 -106.5t-25.5 -114z" />
    <glyph glyph-name="p" unicode="p" horiz-adv-x="1128" 
d="M1042 538q-8 -66 -25.5 -133.5t-45.5 -130.5t-66.5 -117.5t-89.5 -94.5t-114.5 -62.5t-140.5 -20.5q-75 2 -138 30.5t-110 86.5l-99 -512h-282l259 1498l260 1l-19 -109q56 63 123.5 96.5t152.5 31.5q74 -2 129.5 -25.5t95 -64t64.5 -93.5t37.5 -112.5t14.5 -123
t-4 -124.5zM762 559q4 43 5.5 96t-11 99.5t-43.5 79t-90 34.5q-66 2 -115.5 -25.5t-87.5 -78.5l-81 -446q20 -54 61 -78.5t98 -26.5q66 -2 112.5 28t77 78t47.5 106.5t24 112.5z" />
    <glyph glyph-name="q" unicode="q" horiz-adv-x="1132" 
d="M55 545q8 67 25.5 135t45 130.5t66.5 117t90 94t115.5 61.5t142.5 20q80 -2 146 -35.5t111 -100.5l46 116l252 -1l-260 -1498h-284l101 511q-54 -57 -119 -87t-144 -28q-72 1 -127 25.5t-94.5 65t-64.5 94t-38.5 113t-16 122.5t3.5 123zM336 523q-3 -28 -5 -61.5t0 -67.5
t9.5 -66t24 -57t42.5 -41t66 -17q65 -2 115 26.5t89 78.5l82 450q-21 52 -61.5 75.5t-95.5 25.5q-66 2 -113 -28t-78 -78t-48.5 -106t-24.5 -113z" />
    <glyph glyph-name="r" unicode="r" horiz-adv-x="735" 
d="M744 811q-23 4 -47 7t-48 3q-75 2 -134.5 -25.5t-104.5 -87.5l-125 -708h-282l188 1082l265 1l-26 -132q22 33 48.5 61.5t57.5 49t67.5 31.5t78.5 11q26 0 50 -4t48 -10z" />
    <glyph glyph-name="s" unicode="s" horiz-adv-x="1031" 
d="M630 305q7 36 -10.5 58.5t-47 37t-63 23t-58.5 14.5q-61 15 -122 39.5t-110 62.5t-78.5 91t-26.5 127q3 87 44.5 152t105.5 108t143 64t157 20q81 -1 155 -23t130.5 -65.5t90.5 -109t35 -152.5l-280 1q1 68 -33.5 104t-104.5 37q-29 0 -57.5 -7.5t-52.5 -22.5t-41 -38
t-23 -54q-6 -33 10 -54t42 -34.5t56 -21t53 -12.5q67 -16 132.5 -39.5t117 -61.5t82.5 -94t28 -137q-3 -90 -48 -155t-113.5 -106t-151 -60t-160.5 -17q-82 1 -157.5 25.5t-134 71t-94 114t-36.5 155.5l266 -2q2 -78 45 -117t121 -40q30 0 61 6t57 20t45.5 36.5t25.5 55.5z
" />
    <glyph glyph-name="t" unicode="t" horiz-adv-x="681" 
d="M575 1348l-47 -266h180l-37 -212h-180l-92 -542q-6 -51 8 -78t68 -29q22 -2 43 0.5t43 4.5l-20 -221q-39 -13 -79.5 -18.5t-82.5 -4.5q-72 1 -124.5 24.5t-85 65.5t-46 99.5t-7.5 127.5l93 571h-153l37 212h153l46 266h283z" />
    <glyph glyph-name="u" unicode="u" horiz-adv-x="1122" 
d="M663 112q-120 -135 -298 -132q-88 1 -148 34.5t-96 88.5t-49 127t-5 152l117 700h282l-119 -703q-4 -33 -1 -62.5t15.5 -51.5t35.5 -36t60 -15q68 -2 121.5 24t95.5 77l135 767h284l-188 -1082h-263z" />
    <glyph glyph-name="v" unicode="v" horiz-adv-x="1014" 
d="M458 357l308 725h304l-523 -1082h-270l-185 1082h286z" />
    <glyph glyph-name="w" unicode="w" horiz-adv-x="1470" 
d="M980 394l257 688h281l-455 -1082h-236l-80 677l-316 -677h-236l-80 1082h264l17 -681l309 681h204z" />
    <glyph glyph-name="x" unicode="x" horiz-adv-x="1021" 
d="M524 761l227 321h317l-392 -544l219 -538h-286l-133 338l-239 -338h-319l408 566l-209 516h286z" />
    <glyph glyph-name="y" unicode="y" horiz-adv-x="1007" 
d="M462 412l309 670h314l-633 -1245q-28 -59 -63.5 -110t-80.5 -88t-101 -58t-126 -21q-35 0 -68.5 6.5t-67.5 14.5l21 220q10 -1 19.5 -1.5t19.5 -0.5q74 -2 125 25t86 92l53 99l-177 1067h292z" />
    <glyph glyph-name="z" unicode="z" horiz-adv-x="1021" 
d="M379 235l508 -2l-37 -233h-873l30 189l590 657l-473 2l37 234h843l-29 -184z" />
    <glyph glyph-name="braceleft" unicode="{" horiz-adv-x="666" 
d="M438 -360q-81 27 -140 71.5t-96.5 104t-52 133t-5.5 157.5l28 205q5 42 2 77.5t-18 62t-43.5 42.5t-73.5 20l19 207q48 2 84.5 18t63 43t42.5 64.5t23 83.5l28 203q24 187 127.5 301t282.5 168l47 -166q-49 -19 -84 -50.5t-58.5 -71t-37.5 -86t-21 -95.5l-28 -203
q-14 -112 -70.5 -188.5t-156.5 -127.5q37 -27 62.5 -61t40.5 -73t20 -82t1 -88l-27 -204q-6 -44 -8 -89t7 -85.5t33 -74.5t70 -55z" />
    <glyph glyph-name="bar" unicode="|" horiz-adv-x="512" 
d="M203 -270h-172l270 1726h172z" />
    <glyph glyph-name="braceright" unicode="}" horiz-adv-x="666" 
d="M-94 -197q49 19 84 50.5t58.5 71t37.5 86t21 95.5l28 203q14 114 71 189.5t159 125.5q-38 26 -64.5 60t-41.5 73.5t-20 83t-1 88.5l27 204q6 44 8 89t-7.5 85.5t-33 74.5t-68.5 55l64 158q161 -54 234.5 -174.5t55.5 -288.5l-28 -204q-5 -43 -2 -78.5t18 -62.5t43 -43
t74 -20l-19 -207q-96 -5 -147.5 -61t-65.5 -147l-28 -203q-25 -186 -128.5 -301t-281.5 -169z" />
    <glyph glyph-name="asciitilde" unicode="~" horiz-adv-x="1298" 
d="M1203 795q-4 -77 -27.5 -153t-67 -136t-108.5 -97t-153 -35q-81 2 -143.5 39t-116.5 94q-29 31 -64 58t-80 28q-37 0 -63.5 -16.5t-45 -42.5t-29.5 -58t-16 -63l-209 2q5 77 29 152t68 133.5t109 94t152 33.5q81 -2 144.5 -39t117.5 -94q14 -15 29.5 -30t32.5 -27
t36.5 -20t42.5 -8q37 0 65 16.5t47.5 43.5t31 59.5t16.5 64.5z" />
    <glyph glyph-name="uni0400" unicode="&#x400;" horiz-adv-x="1127" 
d="M982 631h-558l-68 -390h656l-42 -241h-949l253 1456h947l-43 -243h-653l-61 -347h560zM911 1539l-211 1l-223 307l291 2z" />
    <glyph glyph-name="uni0401" unicode="&#x401;" horiz-adv-x="1127" 
d="M982 631h-558l-68 -390h656l-42 -241h-949l253 1456h947l-43 -243h-653l-61 -347h560zM429 1675q-1 28 9 51.5t28 41t42.5 27.5t51.5 11t52 -8t44 -25.5t30.5 -40t11.5 -51.5q1 -28 -9.5 -51.5t-28.5 -40.5t-42 -27t-51 -11t-51.5 8t-43.5 25.5t-30.5 39.5t-12.5 51z
M902 1675q-1 28 9 51.5t28 41t42 27.5t51 11t52 -8t44.5 -25.5t31 -40t12.5 -51.5q0 -28 -10.5 -51.5t-28.5 -41t-42 -27.5t-51 -11t-52 8t-44 25.5t-30.5 40t-11.5 51.5z" />
    <glyph glyph-name="uni0402" unicode="&#x402;" horiz-adv-x="1495" 
d="M1237 1213h-458l-70 -351q57 15 114 23.5t116 7.5q102 -1 191 -29t153 -83t97.5 -137.5t24.5 -192.5q-10 -125 -65 -213t-139 -144.5t-190 -83.5t-218 -29l22 229q55 1 104.5 14.5t88.5 40.5t65.5 68.5t34.5 99.5q7 51 -3.5 90.5t-36.5 67t-65 42t-88 16.5q-59 2 -116 -4
t-114 -15l-117 -630h-294l211 1213h-352l43 243h1104z" />
    <glyph glyph-name="uni0403" unicode="&#x403;" horiz-adv-x="1117" 
d="M1160 1213h-633l-211 -1213h-293l253 1456h926zM857 1849h327l-318 -310h-249z" />
    <glyph glyph-name="uni0404" unicode="&#x404;" horiz-adv-x="1320" 
d="M1207 485q-14 -120 -69.5 -215t-139.5 -160t-191 -98.5t-224 -31.5q-98 2 -175.5 30t-135 77t-95.5 115t-59 143t-25.5 162t6.5 172l13 94q13 92 41 180t71 167t100.5 145t130 113.5t159.5 73.5t188 24q119 -2 210.5 -40.5t155 -106t98.5 -162t41 -208.5l-292 1
q0 60 -11 109.5t-37 85.5t-69 56.5t-109 22.5q-86 3 -148 -30t-106 -88t-73.5 -125.5t-49.5 -141.5l444 1l-43 -242h-426q-9 -64 -7.5 -131.5t22.5 -124t66.5 -93.5t126.5 -40q67 -2 120.5 15t94 51.5t67 84.5t39.5 113z" />
    <glyph glyph-name="uni0405" unicode="&#x405;" horiz-adv-x="1231" 
d="M825 389q8 52 -11 88t-53 60.5t-77.5 41.5t-83.5 32q-52 19 -103.5 42t-99 52t-88 64.5t-69.5 79t-44.5 96.5t-11.5 116q4 72 29.5 131t67 105.5t96 81t116 56.5t127 32t129.5 9q102 -2 189 -33t151 -89t99.5 -141t34.5 -188l-292 1q3 99 -46.5 153.5t-151.5 56.5
q-42 1 -85 -9t-79 -31.5t-61.5 -55t-32.5 -79.5q-7 -47 15.5 -80.5t59.5 -57t80 -39t77 -27.5q82 -29 158.5 -69t134.5 -95.5t90.5 -130t26.5 -171.5q-5 -73 -29.5 -132.5t-64.5 -105.5t-92.5 -79t-113 -54.5t-126 -31.5t-131.5 -9q-109 2 -204.5 34t-166 93t-111 149.5
t-38.5 203.5l292 -1q-5 -121 56.5 -180t182.5 -61q43 0 85 9t77 29.5t59.5 53.5t32.5 80z" />
    <glyph glyph-name="uni0406" unicode="&#x406;" horiz-adv-x="589" 
d="M333 0h-293l252 1456h293z" />
    <glyph glyph-name="uni0407" unicode="&#x407;" horiz-adv-x="589" 
d="M333 0h-293l252 1456h293zM103 1675q-1 28 9 51.5t28 41t42.5 27.5t51.5 11t52 -8t44 -25.5t30.5 -40t11.5 -51.5q1 -28 -9.5 -51.5t-28.5 -40.5t-42 -27t-51 -11t-51.5 8t-43.5 25.5t-30.5 39.5t-12.5 51zM576 1675q-1 28 9 51.5t28 41t42 27.5t51 11t52 -8t44.5 -25.5
t31 -40t12.5 -51.5q0 -28 -10.5 -51.5t-28.5 -41t-42 -27.5t-51 -11t-52 8t-44 25.5t-30.5 40t-11.5 51.5z" />
    <glyph glyph-name="uni0408" unicode="&#x408;" horiz-adv-x="1120" 
d="M843 1456h293l-171 -1008q-14 -105 -59.5 -192.5t-115.5 -149.5t-162 -95.5t-200 -31.5q-105 2 -185.5 34t-134.5 90t-80.5 141t-23.5 187l295 -1q-3 -42 1.5 -79.5t20.5 -66t45.5 -45.5t77.5 -18q50 -2 89 16.5t67.5 50.5t46 73.5t24.5 86.5z" />
    <glyph glyph-name="uni0409" unicode="&#x409;" horiz-adv-x="2111" 
d="M1424 1456l-86 -495l213 -1q103 -2 193 -35t155 -93.5t99 -147t25 -195.5q-9 -119 -62 -211t-135.5 -154t-187.5 -93.5t-217 -30.5h-543l210 1213h-361l-71 -413q-15 -99 -37.5 -197t-57.5 -187t-84.5 -165.5t-118.5 -132.5t-159.5 -87.5t-206.5 -30.5h-49l25 241l34 -1
q73 -2 126.5 23.5t91 69.5t62 101.5t40 120t25 126t17.5 119.5l111 656h949zM1297 719l-83 -478l214 -2q57 1 108 19t91.5 51t67 79.5t35.5 104.5q7 48 -2.5 88.5t-34 70t-62 47t-86.5 19.5z" />
    <glyph glyph-name="uni040A" unicode="&#x40a;" horiz-adv-x="2113" 
d="M462 842h564l106 614h293l-87 -504l213 -1q103 -2 192.5 -34.5t154.5 -92t99 -145t25 -194.5q-9 -119 -62 -210t-135 -152.5t-186 -92.5t-216 -30h-543l104 601h-563l-105 -601h-293l253 1456h293zM1296 710l-81 -467l215 -2q56 1 107 18t91 49t67 77.5t36 102.5
q7 48 -3 88t-35 68.5t-62.5 45.5t-85.5 19z" />
    <glyph glyph-name="uni040B" unicode="&#x40b;" horiz-adv-x="1543" 
d="M1218 1213h-452l-62 -301q51 9 102 14t102 4q112 -1 206.5 -31.5t160 -90.5t97 -149.5t18.5 -209.5l-74 -449h-293l75 450q16 121 -31.5 178.5t-169.5 59.5q-55 2 -109.5 -3t-108.5 -11l-124 -674h-293l210 1213h-335l43 243h1081z" />
    <glyph glyph-name="uni040C" unicode="&#x40c;" horiz-adv-x="1271" 
d="M576 581l-192 -178l-70 -403h-293l253 1456h293l-112 -642l149 168l438 474h382l-629 -662l375 -794h-334zM837 1846h327l-318 -310h-249z" />
    <glyph glyph-name="uni040D" unicode="&#x40d;" horiz-adv-x="1401" 
d="M1111 1456h304l-253 -1456h-294l165 948l-719 -948h-303l253 1456h293l-165 -949zM988 1539l-211 1l-223 307l291 2z" />
    <glyph glyph-name="uni040E" unicode="&#x40e;" horiz-adv-x="1264" 
d="M678 769l376 687h330l-682 -1172q-36 -66 -78 -122.5t-93.5 -98t-115.5 -64.5t-145 -23q-29 0 -56.5 1.5t-56.5 3.5l22 243q17 -3 35.5 -4.5t36.5 -2.5q40 0 70.5 9.5t55 27.5t44.5 44t38 58l38 63l-311 1037h299zM1187 1841q-3 -73 -32 -129.5t-76.5 -94.5t-110.5 -57.5
t-133 -17.5q-68 1 -125.5 22t-99.5 59t-65.5 93t-24.5 125l198 -2q-2 -59 24.5 -95t90.5 -37q65 -2 104 34.5t50 97.5z" />
    <glyph glyph-name="uni040F" unicode="&#x40f;" horiz-adv-x="1401" 
d="M261 1456h293l-211 -1215h564l211 1215h294l-253 -1456h-415l-62 -360h-295l62 360h-440z" />
    <glyph glyph-name="uni0410" unicode="&#x410;" horiz-adv-x="1347" 
d="M877 300h-508l-150 -300h-323l778 1456h271l277 -1456h-299zM489 543h351l-82 542z" />
    <glyph glyph-name="uni0411" unicode="&#x411;" horiz-adv-x="1255" 
d="M1155 1213h-630l-49 -282l212 -1q101 -2 191 -31.5t156 -86t101 -140t27 -193.5q-9 -119 -62 -209.5t-135.5 -150.5t-187 -90t-215.5 -29h-545l253 1456h926zM434 689l-78 -448l214 -1q56 0 106.5 16.5t90.5 47t67 75.5t36 103q7 49 -4 86.5t-36 63.5t-63 40t-85 16z" />
    <glyph glyph-name="uni0412" unicode="&#x412;" horiz-adv-x="1278" 
d="M21 0l253 1456l477 -1q93 -2 181.5 -22t155.5 -66t104.5 -120t30.5 -182q-4 -61 -24.5 -110.5t-53.5 -89t-78 -70t-99 -53.5q49 -17 83.5 -48.5t56.5 -72.5t30.5 -89t5.5 -97q-8 -117 -56.5 -200t-125.5 -135.5t-175.5 -76.5t-205.5 -23h-560zM425 634l-69 -393l231 -1
q48 0 93 12t81 36.5t61 61.5t33 88q14 90 -24.5 140.5t-129.5 54.5zM461 846l199 -2q47 1 91.5 12t80.5 33.5t61 58.5t33 87q7 49 -3 82.5t-35 54t-61.5 30t-81.5 10.5l-220 1z" />
    <glyph glyph-name="uni0413" unicode="&#x413;" horiz-adv-x="1117" 
d="M1160 1213h-633l-211 -1213h-293l253 1456h926z" />
    <glyph glyph-name="uni0414" unicode="&#x414;" horiz-adv-x="1495" 
d="M1272 -358h-272l62 358h-849l-62 -357h-277l89 598l90 -2q79 51 132.5 121.5t89 152t58 170.5t40.5 176l142 597h929l-211 -1215h166zM670 859q-18 -85 -39 -169t-51 -163.5t-73 -153t-104 -137.5l537 5l169 972h-356z" />
    <glyph glyph-name="uni0415" unicode="&#x415;" horiz-adv-x="1127" 
d="M982 631h-558l-68 -390h656l-42 -241h-949l253 1456h947l-43 -243h-653l-61 -347h560z" />
    <glyph glyph-name="uni0416" unicode="&#x416;" horiz-adv-x="1992" 
d="M1324 593h-174l-103 -593h-293l103 593h-162l-410 -593h-382l588 797l-299 658l349 1l212 -587h151l102 587h293l-102 -587h131l409 587h381l-541 -690l296 -766h-352z" />
    <glyph glyph-name="uni0417" unicode="&#x417;" horiz-adv-x="1235" 
d="M639 858q50 1 94 13.5t78.5 38t57.5 63.5t30 91q6 45 -8 77t-41 52.5t-63.5 30.5t-76.5 11q-42 1 -82.5 -9.5t-74 -32t-56.5 -54.5t-31 -77l-294 -1q6 105 57 183.5t129 130.5t174 77t191 24q63 -1 124 -12t115 -32.5t99 -54t76.5 -77.5t47.5 -102.5t11 -128.5
q-4 -62 -27.5 -112t-61 -90t-85.5 -71t-100 -55q97 -47 142.5 -132.5t38.5 -192.5q-5 -77 -31.5 -139.5t-70 -111.5t-100.5 -84t-121.5 -57.5t-134.5 -33t-138 -9.5q-98 1 -186 28.5t-154 80t-104 131.5t-37 184h292q-1 -45 14 -79t42.5 -57t64.5 -34.5t80 -12.5
q48 -1 96.5 10t89.5 35.5t70 62.5t37 90q16 103 -34 152t-148 52l-192 1l41 235z" />
    <glyph glyph-name="uni0418" unicode="&#x418;" horiz-adv-x="1401" 
d="M1111 1456h304l-253 -1456h-294l165 948l-719 -948h-303l253 1456h293l-165 -949z" />
    <glyph glyph-name="uni0419" unicode="&#x419;" horiz-adv-x="1401" 
d="M1111 1456h304l-253 -1456h-294l165 948l-719 -948h-303l253 1456h293l-165 -949zM1232 1841q-3 -73 -32 -129.5t-76.5 -94.5t-110.5 -57.5t-133 -17.5q-68 1 -125.5 22t-99.5 59t-65.5 93t-24.5 125l198 -2q-2 -59 24.5 -95t90.5 -37q65 -2 104 34.5t50 97.5z" />
    <glyph glyph-name="uni041A" unicode="&#x41a;" horiz-adv-x="1293" 
d="M595 595h-175l-104 -595h-293l253 1456h293l-102 -583h122l447 583h376l-568 -704l346 -752h-335z" />
    <glyph glyph-name="uni041B" unicode="&#x41b;" horiz-adv-x="1413" 
d="M1424 1456l-252 -1456h-294l210 1213h-371l-88 -413q-17 -86 -38 -179.5t-51.5 -183t-73.5 -170t-104.5 -140.5t-144 -94.5t-191.5 -32.5h-92l34 241l34 -1q68 2 117 30.5t82.5 74t55.5 103.5t36 119.5t23.5 122t18.5 110.5l139 656h950z" />
    <glyph glyph-name="uni041C" unicode="&#x41c;" horiz-adv-x="1750" 
d="M650 1456l179 -1053l543 1053h390l-253 -1456h-294l72 415l142 648l-558 -1063h-201l-195 1100l-94 -717l-67 -383h-293l253 1456h376z" />
    <glyph glyph-name="uni041D" unicode="&#x41d;" horiz-adv-x="1414" 
d="M1173 0h-293l108 624h-565l-109 -624h-293l253 1456h293l-103 -590h566l102 590h293z" />
    <glyph glyph-name="uni041E" unicode="&#x41e;" horiz-adv-x="1382" 
d="M1305 696q-13 -93 -41.5 -183t-72.5 -170t-103.5 -147.5t-133.5 -116t-162.5 -75t-190.5 -24.5q-99 2 -177.5 31.5t-137.5 79.5t-99.5 118t-63 147t-28 165t5.5 174l8 64q13 93 42 183t73.5 170t104 148t134 116.5t163 75t190.5 24.5q100 -2 178 -31.5t137 -80
t98.5 -118.5t61.5 -147t27 -166t-5 -174zM1016 768q5 44 8 95t-0.5 101.5t-16 97t-38.5 83t-66.5 59.5t-100.5 25q-64 2 -116.5 -16.5t-94 -53t-73 -81.5t-54 -100t-37 -109.5t-21.5 -110.5l-8 -65q-6 -45 -8.5 -96t1 -102.5t16.5 -99t38.5 -84.5t66.5 -60.5t102 -25.5
q65 -3 117 16.5t93.5 54.5t72.5 83t53 101.5t36 110t21 110.5z" />
    <glyph glyph-name="uni041F" unicode="&#x41f;" horiz-adv-x="1416" 
d="M1174 0h-294l210 1213h-563l-211 -1213h-293l253 1456h1150z" />
    <glyph glyph-name="uni0420" unicode="&#x420;" horiz-adv-x="1291" 
d="M404 513l-90 -513h-293l253 1456l533 -1q105 -2 194 -35.5t152.5 -94t96 -147.5t23.5 -196q-9 -120 -61.5 -208t-133.5 -146.5t-184 -87t-214 -28.5zM445 756l244 -2q55 0 104 14.5t87 42.5t64 70t34 99q7 49 -0.5 90.5t-30 72t-59 49t-87.5 20.5l-276 1z" />
    <glyph glyph-name="uni0421" unicode="&#x421;" horiz-adv-x="1310" 
d="M1206 486q-14 -121 -69.5 -216t-139.5 -160t-191 -98.5t-225 -31.5q-98 2 -175 30.5t-134 77.5t-95.5 115t-59.5 143t-25.5 162t6.5 171l13 96q13 91 41 179.5t71.5 167t101 144.5t130 113.5t159.5 73t188 23.5q119 -2 210 -40t154.5 -105.5t98.5 -162t41 -208.5l-292 1
q0 60 -11 109t-37 84t-69.5 55t-108.5 22q-64 2 -115 -16t-90.5 -50.5t-69 -77t-50 -95.5t-34 -106.5t-20.5 -108.5l-13 -99q-6 -44 -10 -94.5t-2 -100t12 -95.5t34 -81.5t63.5 -58t100.5 -24.5q134 -5 214.5 63.5t106.5 196.5z" />
    <glyph glyph-name="uni0422" unicode="&#x422;" horiz-adv-x="1239" 
d="M1296 1213h-432l-210 -1213h-293l210 1213h-427l43 243h1152z" />
    <glyph glyph-name="uni0423" unicode="&#x423;" horiz-adv-x="1264" 
d="M678 769l376 687h330l-682 -1172q-36 -66 -78 -122.5t-93.5 -98t-115.5 -64.5t-145 -23q-29 0 -56.5 1.5t-56.5 3.5l22 243q17 -3 35.5 -4.5t36.5 -2.5q40 0 70.5 9.5t55 27.5t44.5 44t38 58l38 63l-311 1037h299z" />
    <glyph glyph-name="uni0424" unicode="&#x424;" horiz-adv-x="1633" 
d="M1068 1325h2q85 4 158 -16.5t132 -61t103.5 -97.5t72.5 -125t39 -143.5t4 -153.5q-13 -134 -71.5 -245.5t-150.5 -192t-211 -123.5t-253 -39h-10l-41 -188h-282l40 184q-18 -41 -50 -44t-72 21t-85 69.5t-89 103t-83.5 121t-69 123t-46 110.5t-13.5 82q13 135 71 249
t149.5 196.5t210.5 127.5t256 42h13l42 191h276zM1047 1078l-140 -704l2 -1q80 -8 147.5 19.5t119 78t84 118t41.5 140.5q9 71 0.5 132t-37.5 107.5t-80 75t-126 34.5h-11zM767 1078q-169 -13 -271.5 -103.5t-125.5 -264.5q-9 -71 0.5 -130t39.5 -103t81 -70.5t125 -31.5h12
z" />
    <glyph glyph-name="uni0425" unicode="&#x425;" horiz-adv-x="1272" 
d="M679 956l343 500h352l-535 -736l302 -720h-324l-191 508l-351 -508h-356l547 748l-293 708h320z" />
    <glyph glyph-name="uni0426" unicode="&#x426;" horiz-adv-x="1517" 
d="M261 1456h293l-211 -1215h564l211 1215h294l-211 -1215h194l-122 -592h-275l62 351h-1051z" />
    <glyph glyph-name="uni0427" unicode="&#x427;" horiz-adv-x="1391" 
d="M1403 1456l-253 -1456h-294l106 554q-67 -17 -136 -23.5t-138 -5.5q-112 1 -206.5 31.5t-160 90.5t-97.5 150t-18 210l75 449h293l-74 -450q-16 -121 31.5 -178.5t169.5 -60.5q72 -2 143.5 6t142.5 19l122 664h294z" />
    <glyph glyph-name="uni0428" unicode="&#x428;" horiz-adv-x="1914" 
d="M566 1456l-211 -1215h390l211 1215h294l-211 -1215h386l211 1215h293l-253 -1456h-1657l253 1456h294z" />
    <glyph glyph-name="uni0429" unicode="&#x429;" horiz-adv-x="2039" 
d="M566 1456l-211 -1215h390l211 1215h294l-211 -1215h386l211 1215h293l-213 -1224h188l-119 -582h-265l61 350h-1562l253 1456h294z" />
    <glyph glyph-name="uni042A" unicode="&#x42a;" horiz-adv-x="1541" 
d="M173 1456h680l-91 -525l212 -1q101 -2 191 -31.5t156 -86t101 -140t27 -193.5q-9 -119 -62 -209.5t-135.5 -150.5t-187 -90t-215.5 -29h-544l212 1223h-385zM720 689l-78 -448l214 -1q56 0 106.5 16.5t90.5 47t67 75.5t36 103q7 49 -4 86.5t-36 63.5t-63 40t-85 16z" />
    <glyph glyph-name="uni042B" unicode="&#x42b;" horiz-adv-x="1741" 
d="M481 931l212 -1q101 -2 191 -31.5t156 -86t101 -140t27 -193.5q-9 -119 -62 -209.5t-135.5 -150.5t-187 -90t-215.5 -29h-544l253 1456h295zM439 689l-78 -448l214 -1q56 0 106.5 16.5t90.5 47t67 75.5t36 103q7 49 -4 86.5t-36 63.5t-63 40t-85 16zM1500 0h-293
l252 1456h293z" />
    <glyph glyph-name="uni042C" unicode="&#x42c;" horiz-adv-x="1253" 
d="M476 931l212 -1q101 -2 191 -31.5t156 -86t101 -140t27 -193.5q-9 -119 -62 -209.5t-135.5 -150.5t-187 -90t-215.5 -29h-544l253 1456h295zM434 689l-78 -448l214 -1q56 0 106.5 16.5t90.5 47t67 75.5t36 103q7 49 -4 86.5t-36 63.5t-63 40t-85 16z" />
    <glyph glyph-name="uni042D" unicode="&#x42d;" horiz-adv-x="1302" 
d="M326 485q1 -60 13 -108t39 -82.5t70.5 -54t107.5 -21.5q87 -3 149 30.5t105.5 88.5t72 126t48.5 143l-457 -1l43 243h438q5 42 6 86.5t-5 86.5t-20 80t-39.5 66.5t-63 46t-89.5 19.5q-69 3 -123 -15t-94 -53.5t-66 -87.5t-38 -116l-292 -2q17 120 72 216.5t138 164
t189.5 102.5t226.5 33q98 -2 175 -30.5t134.5 -78t96 -116.5t60 -144.5t26 -162.5t-6.5 -171l-13 -94q-20 -138 -72 -265.5t-137.5 -225t-204.5 -154.5t-271 -54q-117 2 -209.5 38.5t-157.5 102t-101.5 158t-40.5 207.5z" />
    <glyph glyph-name="uni042E" unicode="&#x42e;" horiz-adv-x="1884" 
d="M1806 696q-13 -93 -41.5 -183t-72.5 -170t-103.5 -147.5t-133.5 -116t-162.5 -75t-190.5 -24.5q-132 3 -228 53.5t-158 133t-91.5 189.5t-29.5 223h-169l-100 -579h-293l252 1456h293l-112 -644h152q17 88 48 172t76 158.5t104 136.5t131 106.5t157 68.5t183 22
q99 -2 177.5 -31.5t137.5 -80t98.5 -118.5t61.5 -147t27 -166t-5 -174zM1517 768q5 44 8 95t-0.5 101.5t-16 97t-38.5 83t-66.5 59.5t-100.5 25q-65 2 -117 -16.5t-93.5 -53t-73 -81.5t-54 -100t-37 -109.5t-21.5 -110.5l-8 -65q-6 -45 -8.5 -96t1 -102.5t16.5 -99
t38.5 -84.5t66.5 -60.5t102 -25.5q65 -3 117 16.5t93.5 54.5t72.5 83t53 101.5t36 110t21 110.5z" />
    <glyph glyph-name="uni042F" unicode="&#x42f;" horiz-adv-x="1195" 
d="M674 0l91 525h-226l-347 -525h-332l422 626q-90 69 -126.5 164.5t-28.5 207.5q9 119 59.5 205.5t130 143t180.5 83.5t212 27l512 -1l-253 -1456h-294zM416 977q-14 -101 26 -160.5t145 -63.5l217 -1l81 461l-184 2q-115 -1 -192 -61t-93 -177z" />
    <glyph glyph-name="uni0430" unicode="&#x430;" horiz-adv-x="1075" 
d="M626 0q-8 25 -10 48.5t-1 49.5q-57 -57 -125.5 -88.5t-150.5 -29.5q-68 1 -127.5 24t-104 64.5t-69.5 99.5t-22 128q3 71 26.5 125.5t62 95.5t89.5 68.5t108.5 44.5t119.5 24.5t122 7.5l132 -2l14 65q6 33 3 62.5t-16.5 51.5t-38 35.5t-61.5 14.5q-66 2 -112 -32.5
t-59 -99.5l-283 -1q4 90 49 156t113.5 109t151.5 62.5t163 18.5q85 -2 157.5 -28t123.5 -74.5t77 -118.5t17 -160l-74 -459q-5 -30 -9 -61t-5 -62t2.5 -61.5t14.5 -58.5l-1 -19h-277zM409 199q64 -2 118.5 28t94.5 78l35 187l-98 1q-43 -1 -86 -10.5t-78.5 -30.5t-60.5 -54
t-31 -81q-8 -54 22.5 -85.5t83.5 -32.5z" />
    <glyph glyph-name="uni0431" unicode="&#x431;" horiz-adv-x="1141" 
d="M675 1021q106 -2 182.5 -44.5t123.5 -112t66 -159.5t11 -187l-2 -22q-12 -112 -56.5 -208t-117 -165.5t-169.5 -108t-213 -36.5q-118 3 -204 50t-139.5 124t-74.5 177.5t-9 208.5l3 21l-1 4l5 31q12 91 33 182t53 176.5t77.5 162.5t107 139t140 106.5t178.5 65.5
q33 7 69 14t67.5 20.5t55.5 36.5t32 61l229 1q-4 -92 -37.5 -153.5t-89 -102t-128 -64t-153.5 -38.5q-70 -14 -125 -41t-99 -66.5t-79 -92t-64 -115.5q69 65 150.5 101t177.5 34zM607 790q-60 1 -105.5 -21.5t-77 -61.5t-50.5 -89.5t-25 -103.5l-2 -21q-5 -48 -1.5 -97.5
t21 -90t52.5 -66.5t95 -28q62 -2 108 22.5t77.5 65t49.5 92.5t25 106l2 21q4 48 0 95.5t-22 86.5t-53.5 63.5t-93.5 26.5z" />
    <glyph glyph-name="uni0432" unicode="&#x432;" horiz-adv-x="1134" 
d="M21 0l188 1082l421 -1q47 -1 96 -7t95.5 -19t87.5 -35t71 -54t46 -76t14 -102q-2 -50 -22.5 -87.5t-52 -66t-71.5 -49.5t-82 -37q42 -11 78.5 -31t63.5 -49.5t41.5 -67t13.5 -83.5q-2 -63 -22 -111t-54 -83.5t-78.5 -59t-95.5 -38t-105.5 -20.5t-106.5 -5h-526zM382 449
l-38 -218l208 -1q30 1 60 6.5t55.5 18t43.5 34.5t25 55q6 30 -1 49.5t-23.5 31t-39.5 17t-48 6.5zM415 643l157 -1q28 1 57 5.5t54 16t43.5 31.5t24.5 52q7 32 -2.5 52t-28 30.5t-44 14.5t-50.5 5l-175 1z" />
    <glyph glyph-name="uni0433" unicode="&#x433;" horiz-adv-x="842" 
d="M867 848h-435l-147 -848h-282l188 1082h717z" />
    <glyph glyph-name="uni0434" unicode="&#x434;" horiz-adv-x="1264" 
d="M48 232q57 51 100.5 106t75.5 115t53.5 127t35.5 142l66 360h775l-147 -849h151l-97 -558h-282l56 325h-619l-57 -325h-288l97 558zM597 722q-12 -68 -29.5 -134t-42.5 -128.5t-60 -121t-81 -110.5l341 5l106 610h-214z" />
    <glyph glyph-name="uni0435" unicode="&#x435;" horiz-adv-x="1084" 
d="M505 -20q-112 2 -199.5 43t-146.5 111t-86 164.5t-17 202.5l4 40q12 113 56 216t116.5 180.5t171.5 122.5t220 42q114 -2 194 -46.5t128 -118t65 -169t5 -198.5l-19 -123h-662q-3 -48 8 -90t35.5 -73.5t62.5 -50t89 -19.5q81 -3 149 29.5t123 89.5l128 -161
q-34 -51 -82.5 -88t-105 -60.5t-117.5 -34t-120 -9.5zM609 870q-52 1 -91.5 -18t-70 -51.5t-52.5 -74t-39 -83.5h389l6 27q7 40 2.5 76t-22 63t-48 43t-74.5 18z" />
    <glyph glyph-name="uni0436" unicode="&#x436;" horiz-adv-x="1707" 
d="M1091 401h-134l-69 -401h-283l70 401h-114l-279 -401h-358l441 582l-235 499l335 1l148 -404h110l70 404h282l-70 -404h94l289 404h368l-426 -525l233 -557h-333z" />
    <glyph glyph-name="uni0437" unicode="&#x437;" horiz-adv-x="1030" 
d="M510 646q31 1 60 8t52 22t39.5 38.5t22.5 56.5q5 28 -1.5 49t-21 35.5t-36.5 21.5t-49 8q-61 2 -109 -26t-63 -88l-285 -2q5 87 46.5 150.5t105 104.5t141.5 60t157 18q72 -1 145 -17.5t131.5 -52.5t94 -94.5t31.5 -143.5q-2 -46 -19 -83t-45 -66.5t-63.5 -52.5
t-73.5 -42q72 -33 106 -95.5t31 -140.5q-2 -62 -24.5 -111.5t-59 -87t-84.5 -63.5t-101.5 -42.5t-109.5 -23.5t-109 -6q-79 1 -151.5 22.5t-129 63.5t-90 106t-34.5 150l278 -1q0 -33 12 -56t32.5 -38t48 -22t58.5 -7q32 0 63.5 8.5t57.5 25.5t44 42.5t24 59.5t-1 57
t-23.5 37.5t-41 21.5t-55.5 8l-171 1l33 188z" />
    <glyph glyph-name="uni0438" unicode="&#x438;" 
d="M814 1082h291l-187 -1082h-283l113 648l-453 -648h-292l188 1082h283l-113 -647z" />
    <glyph glyph-name="uni0439" unicode="&#x439;" 
d="M814 1082h291l-187 -1082h-283l113 648l-453 -648h-292l188 1082h283l-113 -647zM1053 1523q-3 -73 -32 -129.5t-76.5 -94.5t-110.5 -57.5t-133 -17.5q-68 1 -125.5 22t-99.5 59t-65.5 93t-24.5 125l198 -2q-2 -59 24.5 -95t90.5 -37q65 -2 104 34.5t50 97.5z" />
    <glyph glyph-name="uni043A" unicode="&#x43a;" horiz-adv-x="1129" 
d="M493 399h-120l-69 -399h-283l188 1082h283l-72 -407h89l300 407l375 -1l-446 -530l275 -551h-361z" />
    <glyph glyph-name="uni043B" unicode="&#x43b;" horiz-adv-x="1139" 
d="M1105 1082l-187 -1082h-283l148 848h-242l-48 -227q-15 -76 -33 -152.5t-44 -146t-63 -129t-89.5 -103t-122.5 -68t-162 -22.5h-54l22 237l26 -1q50 0 85.5 18t59.5 48t39 69.5t25 82.5t16 86t13 81l95 461h799z" />
    <glyph glyph-name="uni043C" unicode="&#x43c;" horiz-adv-x="1518" 
d="M696 344l402 738h360l-188 -1082h-283l112 641l-354 -641h-190l-135 665l-116 -665h-283l188 1082h344z" />
    <glyph glyph-name="uni043D" unicode="&#x43d;" 
d="M915 0h-284l73 416h-346l-73 -416h-282l188 1082h282l-76 -434h347l75 434h284z" />
    <glyph glyph-name="uni043E" unicode="&#x43e;" horiz-adv-x="1133" 
d="M55 544q13 115 58 217.5t117.5 179t172 120.5t222.5 41q117 -2 202 -47.5t138 -121t74.5 -173.5t10.5 -206l-2 -22q-14 -115 -59.5 -216.5t-118.5 -177t-172.5 -118.5t-220.5 -40q-116 2 -201 47t-138 119t-74.5 171.5t-10.5 205.5zM335 523q-5 -48 -4.5 -101.5
t15.5 -99.5t49.5 -77.5t96.5 -33.5q67 -2 115 27t81 75.5t51.5 104.5t25.5 114l3 21q3 31 4 66.5t-2.5 70t-13.5 66.5t-28.5 56.5t-47.5 39.5t-71 17q-67 2 -115 -27.5t-80.5 -77t-51 -106.5t-25.5 -114z" />
    <glyph glyph-name="uni043F" unicode="&#x43f;" 
d="M918 0h-284l148 848h-350l-147 -848h-282l188 1082h914z" />
    <glyph glyph-name="uni0440" unicode="&#x440;" horiz-adv-x="1128" 
d="M1042 538q-8 -66 -25.5 -133.5t-45.5 -130.5t-66.5 -117.5t-89.5 -94.5t-114.5 -62.5t-140.5 -20.5q-75 2 -138 30.5t-110 86.5l-99 -512h-282l259 1498l260 1l-19 -109q56 63 123.5 96.5t152.5 31.5q74 -2 129.5 -25.5t95 -64t64.5 -93.5t37.5 -112.5t14.5 -123
t-4 -124.5zM762 559q4 43 5.5 96t-11 99.5t-43.5 79t-90 34.5q-66 2 -115.5 -25.5t-87.5 -78.5l-81 -446q20 -54 61 -78.5t98 -26.5q66 -2 112.5 28t77 78t47.5 106.5t24 112.5z" />
    <glyph glyph-name="uni0441" unicode="&#x441;" horiz-adv-x="1046" 
d="M473 212q78 -2 131 42.5t69 118.5l265 2q-6 -92 -47.5 -166t-106.5 -126t-147.5 -79t-171.5 -25q-117 3 -200 48t-134 120t-70.5 172t-8.5 204l3 29q13 113 56 214t114 177t168 119t218 40q94 -2 168 -34t124 -88.5t75.5 -133.5t24.5 -168h-263q0 37 -7.5 71t-25 60.5
t-46 42t-70.5 17.5q-67 2 -112.5 -26.5t-74.5 -75t-44.5 -104t-22.5 -111.5l-3 -28q-5 -45 -7 -99t9.5 -100.5t43 -79t93.5 -33.5z" />
    <glyph glyph-name="uni0442" unicode="&#x442;" horiz-adv-x="1022" 
d="M1023 850h-336l-148 -850h-283l148 850h-332l41 232h951z" />
    <glyph glyph-name="uni0443" unicode="&#x443;" horiz-adv-x="1007" 
d="M462 412l309 670h314l-633 -1245q-28 -59 -63.5 -110t-80.5 -88t-101 -58t-126 -21q-35 0 -68.5 6.5t-67.5 14.5l21 220q10 -1 19.5 -1.5t19.5 -0.5q74 -2 125 25t86 92l53 99l-177 1067h292z" />
    <glyph glyph-name="uni0444" unicode="&#x444;" horiz-adv-x="1461" 
d="M55 527q8 64 24 132.5t41.5 133.5t62.5 122t86 100t111.5 66.5t140.5 21.5q35 -1 68 -9.5t65 -22.5l91 465h282l-91 -466q30 14 61.5 22t66.5 8q73 0 126.5 -26t90 -70.5t58 -102t31.5 -120t10.5 -126.5t-5.5 -120l-3 -22q-12 -95 -43.5 -191.5t-87.5 -174t-137.5 -125
t-192.5 -44.5q-37 1 -71 9.5t-68 22.5l-84 -426h-282l84 425q-60 -27 -125 -27q-70 0 -122 23.5t-89 63t-59.5 92t-34 110.5t-13 118.5t4.5 116.5zM1091 539q3 24 6 57.5t3 69.5t-5 71t-18 63t-36.5 46.5t-60.5 20.5q-16 1 -31.5 -1t-31.5 -4l-124 -647l28 -4t28 -2
q62 -1 104.5 28t70.5 74.5t43 100.5t22 106zM335 506q-3 -26 -6 -56.5t-2.5 -62.5t6 -62t18.5 -54t36 -39.5t59 -17.5q16 -1 31.5 0t31.5 3l124 647q-13 3 -25.5 5t-26.5 2q-65 1 -109 -33t-71.5 -86.5t-42 -113t-21.5 -111.5z" />
    <glyph glyph-name="uni0445" unicode="&#x445;" horiz-adv-x="1021" 
d="M524 761l227 321h317l-392 -544l219 -538h-286l-133 338l-239 -338h-319l408 566l-209 516h286z" />
    <glyph glyph-name="uni0446" unicode="&#x446;" horiz-adv-x="1221" 
d="M191 1082h282l-147 -849h349l147 849h283l-147 -851h158l-116 -552h-263l56 321h-790z" />
    <glyph glyph-name="uni0447" unicode="&#x447;" horiz-adv-x="1110" 
d="M889 0h-282l69 342q-35 -7 -70 -11t-70 -4q-97 0 -179 25.5t-140 77t-86.5 129t-17.5 181.5l55 342h283l-57 -343q-12 -94 24 -135t130 -44q38 -1 76 3t76 10l95 509h282z" />
    <glyph glyph-name="uni0448" unicode="&#x448;" horiz-adv-x="1653" 
d="M473 1082l-147 -849h286l147 849h283l-147 -849h286l147 849h283l-188 -1082h-1420l188 1082h282z" />
    <glyph glyph-name="uni0449" unicode="&#x449;" horiz-adv-x="1799" 
d="M470 1082l-147 -849h286l147 849h283l-147 -849h286l147 849h283l-148 -850h210l-116 -553h-263l56 321h-1347l188 1082h282z" />
    <glyph glyph-name="uni044A" unicode="&#x44a;" horiz-adv-x="1314" 
d="M642 765l179 -1q85 -2 161 -26.5t132.5 -71t87.5 -116t25 -162.5q-6 -100 -51 -173.5t-115 -121.5t-157.5 -71t-177.5 -22h-500l147 848h-299l41 234h583zM602 533l-52 -302l181 -1q38 1 73.5 10.5t64.5 28.5t49 48.5t27 69.5q12 70 -24.5 105.5t-103.5 39.5z" />
    <glyph glyph-name="uni044B" unicode="&#x44b;" horiz-adv-x="1654" 
d="M437 765l179 -1q85 -2 161 -26.5t132.5 -71t87.5 -116t25 -162.5q-6 -100 -51 -173.5t-115 -121.5t-157.5 -71t-177.5 -22h-500l188 1082h284zM397 533l-52 -302l181 -1q38 1 73.5 10.5t64.5 28.5t49 48.5t27 69.5q12 70 -24.5 105.5t-103.5 39.5zM1402 0h-282l188 1082
h282z" />
    <glyph glyph-name="uni044C" unicode="&#x44c;" horiz-adv-x="1119" 
d="M437 765l179 -1q85 -2 161 -26.5t132.5 -71t87.5 -116t25 -162.5q-6 -100 -51 -173.5t-115 -121.5t-157.5 -71t-177.5 -22h-500l188 1082h284zM397 533l-52 -302l181 -1q38 1 73.5 10.5t64.5 28.5t49 48.5t27 69.5q12 70 -24.5 105.5t-103.5 39.5z" />
    <glyph glyph-name="uni044D" unicode="&#x44d;" horiz-adv-x="1043" 
d="M542 869q-77 2 -126.5 -43t-62.5 -118l-266 -1q5 91 45.5 165.5t104.5 126t146 79t171 25.5q116 -3 199 -49t134 -121.5t71 -173t10 -202.5l-3 -29q-13 -112 -56.5 -213t-115 -176.5t-168.5 -118.5t-217 -40q-94 2 -167 34t-122.5 88t-74 133t-22.5 168h264
q-2 -36 4 -69.5t21.5 -60.5t42.5 -44t68 -18q55 -2 95.5 19.5t70.5 57t51 80t36 89.5l-292 -1l32 177h274q3 40 -1 81.5t-20 75.5t-46.5 55.5t-79.5 23.5z" />
    <glyph glyph-name="uni044E" unicode="&#x44e;" horiz-adv-x="1623" 
d="M424 668h146q27 93 75.5 173.5t117.5 139t157.5 91t194.5 30.5q117 -2 202 -47.5t138 -121t74.5 -173.5t10.5 -206l-2 -22q-14 -115 -59.5 -216.5t-118.5 -177t-172.5 -118.5t-220.5 -40q-104 2 -183 38.5t-132.5 98t-81.5 143t-31 174.5h-156l-75 -434h-282l188 1082
h282zM825 523q-5 -48 -4.5 -101.5t15.5 -99.5t49.5 -77.5t96.5 -33.5q67 -2 115 27t81 75.5t51.5 104.5t25.5 114l3 21q3 31 4 66.5t-2.5 70t-13.5 66.5t-28.5 56.5t-47.5 39.5t-71 17q-67 2 -115 -27.5t-80.5 -77t-51 -106.5t-25.5 -114z" />
    <glyph glyph-name="uni044F" unicode="&#x44f;" horiz-adv-x="1121" 
d="M1068 1082l-188 -1082h-282l66 374h-167l-267 -374h-304l315 428q-75 47 -113.5 121t-33.5 162q5 97 50 167.5t114.5 116t155.5 67t172 21.5zM373 703q-6 -30 2 -53t25.5 -39t42 -24.5t51.5 -9.5l204 -1l48 274l-164 1q-34 -2 -68.5 -11.5t-63 -27.5t-49.5 -45.5
t-28 -63.5z" />
    <glyph glyph-name="uni0450" unicode="&#x450;" horiz-adv-x="1084" 
d="M505 -20q-112 2 -199.5 43t-146.5 111t-86 164.5t-17 202.5l4 40q12 113 56 216t116.5 180.5t171.5 122.5t220 42q114 -2 194 -46.5t128 -118t65 -169t5 -198.5l-19 -123h-662q-3 -48 8 -90t35.5 -73.5t62.5 -50t89 -19.5q81 -3 149 29.5t123 89.5l128 -161
q-34 -51 -82.5 -88t-105 -60.5t-117.5 -34t-120 -9.5zM609 870q-52 1 -91.5 -18t-70 -51.5t-52.5 -74t-39 -83.5h389l6 27q7 40 2.5 76t-22 63t-48 43t-74.5 18zM769 1226l-211 1l-223 307l291 2z" />
    <glyph glyph-name="uni0451" unicode="&#x451;" horiz-adv-x="1084" 
d="M505 -20q-112 2 -199.5 43t-146.5 111t-86 164.5t-17 202.5l4 40q12 113 56 216t116.5 180.5t171.5 122.5t220 42q114 -2 194 -46.5t128 -118t65 -169t5 -198.5l-19 -123h-662q-3 -48 8 -90t35.5 -73.5t62.5 -50t89 -19.5q81 -3 149 29.5t123 89.5l128 -161
q-34 -51 -82.5 -88t-105 -60.5t-117.5 -34t-120 -9.5zM609 870q-52 1 -91.5 -18t-70 -51.5t-52.5 -74t-39 -83.5h389l6 27q7 40 2.5 76t-22 63t-48 43t-74.5 18zM287 1362q-1 28 9 51.5t28 41t42.5 27.5t51.5 11t52 -8t44 -25.5t30.5 -40t11.5 -51.5q1 -28 -9.5 -51.5
t-28.5 -40.5t-42 -27t-51 -11t-51.5 8t-43.5 25.5t-30.5 39.5t-12.5 51zM760 1362q-1 28 9 51.5t28 41t42 27.5t51 11t52 -8t44.5 -25.5t31 -40t12.5 -51.5q0 -28 -10.5 -51.5t-28.5 -41t-42 -27.5t-51 -11t-52 8t-44 25.5t-30.5 40t-11.5 51.5z" />
    <glyph glyph-name="uni0452" unicode="&#x452;" horiz-adv-x="1123" 
d="M729 1189h-252l-44 -227q58 65 131 103t162 37q91 -2 151.5 -37t94.5 -93.5t44.5 -133.5t2.5 -156l-36 -211h5l-84 -505q-12 -89 -44 -164t-84.5 -128.5t-126.5 -83.5t-168 -29q-38 0 -75.5 5t-75.5 13l36 229q24 -8 48 -12t49 -4q37 0 64 15t46 39.5t30 55.5t16 63l6 35
h-2l115 685q5 39 2 72t-16.5 57t-40 38.5t-69.5 15.5q-63 2 -111.5 -24.5t-88.5 -73.5l-136 -770h-282l206 1189h-153l33 183h151l29 164h283l-32 -164h249z" />
    <glyph glyph-name="uni0453" unicode="&#x453;" horiz-adv-x="842" 
d="M867 848h-435l-147 -848h-282l188 1082h717zM617 1531h327l-318 -310h-249z" />
    <glyph glyph-name="uni0454" unicode="&#x454;" horiz-adv-x="1043" 
d="M471 212q78 -2 131 42.5t69 118.5l265 2q-6 -92 -47.5 -166t-106.5 -126t-147.5 -79t-171.5 -25q-117 3 -200 48t-134 120t-70.5 172t-8.5 204l3 29q13 113 56 214t114 177t168 119t218 40q94 -2 168 -34t124 -88.5t75.5 -133.5t24.5 -168h-263q0 37 -7.5 71t-25 60.5
t-46 42t-70.5 17.5q-57 2 -98.5 -19t-70.5 -57t-47 -82t-28 -94h301l-32 -177h-289q-2 -41 2.5 -81t20 -72.5t45 -53t78.5 -21.5z" />
    <glyph glyph-name="uni0455" unicode="&#x455;" horiz-adv-x="1031" 
d="M630 305q7 36 -10.5 58.5t-47 37t-63 23t-58.5 14.5q-61 15 -122 39.5t-110 62.5t-78.5 91t-26.5 127q3 87 44.5 152t105.5 108t143 64t157 20q81 -1 155 -23t130.5 -65.5t90.5 -109t35 -152.5l-280 1q1 68 -33.5 104t-104.5 37q-29 0 -57.5 -7.5t-52.5 -22.5t-41 -38
t-23 -54q-6 -33 10 -54t42 -34.5t56 -21t53 -12.5q67 -16 132.5 -39.5t117 -61.5t82.5 -94t28 -137q-3 -90 -48 -155t-113.5 -106t-151 -60t-160.5 -17q-82 1 -157.5 25.5t-134 71t-94 114t-36.5 155.5l266 -2q2 -78 45 -117t121 -40q30 0 61 6t57 20t45.5 36.5t25.5 55.5z
" />
    <glyph glyph-name="uni0456" unicode="&#x456;" horiz-adv-x="537" 
d="M301 0h-284l188 1082h284zM238 1357q-1 34 10.5 62t32.5 48.5t50 32.5t62 12q32 1 61 -9.5t50.5 -29.5t34.5 -46t14 -60q1 -34 -11 -62t-33 -49t-49.5 -32.5t-61.5 -12.5t-61.5 9.5t-50.5 29.5t-34.5 46.5t-13.5 60.5z" />
    <glyph glyph-name="uni0457" unicode="&#x457;" horiz-adv-x="554" 
d="M307 0h-282l188 1082h282zM29 1347q-1 28 9 51.5t28 41t42.5 27.5t51.5 11t52 -8t44 -25.5t30.5 -40t11.5 -51.5q1 -28 -9.5 -51.5t-28.5 -40.5t-42 -27t-51 -11t-51.5 8t-43.5 25.5t-30.5 39.5t-12.5 51zM502 1347q-1 28 9 51.5t28 41t42 27.5t51 11t52 -8t44.5 -25.5
t31 -40t12.5 -51.5q0 -28 -10.5 -51.5t-28.5 -41t-42 -27.5t-51 -11t-52 8t-44 25.5t-30.5 40t-11.5 51.5z" />
    <glyph glyph-name="uni0458" unicode="&#x458;" horiz-adv-x="526" 
d="M490 1082l-194 -1141q-11 -86 -42.5 -156.5t-82.5 -120.5t-122 -77.5t-161 -26.5q-38 1 -75 6t-75 13l23 230q22 -5 43.5 -8.5t43.5 -4.5q70 -1 109.5 38.5t52.5 105.5l196 1142h284zM233 1357q-1 34 10.5 62t32.5 48.5t50 32t62 12.5q32 0 61 -10t50.5 -29t34.5 -46
t14 -60q1 -34 -10.5 -62.5t-32.5 -49t-50 -32t-62 -12.5t-61.5 9.5t-50.5 29.5t-34.5 46.5t-13.5 60.5z" />
    <glyph glyph-name="uni0459" unicode="&#x459;" horiz-adv-x="1715" 
d="M1096 1082l-60 -342l180 -1q82 -2 157.5 -24.5t132.5 -67t89.5 -111.5t27.5 -158q-6 -99 -51 -171t-114.5 -118.5t-156.5 -68t-177 -20.5h-499l147 848h-225l-38 -227q-17 -119 -50 -231.5t-93 -200.5t-154 -140t-233 -49h-54l22 234l26 -1q48 0 84 18.5t62.5 49.5
t44.5 71t30.5 83t20 86t12.5 80l77 461h792zM996 508l-48 -277l181 -1q36 1 71.5 9.5t64.5 26.5t49.5 46.5t27.5 67.5q6 34 -2.5 57.5t-27 38.5t-45 22t-56.5 9z" />
    <glyph glyph-name="uni045A" unicode="&#x45a;" horiz-adv-x="1721" 
d="M400 664h346l73 418h284l-60 -342l179 -1q82 -2 158 -24.5t133 -66.5t89.5 -111t27.5 -158q-5 -100 -50.5 -172t-115 -118.5t-157 -68t-176.5 -20.5h-500l76 432h-347l-75 -432h-282l188 1082h282zM1003 508l-48 -277l181 -1q36 1 71.5 9.5t64.5 26.5t50 46.5t28 67.5
q6 34 -3 57.5t-27.5 38.5t-45 22t-56.5 9z" />
    <glyph glyph-name="uni045B" unicode="&#x45b;" horiz-adv-x="1131" 
d="M746 1201h-267l-46 -239q58 65 131 103t162 37q91 -2 151.5 -37t94.5 -93.5t44.5 -133.5t2.5 -156l-114 -682h-282l115 685q5 39 2 72t-16.5 57t-40 38.5t-69.5 15.5q-63 2 -111.5 -24.5t-88.5 -73.5l-136 -770h-282l208 1201h-138l33 183h136l27 152h283l-30 -152h264z
" />
    <glyph glyph-name="uni045C" unicode="&#x45c;" horiz-adv-x="1129" 
d="M493 399h-120l-69 -399h-283l188 1082h283l-72 -407h89l300 407l375 -1l-446 -530l275 -551h-361zM766 1531h327l-318 -310h-249z" />
    <glyph glyph-name="uni045D" unicode="&#x45d;" 
d="M814 1082h291l-187 -1082h-283l113 648l-453 -648h-292l188 1082h283l-113 -647zM809 1221l-211 1l-223 307l291 2z" />
    <glyph glyph-name="uni045E" unicode="&#x45e;" horiz-adv-x="1007" 
d="M462 412l309 670h314l-633 -1245q-28 -59 -63.5 -110t-80.5 -88t-101 -58t-126 -21q-35 0 -68.5 6.5t-67.5 14.5l21 220q10 -1 19.5 -1.5t19.5 -0.5q74 -2 125 25t86 92l53 99l-177 1067h292zM990 1528q-3 -73 -32 -129.5t-76.5 -94.5t-110.5 -57.5t-133 -17.5
q-68 1 -125.5 22t-99.5 59t-65.5 93t-24.5 125l198 -2q-2 -59 24.5 -95t90.5 -37q65 -2 104 34.5t50 97.5z" />
    <glyph glyph-name="uni045F" unicode="&#x45f;" 
d="M473 1082l-147 -849h349l147 849h283l-187 -1082h-316l-63 -359h-282l62 359h-316l188 1082h282z" />
    <glyph glyph-name="uni0460" unicode="&#x460;" horiz-adv-x="1891" 
d="M1907 1456l-169 -990q-15 -110 -60 -201t-115.5 -155.5t-164.5 -99t-208 -32.5q-47 1 -93.5 10.5t-88 29t-76 50t-58.5 72.5q-73 -80 -163.5 -122t-199.5 -40q-105 2 -187.5 39.5t-137 102.5t-78.5 153t-13 192l168 991h294l-168 -992q-5 -42 -3 -85t16.5 -77.5t45 -57.5
t81.5 -25q55 -2 97 17.5t71 53.5t46.5 79.5t25.5 94.5l168 992h295l-168 -992q-5 -43 -2.5 -85.5t17.5 -77.5t46 -57.5t82 -24.5q55 -2 96.5 17.5t70 54t45.5 79.5t25 94l168 992h295z" />
    <glyph glyph-name="uni0461" unicode="&#x461;" horiz-adv-x="1640" 
d="M1637 1082l-107 -635q-14 -100 -52 -186.5t-99.5 -150t-146 -99t-192.5 -32.5q-42 1 -82.5 9t-77 25.5t-67 44t-52.5 64.5q-66 -70 -146.5 -107.5t-178.5 -35.5q-100 2 -172.5 40.5t-118 102.5t-63.5 147.5t-8 176.5l106 636h283l-106 -637q-4 -32 -5.5 -71.5t6.5 -75
t30 -60.5t66 -28q52 -3 89 17.5t61.5 54t39 76.5t20.5 87l107 637h283l-106 -637q-4 -35 -5 -75.5t9 -75t34.5 -58.5t71.5 -26q49 -2 82.5 19.5t55.5 56t33.5 77t17.5 82.5l107 637h283z" />
    <glyph glyph-name="uni0462" unicode="&#x462;" horiz-adv-x="1253" 
d="M721 1089h-218l-27 -158l212 -1q101 -2 191 -31.5t156 -86t101 -140t27 -193.5q-9 -119 -62 -209.5t-135.5 -150.5t-187 -90t-215.5 -29h-544l189 1089h-167l33 183h166l32 184h295l-32 -184h219zM434 689l-78 -448l214 -1q56 0 106.5 16.5t90.5 47t67 75.5t36 103
q7 49 -4 86.5t-36 63.5t-63 40t-85 16z" />
    <glyph glyph-name="uni0463" unicode="&#x463;" horiz-adv-x="1118" 
d="M740 1082h-248l-51 -292l180 -1q86 -2 162 -27.5t131 -74t85 -119t24 -163.5q-6 -102 -50 -178.5t-113 -127.5t-157 -76t-182 -23h-500l188 1082h-153l32 183h152l52 296h284l-52 -296h249zM402 558l-57 -327l181 -1q83 2 143 45t74 128q11 70 -23 110t-103 44z" />
    <glyph glyph-name="uni0464" unicode="&#x464;" horiz-adv-x="1783" 
d="M459 860h163q28 125 84.5 238t141.5 198t197.5 134.5t252.5 46.5q119 -2 210 -40t154.5 -105.5t98.5 -162t41 -208.5l-292 1q0 60 -11 109t-37 84t-69.5 55t-108.5 22q-84 3 -145.5 -28t-105 -83.5t-71 -121t-43.5 -139.5h421l-41 -234h-413q-7 -65 -6.5 -134.5t20 -128
t64 -97t126.5 -41.5q134 -5 214.5 63.5t106.5 196.5l291 2q-14 -121 -69.5 -216t-139.5 -160t-191 -98.5t-225 -31.5q-93 2 -167 27.5t-130.5 70t-95 105t-62 132t-31.5 150t-2 160.5h-171l-108 -626h-293l252 1456h293z" />
    <glyph glyph-name="uni0465" unicode="&#x465;" horiz-adv-x="1509" 
d="M401 634h126q22 99 68 185.5t114.5 150t159 99.5t200.5 33q94 -2 168 -34t124 -88.5t75.5 -133.5t24.5 -168h-263q0 37 -7.5 71t-25 60.5t-46 42t-70.5 17.5q-54 2 -94.5 -17.5t-69 -52.5t-47 -76t-29.5 -89h320l-32 -183h-312q-2 -42 1.5 -84t19 -76t45 -56t80.5 -23
q78 -2 131 42.5t69 118.5l265 2q-6 -92 -47.5 -166t-106.5 -126t-147.5 -79t-171.5 -25q-107 3 -186 41t-130.5 102t-76 149t-24.5 180h-137l-78 -451h-282l188 1082h282z" />
    <glyph glyph-name="uni0466" unicode="&#x466;" horiz-adv-x="1322" 
d="M850 419h-104l-71 -419h-245l74 419h-75l-206 -419h-319l750 1456h304l244 -1456h-290zM530 627h285l-64 446z" />
    <glyph glyph-name="uni0467" unicode="&#x467;" horiz-adv-x="1121" 
d="M664 269h-86l-45 -269h-188l54 272l-62 -1l-141 -271h-301l585 1082h290l209 -1082h-269zM426 459l202 -3l-39 227l-4 107l-57 -139z" />
    <glyph glyph-name="uni0468" unicode="&#x468;" horiz-adv-x="1869" 
d="M439 626h316l428 830h304l244 -1456h-290l-62 419h-104l-71 -419h-245l74 419h-75l-206 -419h-319l216 420h-246l-72 -420h-293l252 1456h293zM1059 627h285l-64 446z" />
    <glyph glyph-name="uni0469" unicode="&#x469;" horiz-adv-x="1596" 
d="M379 456h236l339 626h290l209 -1082h-269l-46 269h-86l-45 -269h-188l54 272l-62 -1l-141 -271h-301l146 270h-168l-47 -270h-282l188 1082h282zM900 459l202 -3l-39 227l-4 107l-57 -139z" />
    <glyph glyph-name="uni046A" unicode="&#x46a;" horiz-adv-x="1741" 
d="M1176 794q104 -2 184 -35t132 -92t74.5 -143t10.5 -188l-55 -336h-293l55 337q14 108 -25 160t-148 57l-93 1l-97 -555h-293l97 555l-86 2q-60 0 -108.5 -11.5t-85.5 -37.5t-61 -68.5t-34 -103.5l-56 -336h-293l54 336q16 127 66 215t127 143t179 80t223 26l-241 655
l1258 1zM917 848l250 360l-368 2z" />
    <glyph glyph-name="uni046B" unicode="&#x46b;" horiz-adv-x="1467" 
d="M983 603q85 -11 144.5 -48t94.5 -93.5t47.5 -128.5t4.5 -152l-27 -181h-283l28 183q6 45 4.5 82t-15 64t-42.5 43t-78 20l-15 1l-76 -393h-282l74 395h-14q-108 0 -163 -55t-71 -159l-29 -181h-282l28 181q26 202 139 306.5t314 123.5l-176 470l1036 1zM732 633l173 256
l-248 2z" />
    <glyph glyph-name="uni046C" unicode="&#x46c;" horiz-adv-x="2320" 
d="M1755 794q104 -2 184 -35t132 -92t74.5 -143t10.5 -188l-55 -336h-293l55 337q14 108 -25 160t-148 57l-93 1l-97 -555h-293l97 555l-86 2q-60 0 -108.5 -11.5t-85.5 -37.5t-61 -68.5t-34 -103.5l-56 -336h-293l54 336q9 70 28 127t48 105h-279l-98 -568h-293l252 1456
h293l-113 -652h755l-239 651l1258 1zM1496 848l250 360l-368 2z" />
    <glyph glyph-name="uni046D" unicode="&#x46d;" horiz-adv-x="2009" 
d="M1524 603q85 -11 144.5 -48t94.5 -93.5t47.5 -128.5t4.5 -152l-27 -181h-283l28 183q6 45 4.5 82t-15 64t-42.5 43t-78 20l-15 1l-76 -393h-282l74 395h-14q-108 0 -163 -55t-71 -159l-29 -181h-282l28 181q16 130 69 220h-265l-69 -401h-282l188 1082h282l-82 -468h611
l-175 467l1036 1zM1273 633l173 256l-248 2z" />
    <glyph glyph-name="uni046E" unicode="&#x46e;" horiz-adv-x="1030" 
d="M408 865q47 0 91 11t79.5 34.5t59.5 59.5t32 87q7 44 -5 73.5t-37 48t-59.5 27t-72.5 9.5l-273 1l42 240l237 -1q88 -2 172.5 -21.5t149.5 -63t102 -113.5t31 -173q-4 -66 -26 -119t-58.5 -95t-86 -74t-107.5 -56q102 -45 156.5 -128t47.5 -196q-6 -111 -53.5 -193.5
t-122.5 -136.5t-170.5 -81t-197.5 -27l-57 1q-25 -1 -48.5 -7.5t-43 -19t-33 -31.5t-18.5 -46q-5 -30 3 -52.5t24.5 -40.5t39 -31.5t45.5 -24.5l-93 -172q-65 18 -116 51.5t-86.5 80t-53 105t-14.5 126.5q4 81 36 138.5t84 94.5t119 54t141 17l64 -1q46 0 91 11.5t82.5 35
t63.5 59.5t34 86q9 55 -4 94.5t-42 65t-71.5 38t-92.5 14.5l-158 1l42 241zM668 1786l167 141l250 6l1 -21l-328 -276h-179l-260 279v19l233 -6z" />
    <glyph glyph-name="uni046F" unicode="&#x46f;" horiz-adv-x="1011" 
d="M382 626q35 1 70 8t65 23t51 42.5t28 65.5q6 34 -8.5 54.5t-40 31.5t-56 14.5t-55.5 4.5l-273 1l37 211l237 -1q46 -1 97.5 -5.5t101.5 -17t95.5 -33t79.5 -52t52.5 -76t16.5 -104.5q-2 -51 -19.5 -90.5t-46 -70.5t-66.5 -55t-81 -43q36 -14 68 -35t55.5 -48.5t37 -62
t12.5 -76.5q-1 -63 -23 -112.5t-58.5 -87t-84.5 -63t-102 -41.5t-110 -23t-109 -7l-49 1q-26 -1 -52 -6.5t-48 -17.5t-37.5 -31.5t-20.5 -48.5q-5 -28 1 -50.5t20.5 -40.5t34.5 -32t43 -26l-90 -158q-54 22 -100 56.5t-79 79.5t-51 99t-16 114q3 73 32.5 125t77.5 85
t109.5 48t127.5 15l55 -1q34 0 74.5 6t77 20.5t64 40t35.5 66.5t-9 65.5t-46.5 37.5t-65 17t-64.5 5l-173 1l32 179zM582 1399l167 141l250 6l1 -21l-328 -276h-179l-260 279v19l233 -6z" />
    <glyph glyph-name="uni0470" unicode="&#x470;" horiz-adv-x="1453" 
d="M869 630q69 16 120 49.5t86.5 80.5t57 106.5t32.5 126.5l79 463h295l-79 -463q-19 -128 -69 -233.5t-128 -183.5t-184 -125.5t-236 -59.5l-76 -391h-293l76 392q-120 13 -207 66t-141 133.5t-74.5 184t-6.5 217.5l77 463h293l-78 -464q-8 -57 -6.5 -113.5t18.5 -104.5
t53 -85t98 -55l151 822h293z" />
    <glyph glyph-name="uni0471" unicode="&#x471;" horiz-adv-x="1488" 
d="M954 1082l-157 -859q144 38 229 135t108 243q20 121 12.5 243.5t-40.5 240.5l250 -2q50 -113 61.5 -237.5t-2.5 -245.5q-16 -135 -69 -242.5t-136 -185t-194 -124.5t-244 -60l-89 -466h-282l89 469q-119 18 -205 70t-139.5 130.5t-73.5 179.5t-6 218l83 493h283l-83 -497
q-8 -59 -6 -114.5t20 -103t54.5 -84t97.5 -57.5l157 856h282z" />
    <glyph glyph-name="uni0472" unicode="&#x472;" horiz-adv-x="1377" 
d="M1309 696q-13 -93 -41.5 -183t-72.5 -170t-103.5 -147.5t-133.5 -116t-162.5 -75t-190.5 -24.5q-99 2 -177.5 31.5t-137.5 79.5t-99.5 118t-63 147t-28 165t5.5 174l8 64q13 93 42 183t73.5 170t104 148t134 116.5t163 75t190.5 24.5q99 -2 177.5 -31.5t137.5 -80
t98.5 -118.5t61.5 -147t27 -166t-5 -174zM618 225q88 -3 153.5 33t111.5 96t74.5 135.5t43.5 150.5h-605q-4 -44 -4 -91.5t6.5 -92.5t21 -86.5t40.5 -72.5t64.5 -50.5t93.5 -21.5zM806 1229q-87 3 -152.5 -31.5t-112 -93t-75.5 -132.5t-45 -149h605q3 43 3.5 89.5t-6 91
t-21 84.5t-40 70.5t-64 49.5t-92.5 21z" />
    <glyph glyph-name="uni0473" unicode="&#x473;" horiz-adv-x="1131" 
d="M54 544q13 115 58 217.5t117.5 179t172 120.5t222.5 41q117 -2 202 -47.5t138 -121t74.5 -173.5t10.5 -206l-2 -22q-14 -115 -59.5 -216.5t-118.5 -177t-172.5 -118.5t-220.5 -40q-116 2 -201 47t-138 119t-74.5 171.5t-10.5 205.5zM608 869q-54 2 -96 -18t-73 -53.5
t-52 -78t-34 -90.5h418q0 42 -6.5 84.5t-24.5 76t-49.5 55.5t-82.5 24zM491 211q54 -2 96 17.5t73.5 52.5t52.5 76t34 90h-418q-1 -42 5.5 -83.5t24.5 -75t49.5 -54.5t82.5 -23z" />
    <glyph glyph-name="uni0474" unicode="&#x474;" horiz-adv-x="1287" 
d="M575 395l2 -85l38 93l318 720q29 70 66 134t86.5 113t114 77.5t147.5 28.5l46 -1l-28 -253l-25 1q-27 -1 -48.5 -11t-39 -26.5t-31.5 -37.5t-24 -43l-511 -1105h-303l-219 1456l292 2z" />
    <glyph glyph-name="uni0475" unicode="&#x475;" horiz-adv-x="1024" 
d="M433 398v-86l42 116l141 341q25 64 59 124.5t80 107.5t105 75.5t135 28.5q30 0 57 -5t55 -16l-47 -228q-11 2 -23 4t-24 2q-24 0 -44 -9.5t-36.5 -24.5t-29.5 -34.5t-22 -38.5l-357 -755h-269l-150 1082h285z" />
    <glyph glyph-name="uni0476" unicode="&#x476;" horiz-adv-x="1287" 
d="M575 395l2 -85l38 93l318 720q29 70 66 134t86.5 113t114 77.5t147.5 28.5l46 -1l-28 -253l-25 1q-27 -1 -48.5 -11t-39 -26.5t-31.5 -37.5t-24 -43l-511 -1105h-303l-219 1456l292 2zM764 1545h-256l-237 266h301zM1091 1545h-247l-192 266h293z" />
    <glyph glyph-name="uni0477" unicode="&#x477;" horiz-adv-x="1024" 
d="M433 398v-86l42 116l141 341q25 64 59 124.5t80 107.5t105 75.5t135 28.5q30 0 57 -5t55 -16l-47 -228q-11 2 -23 4t-24 2q-24 0 -44 -9.5t-36.5 -24.5t-29.5 -34.5t-22 -38.5l-357 -755h-269l-150 1082h285zM617 1240h-256l-237 266h301zM944 1240h-247l-192 266h293z
" />
    <glyph glyph-name="uni0478" unicode="&#x478;" horiz-adv-x="2389" 
d="M1305 696q-13 -93 -41.5 -183t-72.5 -170t-103.5 -147.5t-133.5 -116t-162.5 -75t-190.5 -24.5q-99 2 -177.5 31.5t-137.5 79.5t-99.5 118t-63 147t-28 165t5.5 174l8 64q13 93 42 183t73.5 170t104 148t134 116.5t163 75t190.5 24.5q100 -2 178 -31.5t137 -80
t98.5 -118.5t61.5 -147t27 -166t-5 -174zM1016 768q5 44 8 95t-0.5 101.5t-16 97t-38.5 83t-66.5 59.5t-100.5 25q-64 2 -116.5 -16.5t-94 -53t-73 -81.5t-54 -100t-37 -109.5t-21.5 -110.5l-8 -65q-6 -45 -8.5 -96t1 -102.5t16.5 -99t38.5 -84.5t66.5 -60.5t102 -25.5
q65 -3 117 16.5t93.5 54.5t72.5 83t53 101.5t36 110t21 110.5zM1844 412l309 670h314l-633 -1245q-28 -59 -63.5 -110t-80.5 -88t-101 -58t-126 -21q-35 0 -68.5 6.5t-67.5 14.5l21 220q10 -1 19.5 -1.5t19.5 -0.5q74 -2 125 25t86 92l53 99l-177 1067h292z" />
    <glyph glyph-name="uni0479" unicode="&#x479;" horiz-adv-x="2140" 
d="M55 544q13 115 58 217.5t117.5 179t172 120.5t222.5 41q117 -2 202 -47.5t138 -121t74.5 -173.5t10.5 -206l-2 -22q-14 -115 -59.5 -216.5t-118.5 -177t-172.5 -118.5t-220.5 -40q-116 2 -201 47t-138 119t-74.5 171.5t-10.5 205.5zM335 523q-5 -48 -4.5 -101.5
t15.5 -99.5t49.5 -77.5t96.5 -33.5q67 -2 115 27t81 75.5t51.5 104.5t25.5 114l3 21q3 31 4 66.5t-2.5 70t-13.5 66.5t-28.5 56.5t-47.5 39.5t-71 17q-67 2 -115 -27.5t-80.5 -77t-51 -106.5t-25.5 -114zM1595 412l309 670h314l-633 -1245q-28 -59 -63.5 -110t-80.5 -88
t-101 -58t-126 -21q-35 0 -68.5 6.5t-67.5 14.5l21 220q10 -1 19.5 -1.5t19.5 -0.5q74 -2 125 25t86 92l53 99l-177 1067h292z" />
    <glyph glyph-name="uni047A" unicode="&#x47a;" horiz-adv-x="1377" 
d="M868 1114h-192l80 462h193zM654 -135h-193l83 471h192zM1309 696q-13 -93 -41.5 -183t-72.5 -170t-103.5 -147.5t-133.5 -116t-162.5 -75t-190.5 -24.5q-99 2 -177.5 31.5t-137.5 79.5t-99.5 118t-63 147t-28 165t5.5 174l8 64q13 93 42 183t73.5 170t104 148t134 116.5
t163 75t190.5 24.5q99 -2 177.5 -31.5t137.5 -80t98.5 -118.5t61.5 -147t27 -166t-5 -174zM1020 768q5 44 8 95t-0.5 101.5t-16 97t-38.5 83t-66.5 59.5t-100.5 25q-65 2 -117 -16.5t-93.5 -53t-73 -81.5t-54 -100t-37 -109.5t-21.5 -110.5l-8 -65q-6 -45 -8.5 -96t1 -102.5
t16.5 -99t38.5 -84.5t66.5 -60.5t102 -25.5q65 -3 117 16.5t93.5 54.5t72.5 83t53 101.5t36 110t21 110.5z" />
    <glyph glyph-name="uni047B" unicode="&#x47b;" horiz-adv-x="1131" 
d="M672 755h-163l78 449h163zM515 -124h-164l81 464h164zM55 544q13 115 58 217.5t117.5 179t172 120.5t222.5 41q117 -2 202 -47.5t138 -121t74.5 -173.5t10.5 -206l-2 -22q-14 -115 -59.5 -216.5t-118.5 -177t-172.5 -118.5t-220.5 -40q-116 2 -201 47t-138 119
t-74.5 171.5t-10.5 205.5zM335 523q-5 -48 -4.5 -101.5t15.5 -99.5t49.5 -77.5t96.5 -33.5q67 -2 115 27t81 75.5t51.5 104.5t25.5 114l3 21q3 31 4 66.5t-2.5 70t-13.5 66.5t-28.5 56.5t-47.5 39.5t-71 17q-67 2 -115 -27.5t-80.5 -77t-51 -106.5t-25.5 -114z" />
    <glyph glyph-name="uni047C" unicode="&#x47c;" horiz-adv-x="1890" 
d="M1390 1458q106 -6 188 -45t135 -104t76 -154t11 -194l-77 -489q-15 -110 -60 -202t-116 -157.5t-165.5 -101t-208.5 -32.5q-45 1 -89.5 10t-85 27t-75 46t-59.5 67q-73 -74 -160.5 -113.5t-193.5 -37.5q-107 2 -189 40.5t-136 104.5t-77 155.5t-12 193.5l78 489
q16 116 62.5 207.5t119 155t168.5 98t213 36.5l-25 -244q-56 0 -98 -20.5t-71.5 -55t-47.5 -80.5t-26 -97l-79 -490q-5 -42 -3.5 -86t16 -80t44.5 -60t82 -26q55 -3 97 17t71 54.5t46.5 79.5t25.5 94l57 351h279l-57 -351q-5 -43 -3 -86t17 -78t46 -57.5t83 -24.5
q56 -2 97.5 19t70 57t45.5 82.5t25 94.5l79 491q6 45 5 88t-15 77.5t-44 57t-82 26.5zM1553 1711l-6 -138l-16 1q-60 2 -117 22t-113.5 42.5t-112.5 41t-113 18.5q-50 0 -82 -28t-41 -77l-2 -19l-131 1l2 39q7 107 69 163.5t170 54.5q61 -1 118 -20t113.5 -41.5t114 -41
t120.5 -19.5zM933 1341q29 32 54 67.5t35 79.5l18 94l166 -1l-13 -101q-5 -35 -22 -64.5t-41 -55t-52.5 -46.5t-56.5 -37z" />
    <glyph glyph-name="uni047D" unicode="&#x47d;" horiz-adv-x="1615" 
d="M1124 1101q98 -6 173 -43.5t123.5 -99t68.5 -143.5t10 -179l-26 -194q-13 -97 -50 -182.5t-97.5 -149t-143.5 -99t-188 -32.5q-41 1 -79 10.5t-71.5 27.5t-61 45t-46.5 64q-59 -68 -132.5 -109t-166.5 -39q-99 1 -170.5 40t-116 102.5t-62 147t-7.5 174.5l26 194
q14 109 56.5 194.5t109.5 144.5t157 91.5t199 34.5l-24 -234q-50 -1 -87 -20t-62.5 -51t-41 -73.5t-22.5 -86.5l-27 -196q-3 -29 -5 -67.5t5.5 -74t28.5 -60.5t63 -28q48 -3 80.5 19.5t54.5 58t33.5 77.5t17.5 80l24 161h270l-24 -161q-4 -32 -5 -71.5t7.5 -75.5t31 -61
t66.5 -27q46 -2 77.5 20t52 57t31.5 77t16 78l28 196q5 39 5 77.5t-11.5 70t-37 53t-71.5 25.5zM1376 1373l-6 -138l-19 1q-60 2 -117 22t-112.5 42.5t-111 41t-112.5 18.5q-51 0 -83.5 -27.5t-42.5 -77.5l-2 -19l-131 1l2 39q7 107 70 163.5t171 54.5q61 -1 118 -20
t113 -41.5t114 -41t121 -19.5zM763 1009q29 32 54 67.5t35 79.5l18 94l166 -1l-13 -101q-5 -35 -22 -64.5t-41 -55t-52.5 -46.5t-56.5 -37z" />
    <glyph glyph-name="uni047E" unicode="&#x47e;" horiz-adv-x="1891" 
d="M696 1687l24 134h860l-22 -134h-350l-23 -127h-178l23 127h-334zM1907 1456l-169 -990q-15 -110 -60 -201t-115.5 -155.5t-164.5 -99t-208 -32.5q-47 1 -93.5 10.5t-88 29t-76 50t-58.5 72.5q-73 -80 -163.5 -122t-199.5 -40q-105 2 -187.5 39.5t-137 102.5t-78.5 153
t-13 192l168 991h294l-168 -992q-5 -42 -3 -85t16.5 -77.5t45 -57.5t81.5 -25q55 -2 97 17.5t71 53.5t46.5 79.5t25.5 94.5l168 992h295l-168 -992q-5 -43 -2.5 -85.5t17.5 -77.5t46 -57.5t82 -24.5q55 -2 96.5 17.5t70 54t45.5 79.5t25 94l168 992h295z" />
    <glyph glyph-name="uni047F" unicode="&#x47f;" horiz-adv-x="1641" 
d="M552 1323l24 134h800l-18 -134h-325l-23 -127h-177l23 127h-304zM1637 1082l-107 -635q-14 -100 -52 -186.5t-99.5 -150t-146 -99t-192.5 -32.5q-42 1 -82.5 9t-77 25.5t-67 44t-52.5 64.5q-66 -70 -146.5 -107.5t-178.5 -35.5q-100 2 -172.5 40.5t-118 102.5
t-63.5 147.5t-8 176.5l106 636h283l-106 -637q-4 -32 -5.5 -71.5t6.5 -75t30 -60.5t66 -28q52 -3 89 17.5t61.5 54t39 76.5t20.5 87l107 637h283l-106 -637q-4 -35 -5 -75.5t9 -75t34.5 -58.5t71.5 -26q49 -2 82.5 19.5t55.5 56t33.5 77t17.5 82.5l107 637h283z" />
    <glyph glyph-name="uni0480" unicode="&#x480;" horiz-adv-x="1244" 
d="M655 -361h-293l69 351q-103 22 -174.5 80.5t-114 139t-56 176t-1.5 192.5l46 298q18 124 69 234t131.5 192.5t189 130t241.5 45.5q119 -2 208.5 -38t149 -102t87 -159t23.5 -210l-293 1q3 55 -2.5 103t-26 83.5t-59.5 56.5t-102 23q-75 2 -130.5 -29.5t-95 -83.5
t-63 -116.5t-33.5 -128.5l-48 -301q-5 -35 -6.5 -74.5t2.5 -78t15 -74t31.5 -63.5t52 -45.5t77.5 -19.5l207 -3z" />
    <glyph glyph-name="uni0481" unicode="&#x481;" horiz-adv-x="1072" 
d="M584 -365h-283l70 356q-93 22 -154.5 75.5t-96.5 126.5t-46 158.5t-3 171.5l3 29q13 112 56.5 213t115 177t169 119.5t217.5 40.5q94 -2 166.5 -34.5t121.5 -88.5t74 -133t23 -168h-265q1 35 -4.5 68.5t-21 60t-42.5 43.5t-67 19q-65 3 -111.5 -26.5t-77 -76t-48 -103.5
t-24.5 -111l-4 -28q-3 -29 -5.5 -62.5t-1 -67.5t8.5 -65.5t23 -56t42 -40.5t65 -18l200 -3z" />
    <glyph glyph-name="uni0482" unicode="&#x482;" horiz-adv-x="1247" 
d="M558 438l252 -172l-83 -114l-253 169l-232 -321h-190l296 409l-251 171l82 114l254 -170l268 373l-252 171l84 116l253 -170l237 327l187 1l-300 -416l255 -171l-86 -113l-250 169z" />
    <glyph glyph-name="uni0483" unicode="&#x483;" horiz-adv-x="10" 
d="M-585 1312l-23 -126l-173 1l43 238h529l18 108l174 -1l-39 -220h-529z" />
    <glyph glyph-name="uni0484" unicode="&#x484;" horiz-adv-x="10" 
d="M-723 1437q66 0 127.5 18.5t122 41t121 41t125.5 17.5q101 -2 159.5 -56t55.5 -157l-2 -40l-130 1l3 21q3 45 -14.5 70t-64.5 27q-61 3 -122 -15t-123 -40.5t-124.5 -42.5t-126.5 -21h-32l8 135h17z" />
    <glyph glyph-name="uni0485" unicode="&#x485;" horiz-adv-x="10" 
d="M-442 1515l23 128h185l-32 -178l38 -104l-77 -56z" />
    <glyph glyph-name="uni0486" unicode="&#x486;" horiz-adv-x="10" 
d="M-368 1307l-82 81l79 110l25 145h185l-27 -157z" />
    <glyph glyph-name="uni0488" unicode="&#x488;" horiz-adv-x="10" 
d="M-599 1267q7 88 61 139t145 50q44 0 80.5 -14t62.5 -38.5t41 -60t17 -79.5l-106 2q1 21 -1 39t-10 32t-23 22.5t-39 8.5t-43 -7.5t-33 -21t-23.5 -32.5t-15.5 -40h-113zM-74 990q3 43 19 78.5t42.5 60t62.5 37.5t81 13t81.5 -14t63 -38.5t41.5 -60t16 -79.5l-107 2
q1 21 -1 39t-10 32t-23 22.5t-39 8.5q-48 1 -74.5 -29t-38.5 -72h-114zM22 486q6 88 59.5 139t144.5 50q44 0 80.5 -13.5t62.5 -38.5t41 -60t17 -79l-107 2q1 21 -1 39t-10 32t-23 22.5t-39 8.5q-48 1 -75 -29t-39 -72zM-258 -33q6 87 59.5 138.5t143.5 50.5
q44 0 80.5 -13.5t62.5 -38t41 -60t17 -79.5l-107 2q1 21 -1 39t-10 32t-23 22.5t-39 8.5q-48 1 -74.5 -29t-38.5 -72zM-868 -316q6 88 60.5 139t145.5 50q44 0 80.5 -14t62.5 -38.5t41 -60t17 -79.5l-107 2q1 20 -1 38.5t-10 32.5t-23 22.5t-39 8.5q-48 1 -75 -29t-39 -72
h-113zM-1203 990q7 89 61.5 139.5t145.5 49.5q44 0 80.5 -14t62.5 -38.5t41 -60t17 -79.5l-106 2q1 21 -1 39t-10 32t-23 22.5t-39 8.5t-43 -7.5t-33 -21t-23.5 -32.5t-15.5 -40h-114zM-1459 486q7 88 60.5 139t144.5 50q44 0 80.5 -13.5t62.5 -38.5t41 -60t16 -79l-106 2
q1 21 -1 39t-10 32t-23 22.5t-39 8.5q-48 1 -75 -29t-39 -72zM-1387 -33q6 88 59.5 139t144.5 50q44 0 80.5 -13.5t63 -38t41.5 -60t16 -79.5l-107 2q1 21 -1 39t-10 32t-23 22.5t-39 8.5q-48 1 -75 -29t-38 -72z" />
    <glyph glyph-name="uni0489" unicode="&#x489;" horiz-adv-x="0" 
d="M-508 -57l15 -21l-168 -335h-105l124 353zM-474 1123l-16 19l168 336h105l-125 -352zM81 633l8 9l316 -129l-16 -88l-319 67zM-1067 431l-8 -9l-316 130l16 87l318 -67zM-82 1002l3 19l328 151l65 -81l-300 -188zM-911 21l-2 -20l-329 -151l-65 82l302 188zM-890 860
l-18 1l-97 342l63 56l152 -305zM-105 161l19 -1l96 -341l-64 -58l-150 305z" />
    <glyph glyph-name="uni048A" unicode="&#x48a;" horiz-adv-x="1401" 
d="M1111 1456h304l-253 -1456h-294l165 948l-719 -948h-303l253 1456h293l-165 -949zM1232 1841q-3 -73 -32 -129.5t-76.5 -94.5t-110.5 -57.5t-133 -17.5q-68 1 -125.5 22t-99.5 59t-65.5 93t-24.5 125l198 -2q-2 -59 24.5 -95t90.5 -37q65 -2 104 34.5t50 97.5zM1382 7
q-20 -124 -86 -230.5t-164 -184.5l-149 81q24 39 48 76.5t45 75.5t37 79t25 87l37 212h238z" />
    <glyph glyph-name="uni048B" unicode="&#x48b;" 
d="M814 1082h291l-187 -1082h-283l113 648l-453 -648h-292l188 1082h283l-113 -647zM1053 1523q-3 -73 -32 -129.5t-76.5 -94.5t-110.5 -57.5t-133 -17.5q-68 1 -125.5 22t-99.5 59t-65.5 93t-24.5 125l198 -2q-2 -59 24.5 -95t90.5 -37q65 -2 104 34.5t50 97.5zM1140 7
q-20 -124 -86 -230.5t-164 -184.5l-149 81q24 39 48 76.5t45 75.5t37 79t25 87l37 212h238z" />
    <glyph glyph-name="uni048C" unicode="&#x48c;" horiz-adv-x="1253" 
d="M721 1089h-218l-27 -158l212 -1q101 -2 191 -31.5t156 -86t101 -140t27 -193.5q-9 -119 -62 -209.5t-135.5 -150.5t-187 -90t-215.5 -29h-544l189 1089h-167l33 183h166l32 184h295l-32 -184h219zM434 689l-78 -448l214 -1q56 0 106.5 16.5t90.5 47t67 75.5t36 103
q7 49 -4 86.5t-36 63.5t-63 40t-85 16z" />
    <glyph glyph-name="uni048D" unicode="&#x48d;" horiz-adv-x="1118" 
d="M773 1273h-248l-84 -483l180 -1q86 -2 162 -27.5t131 -74t85 -119t24 -163.5q-6 -102 -50 -178.5t-113 -127.5t-157 -76t-182 -23h-500l221 1273h-153l33 183h151l29 159h283l-28 -159h249zM402 558l-57 -327l181 -1q83 2 143 45t74 128q11 70 -23 110t-103 44z" />
    <glyph glyph-name="uni048E" unicode="&#x48e;" horiz-adv-x="1260" 
d="M1173 499l-101 -78l-349 503l100 79zM404 513l-90 -513h-293l253 1456l533 -1q105 -2 194 -35.5t152.5 -94t96 -147.5t23.5 -196q-9 -120 -61.5 -208t-133.5 -146.5t-184 -87t-214 -28.5zM445 756l244 -2q55 0 104 14.5t87 42.5t64 70t34 99q7 49 -0.5 90.5t-30 72
t-59 49t-87.5 20.5l-276 1z" />
    <glyph glyph-name="uni048F" unicode="&#x48f;" horiz-adv-x="1129" 
d="M930 -9l-104 -78l-301 477l103 77zM1042 538q-8 -66 -25.5 -133.5t-45.5 -130.5t-66.5 -117.5t-89.5 -94.5t-114.5 -62.5t-140.5 -20.5q-75 2 -138 30.5t-110 86.5l-99 -512h-282l259 1498l260 1l-19 -109q56 63 123.5 96.5t152.5 31.5q74 -2 129.5 -25.5t95 -64
t64.5 -93.5t37.5 -112.5t14.5 -123t-4 -124.5zM762 559q4 43 5.5 96t-11 99.5t-43.5 79t-90 34.5q-66 2 -115.5 -25.5t-87.5 -78.5l-81 -446q20 -54 61 -78.5t98 -26.5q66 -2 112.5 28t77 78t47.5 106.5t24 112.5z" />
    <glyph glyph-name="uni0490" unicode="&#x490;" horiz-adv-x="1113" 
d="M1170 1224h-13l-2 -11h-633l-211 -1213h-293l253 1456h657l65 373h283z" />
    <glyph glyph-name="uni0491" unicode="&#x491;" horiz-adv-x="927" 
d="M904 849h-40v-1h-435l-147 -848h-282l188 1082h473l56 316h282z" />
    <glyph glyph-name="uni0492" unicode="&#x492;" horiz-adv-x="1117" 
d="M663 662h-232l-115 -662h-293l115 662h-155l33 183h154l106 611h926l-42 -243h-633l-64 -368h233z" />
    <glyph glyph-name="uni0493" unicode="&#x493;" horiz-adv-x="842" 
d="M597 453h-234l-78 -453h-282l78 453h-164l33 183h163l78 446h717l-41 -234h-435l-37 -212h235z" />
    <glyph glyph-name="uni0494" unicode="&#x494;" horiz-adv-x="1127" 
d="M1160 1213h-633l-66 -378h145q130 -2 230 -44.5t165 -118.5t93 -181.5t15 -234.5q-14 -131 -63 -240t-128.5 -187.5t-188.5 -123t-242 -47.5l21 222q76 2 131.5 33.5t93 81.5t59.5 114t31 132q9 67 4.5 130.5t-28.5 113t-72 80.5t-126 34h-181l-104 -599h-293l253 1456
h926z" />
    <glyph glyph-name="uni0495" unicode="&#x495;" horiz-adv-x="1061" 
d="M864 848h-435l-32 -183h32q109 -2 202 -34t158 -92.5t98.5 -149t24.5 -204.5q-7 -88 -45 -163t-96.5 -135t-132.5 -104.5t-153 -71.5l-102 199q45 21 86 47.5t73.5 60t54.5 75.5t30 94q16 112 -37.5 175t-165.5 67h-68l-74 -429h-282l188 1082h717z" />
    <glyph glyph-name="uni0496" unicode="&#x496;" horiz-adv-x="1992" 
d="M1324 593h-174l-103 -593h-293l103 593h-162l-410 -593h-382l588 797l-299 658l349 1l212 -587h151l102 587h293l-102 -587h131l409 587h381l-541 -690l296 -766h-352zM1943 -357h-282l97 562h283z" />
    <glyph glyph-name="uni0497" unicode="&#x497;" horiz-adv-x="1707" 
d="M1091 401h-134l-69 -401h-283l70 401h-114l-279 -401h-358l441 582l-235 499l335 1l148 -404h110l70 404h282l-70 -404h94l289 404h368l-426 -525l233 -557h-333zM1618 -357h-282l97 562h283z" />
    <glyph glyph-name="uni0498" unicode="&#x498;" horiz-adv-x="1235" 
d="M639 858q50 1 94 13.5t78.5 38t57.5 63.5t30 91q6 45 -8 77t-41 52.5t-63.5 30.5t-76.5 11q-42 1 -82.5 -9.5t-74 -32t-56.5 -54.5t-31 -77l-294 -1q6 105 57 183.5t129 130.5t174 77t191 24q63 -1 124 -12t115 -32.5t99 -54t76.5 -77.5t47.5 -102.5t11 -128.5
q-4 -62 -27.5 -112t-61 -90t-85.5 -71t-100 -55q97 -47 142.5 -132.5t38.5 -192.5q-5 -77 -31.5 -139.5t-70 -111.5t-100.5 -84t-121.5 -57.5t-134.5 -33t-138 -9.5q-98 1 -186 28.5t-154 80t-104 131.5t-37 184h292q-1 -45 14 -79t42.5 -57t64.5 -34.5t80 -12.5
q48 -1 96.5 10t89.5 35.5t70 62.5t37 90q16 103 -34 152t-148 52l-192 1l41 235zM561 -480h-282l97 562h283z" />
    <glyph glyph-name="uni0499" unicode="&#x499;" horiz-adv-x="1030" 
d="M510 646q31 1 60 8t52 22t39.5 38.5t22.5 56.5q5 28 -1.5 49t-21 35.5t-36.5 21.5t-49 8q-61 2 -109 -26t-63 -88l-285 -2q5 87 46.5 150.5t105 104.5t141.5 60t157 18q72 -1 145 -17.5t131.5 -52.5t94 -94.5t31.5 -143.5q-2 -46 -19 -83t-45 -66.5t-63.5 -52.5
t-73.5 -42q72 -33 106 -95.5t31 -140.5q-2 -62 -24.5 -111.5t-59 -87t-84.5 -63.5t-101.5 -42.5t-109.5 -23.5t-109 -6q-79 1 -151.5 22.5t-129 63.5t-90 106t-34.5 150l278 -1q0 -33 12 -56t32.5 -38t48 -22t58.5 -7q32 0 63.5 8.5t57.5 25.5t44 42.5t24 59.5t-1 57
t-23.5 37.5t-41 21.5t-55.5 8l-171 1l33 188zM471 -479h-282l97 562h283z" />
    <glyph glyph-name="uni049A" unicode="&#x49a;" horiz-adv-x="1293" 
d="M595 595h-175l-104 -595h-293l253 1456h293l-102 -583h122l447 583h376l-568 -704l346 -752h-335zM1248 -357h-282l97 562h283z" />
    <glyph glyph-name="uni049B" unicode="&#x49b;" horiz-adv-x="1129" 
d="M493 399h-120l-69 -399h-283l188 1082h283l-72 -407h89l300 407l375 -1l-446 -530l275 -551h-361zM1069 -357h-282l97 562h283z" />
    <glyph glyph-name="uni049C" unicode="&#x49c;" horiz-adv-x="1324" 
d="M1461 1456l-496 -682l269 -774h-362l-154 591l-54 2l-47 -230h-164l41 228h-77l-103 -591h-295l253 1456h295l-103 -589h77l45 258h165l-53 -261h33l350 592h380z" />
    <glyph glyph-name="uni049D" unicode="&#x49d;" horiz-adv-x="1206" 
d="M1273 1082l-385 -530l200 -552h-349l-89 400l-47 1l-36 -172h-149l30 170h-74l-70 -399h-283l188 1082h283l-72 -407h75l34 190h149l-41 -193h42l223 410h371z" />
    <glyph glyph-name="uni049E" unicode="&#x49e;" horiz-adv-x="1313" 
d="M734 1098h-208l-39 -225h122l447 583h376l-568 -704l346 -752h-335l-260 595h-175l-104 -595h-293l191 1098h-180l33 183h178l31 175h293l-31 -175h209z" />
    <glyph glyph-name="uni049F" unicode="&#x49f;" horiz-adv-x="1091" 
d="M718 1208h-204l-88 -506l55 59l321 321h362l-473 -465l301 -617h-309l-192 431l-131 -114l-55 -317h-282l209 1208h-194l33 183h193l25 145h283l-26 -145h205z" />
    <glyph glyph-name="uni04A0" unicode="&#x4a0;" horiz-adv-x="1650" 
d="M964 595h-175l-104 -595h-293l212 1222h-460l41 234h753l-102 -583h122l447 583h376l-568 -704l346 -752h-335z" />
    <glyph glyph-name="uni04A1" unicode="&#x4a1;" horiz-adv-x="1431" 
d="M806 399h-120l-69 -399h-283l147 848h-383l41 234h666l-72 -407h89l300 407l375 -1l-446 -530l275 -551h-361z" />
    <glyph glyph-name="uni04A2" unicode="&#x4a2;" horiz-adv-x="1414" 
d="M1173 0h-293l108 624h-565l-109 -624h-293l253 1456h293l-103 -590h566l102 590h293zM1324 -357h-282l97 562h283z" />
    <glyph glyph-name="uni04A3" unicode="&#x4a3;" 
d="M915 0h-284l73 416h-346l-73 -416h-282l188 1082h282l-76 -434h347l75 434h284zM1067 -357h-282l97 562h283z" />
    <glyph glyph-name="uni04A4" unicode="&#x4a4;" horiz-adv-x="1967" 
d="M1425 1454l605 2l-41 -233l-595 1l-8 8l-213 -1232h-293l108 624h-565l-109 -624h-293l253 1456h293l-103 -590h566l102 590h293v-2z" />
    <glyph glyph-name="uni04A5" unicode="&#x4a5;" horiz-adv-x="1413" 
d="M1389 849h-330l-147 -849h-284l73 416h-346l-73 -416h-282l188 1082h282l-76 -434h347l75 434h614z" />
    <glyph glyph-name="uni04A6" unicode="&#x4a6;" horiz-adv-x="2086" 
d="M1318 833h124q130 -2 230 -44.5t165 -118.5t93 -181.5t15 -234.5q-14 -131 -63 -240t-128.5 -187.5t-188.5 -123t-242 -47.5l21 222q76 2 131.5 33.5t93 81.5t59.5 114t31 132q9 67 4.5 130.5t-28.5 113t-72 80.5t-126 34h-160l-103 -597h-294l210 1213h-563l-211 -1213
h-293l253 1456h1150z" />
    <glyph glyph-name="uni04A7" unicode="&#x4a7;" horiz-adv-x="1730" 
d="M1031 672h69q110 -2 206 -32.5t165.5 -90t105.5 -148.5t26 -208q-7 -89 -45 -163.5t-96.5 -134.5t-132.5 -104.5t-153 -72.5l-102 199q46 20 87 46.5t73.5 61t54 76.5t29.5 94q9 59 -3.5 103.5t-42.5 74.5t-75 45.5t-101 17.5h-106l-75 -436h-284l148 848h-350l-147 -848
h-282l188 1082h914z" />
    <glyph glyph-name="uni04A8" unicode="&#x4a8;" horiz-adv-x="1606" 
d="M1411 -16q-98 5 -192.5 20.5t-185.5 49.5q-85 -37 -172 -56.5t-179 -17.5q-143 2 -258 55.5t-192.5 145.5t-112 215t-16.5 263l32 212q18 123 66 232t124.5 191.5t181 132t235.5 52.5l-28 -254q-65 -1 -112 -36t-78.5 -87.5t-49.5 -113.5t-27 -115l-34 -215
q-11 -77 -2 -152.5t41.5 -135.5t91.5 -98t149 -40q36 0 72 3q-68 117 -98.5 239.5t-12.5 258.5l29 194q9 64 28 130t48.5 128t70 116t92 93.5t114 62t137.5 20.5q78 -2 138 -29.5t103.5 -72.5t71.5 -104.5t42.5 -125.5t17 -135t-5.5 -133l-24 -167q-22 -142 -83.5 -262
t-164.5 -219q41 -5 81 -7.5t81 -2.5zM931 730q-14 -105 10 -202t98 -175q77 71 120.5 162.5t60.5 194.5l29 203q3 23 7 54.5t5 66t-2 68t-14.5 60.5t-33.5 44.5t-58 19.5q-37 2 -64.5 -11.5t-48 -37.5t-34 -55.5t-23 -65t-15 -66.5t-9.5 -60z" />
    <glyph glyph-name="uni04A9" unicode="&#x4a9;" horiz-adv-x="1292" 
d="M1136 -29q-84 3 -165.5 15t-160.5 41q-64 -23 -129.5 -35.5t-134.5 -10.5q-116 1 -209 44.5t-155.5 117.5t-92 173t-17.5 213l12 98q13 101 52.5 187.5t102.5 150t148 100t190 39.5l-27 -241q-41 -8 -70 -31.5t-48.5 -56.5t-31 -71t-17.5 -75l-15 -101
q-8 -57 -2.5 -109.5t27 -94t62 -68.5t102.5 -34q-28 75 -37.5 151.5t1.5 157.5l20 155q10 76 38.5 151.5t75.5 135t114 95.5t154 34q59 -2 105.5 -23t80.5 -55.5t56 -80.5t34.5 -96.5t15 -103.5t-2.5 -103l-19 -148q-15 -106 -64.5 -190t-129.5 -155q36 -3 71.5 -5t72.5 -2z
M728 516q-8 -64 5 -123t48 -113q111 89 132 228l19 151q1 12 2.5 31.5t1.5 41.5t-2.5 45t-9.5 41.5t-19.5 31t-31.5 13.5q-32 2 -54.5 -18.5t-37 -50t-22 -62t-10.5 -55.5z" />
    <glyph glyph-name="uni04AA" unicode="&#x4aa;" horiz-adv-x="1310" 
d="M1206 486q-14 -121 -69.5 -216t-139.5 -160t-191 -98.5t-225 -31.5q-98 2 -175 30.5t-134 77.5t-95.5 115t-59.5 143t-25.5 162t6.5 171l13 96q13 91 41 179.5t71.5 167t101 144.5t130 113.5t159.5 73t188 23.5q119 -2 210 -40t154.5 -105.5t98.5 -162t41 -208.5l-292 1
q0 60 -11 109t-37 84t-69.5 55t-108.5 22q-64 2 -115 -16t-90.5 -50.5t-69 -77t-50 -95.5t-34 -106.5t-20.5 -108.5l-13 -99q-6 -44 -10 -94.5t-2 -100t12 -95.5t34 -81.5t63.5 -58t100.5 -24.5q134 -5 214.5 63.5t106.5 196.5zM620 -472h-282l97 562h283z" />
    <glyph glyph-name="uni04AB" unicode="&#x4ab;" horiz-adv-x="1046" 
d="M473 212q78 -2 131 42.5t69 118.5l265 2q-6 -92 -47.5 -166t-106.5 -126t-147.5 -79t-171.5 -25q-117 3 -200 48t-134 120t-70.5 172t-8.5 204l3 29q13 113 56 214t114 177t168 119t218 40q94 -2 168 -34t124 -88.5t75.5 -133.5t24.5 -168h-263q0 37 -7.5 71t-25 60.5
t-46 42t-70.5 17.5q-67 2 -112.5 -26.5t-74.5 -75t-44.5 -104t-22.5 -111.5l-3 -28q-5 -45 -7 -99t9.5 -100.5t43 -79t93.5 -33.5zM493 -472h-282l97 562h283z" />
    <glyph glyph-name="uni04AC" unicode="&#x4ac;" horiz-adv-x="1239" 
d="M1296 1213h-432l-210 -1213h-293l210 1213h-427l43 243h1152zM776 -357h-282l97 562h283z" />
    <glyph glyph-name="uni04AD" unicode="&#x4ad;" horiz-adv-x="1022" 
d="M1023 850h-336l-148 -850h-283l148 850h-332l41 232h951zM691 -357h-282l97 562h283z" />
    <glyph glyph-name="uni04AE" unicode="&#x4ae;" horiz-adv-x="1238" 
d="M640 802l407 654h336l-636 -944l-88 -512h-298l95 545l-302 910l309 1z" />
    <glyph glyph-name="uni04AF" unicode="&#x4af;" horiz-adv-x="1024" 
d="M462 344l322 738h306l-546 -1086l-72 -413h-283l80 458l-164 1041h284z" />
    <glyph glyph-name="uni04B0" unicode="&#x4b0;" horiz-adv-x="1238" 
d="M946 514h-198l-1 -2l-88 -512h-298l89 514h-184l33 183h106l-251 758l309 1l177 -654l407 654h336l-511 -759h107z" />
    <glyph glyph-name="uni04B1" unicode="&#x4b1;" horiz-adv-x="1024" 
d="M753 11h-202l-7 -15l-72 -413h-283l75 428h-191l33 183h139l-140 888h284l73 -738l322 738h306l-447 -888h143z" />
    <glyph glyph-name="uni04B2" unicode="&#x4b2;" horiz-adv-x="1272" 
d="M679 956l343 500h352l-535 -736l302 -720h-324l-191 508l-351 -508h-356l547 748l-293 708h320zM1154 -357h-282l97 562h283z" />
    <glyph glyph-name="uni04B3" unicode="&#x4b3;" horiz-adv-x="1021" 
d="M524 761l227 321h317l-392 -544l219 -538h-286l-133 338l-239 -338h-319l408 566l-209 516h286zM901 -357h-282l97 562h283z" />
    <glyph glyph-name="uni04B4" unicode="&#x4b4;" horiz-adv-x="1788" 
d="M463 1222h-322l41 234h933l-41 -234h-318l-170 -981h564l211 1215h294l-211 -1215h194l-122 -592h-275l62 351h-1051z" />
    <glyph glyph-name="uni04B5" unicode="&#x4b5;" horiz-adv-x="1375" 
d="M299 849h-213l41 233h688l-41 -233h-193l-106 -616h349l147 849h283l-147 -851h158l-116 -552h-263l56 321h-790z" />
    <glyph glyph-name="uni04B6" unicode="&#x4b6;" horiz-adv-x="1391" 
d="M1403 1456l-253 -1456h-294l106 554q-67 -17 -136 -23.5t-138 -5.5q-112 1 -206.5 31.5t-160 90.5t-97.5 150t-18 210l75 449h293l-74 -450q-16 -121 31.5 -178.5t169.5 -60.5q72 -2 143.5 6t142.5 19l122 664h294zM1297 -357h-282l97 562h283z" />
    <glyph glyph-name="uni04B7" unicode="&#x4b7;" horiz-adv-x="1110" 
d="M889 0h-282l69 342q-35 -7 -70 -11t-70 -4q-97 0 -179 25.5t-140 77t-86.5 129t-17.5 181.5l55 342h283l-57 -343q-12 -94 24 -135t130 -44q38 -1 76 3t76 10l95 509h282zM1042 -357h-282l97 562h283z" />
    <glyph glyph-name="uni04B8" unicode="&#x4b8;" horiz-adv-x="1362" 
d="M702 296h-164l133 762h164zM1376 1456l-253 -1456h-294l106 554q-67 -17 -136 -23.5t-138 -5.5q-112 1 -206.5 31.5t-160 90.5t-97.5 150t-18 210l75 449h293l-74 -450q-16 -121 31.5 -178.5t169.5 -60.5q72 -2 143.5 6t142.5 19l122 664h294z" />
    <glyph glyph-name="uni04B9" unicode="&#x4b9;" horiz-adv-x="1123" 
d="M567 178h-164l113 651h165zM905 0h-282l69 342q-35 -7 -70 -11t-70 -4q-97 0 -179 25.5t-140 77t-86.5 129t-17.5 181.5l55 342h283l-57 -343q-12 -94 24 -135t130 -44q38 -1 76 3t76 10l95 509h282z" />
    <glyph glyph-name="uni04BA" unicode="&#x4ba;" horiz-adv-x="1399" 
d="M233 0l253 1456h294l-106 -554q67 17 136 23.5t138 5.5q112 -2 206.5 -32t160 -90t97 -150t18.5 -210l-75 -449h-293l74 450q16 121 -31.5 178.5t-169.5 60.5q-72 2 -143.5 -6t-142.5 -19l-122 -664h-294z" />
    <glyph glyph-name="uni04BB" unicode="&#x4bb;" horiz-adv-x="1122" 
d="M433 962q58 65 131 103t162 37q91 -2 151.5 -37t94.5 -93.5t44.5 -133.5t2.5 -156l-114 -682h-282l115 685q5 39 2 72t-16.5 57t-40 38.5t-69.5 15.5q-63 2 -111.5 -24.5t-88.5 -73.5l-136 -770h-282l266 1536h283z" />
    <glyph glyph-name="uni04BC" unicode="&#x4bc;" horiz-adv-x="1514" 
d="M842 -22q-137 1 -249 47.5t-187 129t-106.5 197.5t-7.5 255l9 48q-76 18 -125.5 61t-78 101t-38.5 126.5t-7 139.5l194 -1q-3 -32 -3 -62.5t7 -58.5t24 -51.5t47 -39.5q28 124 85 235.5t142 194.5t197 130.5t249 44.5q96 -2 170 -30.5t128 -77t88.5 -114t52.5 -141
t20 -158.5t-9 -166l-25 -160l-830 2l-6 -25q-16 -78 -6.5 -144t44 -114t93 -76t140.5 -30q94 -2 185.5 14.5t180.5 47.5l27 -251q-41 -26 -92 -41t-105 -22.5t-108 -9t-100 -1.5zM977 1212q-77 3 -136.5 -25.5t-104 -77t-74.5 -111.5t-48 -129h545l7 34q11 57 7.5 111.5
t-25 97.5t-63.5 70.5t-108 29.5z" />
    <glyph glyph-name="uni04BD" unicode="&#x4bd;" horiz-adv-x="1197" 
d="M649 -20q-108 2 -194 40.5t-144.5 105t-88 155.5t-24.5 193q-60 20 -103 57t-70.5 87.5t-39.5 112.5t-10 132l176 -1q-6 -72 11.5 -121t65.5 -74q26 92 74.5 172.5t117.5 140t156.5 92.5t191.5 30q114 -2 194 -46.5t128 -118t65 -169t5 -198.5l-19 -123h-662
q-3 -48 8 -90t35.5 -73.5t62.5 -50t89 -19.5q81 -3 149 29.5t123 89.5l128 -161q-34 -51 -82.5 -88t-105 -60.5t-117.5 -34t-120 -9.5zM753 870q-52 1 -91.5 -18t-70 -51.5t-52.5 -74t-39 -83.5h389l6 27q7 40 2.5 76t-22 63t-48 43t-74.5 18z" />
    <glyph glyph-name="uni04BE" unicode="&#x4be;" horiz-adv-x="1514" 
d="M842 -22q-137 1 -249 47.5t-187 129t-106.5 197.5t-7.5 255l9 48q-76 18 -125.5 61t-78 101t-38.5 126.5t-7 139.5l194 -1q-3 -32 -3 -62.5t7 -58.5t24 -51.5t47 -39.5q28 124 85 235.5t142 194.5t197 130.5t249 44.5q96 -2 170 -30.5t128 -77t88.5 -114t52.5 -141
t20 -158.5t-9 -166l-25 -160l-830 2l-6 -25q-16 -78 -6.5 -144t44 -114t93 -76t140.5 -30q94 -2 185.5 14.5t180.5 47.5l27 -251q-41 -26 -92 -41t-105 -22.5t-108 -9t-100 -1.5zM977 1212q-77 3 -136.5 -25.5t-104 -77t-74.5 -111.5t-48 -129h545l7 34q11 57 7.5 111.5
t-25 97.5t-63.5 70.5t-108 29.5zM870 -470h-282l97 562h283z" />
    <glyph glyph-name="uni04BF" unicode="&#x4bf;" horiz-adv-x="1197" 
d="M649 -20q-108 2 -194 40.5t-144.5 105t-88 155.5t-24.5 193q-60 20 -103 57t-70.5 87.5t-39.5 112.5t-10 132l176 -1q-6 -72 11.5 -121t65.5 -74q26 92 74.5 172.5t117.5 140t156.5 92.5t191.5 30q114 -2 194 -46.5t128 -118t65 -169t5 -198.5l-19 -123h-662
q-3 -48 8 -90t35.5 -73.5t62.5 -50t89 -19.5q81 -3 149 29.5t123 89.5l128 -161q-34 -51 -82.5 -88t-105 -60.5t-117.5 -34t-120 -9.5zM753 870q-52 1 -91.5 -18t-70 -51.5t-52.5 -74t-39 -83.5h389l6 27q7 40 2.5 76t-22 63t-48 43t-74.5 18zM654 -461h-282l97 562h283z
" />
    <glyph glyph-name="uni04C0" unicode="&#x4c0;" horiz-adv-x="589" 
d="M333 0h-293l252 1456h293z" />
    <glyph glyph-name="uni04C1" unicode="&#x4c1;" horiz-adv-x="1992" 
d="M1324 593h-174l-103 -593h-293l103 593h-162l-410 -593h-382l588 797l-299 658l349 1l212 -587h151l102 587h293l-102 -587h131l409 587h381l-541 -690l296 -766h-352zM1533 1841q-3 -73 -32 -129.5t-76.5 -94.5t-110.5 -57.5t-133 -17.5q-68 1 -125.5 22t-99.5 59
t-65.5 93t-24.5 125l198 -2q-2 -59 24.5 -95t90.5 -37q65 -2 104 34.5t50 97.5z" />
    <glyph glyph-name="uni04C2" unicode="&#x4c2;" horiz-adv-x="1707" 
d="M1091 401h-134l-69 -401h-283l70 401h-114l-279 -401h-358l441 582l-235 499l335 1l148 -404h110l70 404h282l-70 -404h94l289 404h368l-426 -525l233 -557h-333zM1355 1523q-3 -73 -32 -129.5t-76.5 -94.5t-110.5 -57.5t-133 -17.5q-68 1 -125.5 22t-99.5 59t-65.5 93
t-24.5 125l198 -2q-2 -59 24.5 -95t90.5 -37q65 -2 104 34.5t50 97.5z" />
    <glyph glyph-name="uni04C3" unicode="&#x4c3;" horiz-adv-x="1300" 
d="M834 819q106 -18 179.5 -72.5t117 -131.5t59 -171t5.5 -193q-14 -132 -64 -242t-131.5 -189t-191.5 -123.5t-244 -47.5l22 231q75 3 129.5 33.5t92 80t59.5 112t31 129.5q9 64 5 126.5t-27 112t-69 81t-122 34.5l-268 1l-103 -590h-295l253 1456h295l-102 -585h84
l450 585h382z" />
    <glyph glyph-name="uni04C4" unicode="&#x4c4;" horiz-adv-x="1144" 
d="M755 595q69 -27 119 -71t81 -100t43.5 -122.5t7.5 -138.5q-7 -88 -45 -161.5t-96 -133t-131.5 -103t-150.5 -71.5l-105 200q45 19 85.5 45t73 59.5t54.5 75t30 92.5q9 59 -4.5 102t-43.5 71.5t-75.5 42.5t-100.5 16l-124 1l-69 -399h-283l188 1082h283l-72 -407h73
l316 407h376z" />
    <glyph glyph-name="uni04C5" unicode="&#x4c5;" horiz-adv-x="1413" 
d="M1424 1456l-252 -1456h-294l210 1213h-371l-88 -413q-17 -86 -38 -179.5t-51.5 -183t-73.5 -170t-104.5 -140.5t-144 -94.5t-191.5 -32.5h-92l34 241l34 -1q68 2 117 30.5t82.5 74t55.5 103.5t36 119.5t23.5 122t18.5 110.5l139 656h950zM1389 7q-20 -124 -86 -230.5
t-164 -184.5l-149 81q24 39 48 76.5t45 75.5t37 79t25 87l37 212h238z" />
    <glyph glyph-name="uni04C6" unicode="&#x4c6;" horiz-adv-x="1139" 
d="M1105 1082l-187 -1082h-283l148 848h-242l-48 -227q-15 -76 -33 -152.5t-44 -146t-63 -129t-89.5 -103t-122.5 -68t-162 -22.5h-54l22 237l26 -1q50 0 85.5 18t59.5 48t39 69.5t25 82.5t16 86t13 81l95 461h799zM1140 7q-20 -124 -86 -230.5t-164 -184.5l-149 81
q24 39 48 76.5t45 75.5t37 79t25 87l37 212h238z" />
    <glyph glyph-name="uni04C7" unicode="&#x4c7;" horiz-adv-x="1415" 
d="M569 1456l-108 -619h564l107 619h294l-252 -1483q-12 -91 -45 -167.5t-87.5 -131t-130 -85t-171.5 -29.5q-39 1 -77 6t-76 13l38 239q23 -7 47.5 -11.5t49.5 -3.5q37 0 63.5 14.5t45 38.5t29.5 54.5t17 62.5l106 622h-563l-104 -595h-293l253 1456h293z" />
    <glyph glyph-name="uni04C8" unicode="&#x4c8;" horiz-adv-x="1131" 
d="M470 1082l-75 -434h346l75 434h284l-190 -1116q-11 -89 -43 -163.5t-84.5 -128.5t-125.5 -84.5t-167 -30.5q-38 1 -75.5 5.5t-74.5 12.5l33 232q24 -7 47.5 -11t48.5 -4q37 0 63.5 15t45.5 39t30 55t17 63l76 450h-346l-73 -416h-282l188 1082h282z" />
    <glyph glyph-name="uni04C9" unicode="&#x4c9;" horiz-adv-x="1414" 
d="M1173 0h-293l108 624h-565l-109 -624h-293l253 1456h293l-103 -590h566l102 590h293zM1394 7q-20 -124 -86 -230.5t-164 -184.5l-149 81q24 39 48 76.5t45 75.5t37 79t25 87l37 212h238z" />
    <glyph glyph-name="uni04CA" unicode="&#x4ca;" 
d="M915 0h-284l73 416h-346l-73 -416h-282l188 1082h282l-76 -434h347l75 434h284zM1137 7q-20 -124 -86 -230.5t-164 -184.5l-149 81q24 39 48 76.5t45 75.5t37 79t25 87l37 212h238z" />
    <glyph glyph-name="uni04CB" unicode="&#x4cb;" horiz-adv-x="1391" 
d="M1403 1456l-253 -1456h-294l106 554q-67 -17 -136 -23.5t-138 -5.5q-112 1 -206.5 31.5t-160 90.5t-97.5 150t-18 210l75 449h293l-74 -450q-16 -121 31.5 -178.5t169.5 -60.5q72 -2 143.5 6t142.5 19l122 664h294zM860 -357h-282l97 562h283z" />
    <glyph glyph-name="uni04CC" unicode="&#x4cc;" horiz-adv-x="1110" 
d="M889 0h-282l69 342q-35 -7 -70 -11t-70 -4q-97 0 -179 25.5t-140 77t-86.5 129t-17.5 181.5l55 342h283l-57 -343q-12 -94 24 -135t130 -44q38 -1 76 3t76 10l95 509h282zM605 -357h-282l97 562h283z" />
    <glyph glyph-name="uni04CD" unicode="&#x4cd;" horiz-adv-x="1750" 
d="M650 1456l179 -1053l543 1053h390l-253 -1456h-294l72 415l142 648l-558 -1063h-201l-195 1100l-94 -717l-67 -383h-293l253 1456h376zM1725 7q-20 -124 -86 -230.5t-164 -184.5l-149 81q24 39 48 76.5t45 75.5t37 79t25 87l37 212h238z" />
    <glyph glyph-name="uni04CE" unicode="&#x4ce;" horiz-adv-x="1518" 
d="M696 344l402 738h360l-188 -1082h-283l112 641l-354 -641h-190l-135 665l-116 -665h-283l188 1082h344zM1492 7q-20 -124 -86 -230.5t-164 -184.5l-149 81q24 39 48 76.5t45 75.5t37 79t25 87l37 212h238z" />
    <glyph glyph-name="uni04CF" unicode="&#x4cf;" horiz-adv-x="589" 
d="M333 0h-293l252 1456h293z" />
    <glyph glyph-name="uni04D0" unicode="&#x4d0;" horiz-adv-x="1347" 
d="M877 300h-508l-150 -300h-323l778 1456h271l277 -1456h-299zM489 543h351l-82 542zM1210 1838q-3 -73 -32 -129.5t-76.5 -94.5t-110.5 -57.5t-133 -17.5q-68 1 -125.5 22t-99.5 59t-65.5 93t-24.5 125l198 -2q-2 -59 24.5 -95t90.5 -37q65 -2 104 34.5t50 97.5z" />
    <glyph glyph-name="uni04D1" unicode="&#x4d1;" horiz-adv-x="1075" 
d="M626 0q-8 25 -10 48.5t-1 49.5q-57 -57 -125.5 -88.5t-150.5 -29.5q-68 1 -127.5 24t-104 64.5t-69.5 99.5t-22 128q3 71 26.5 125.5t62 95.5t89.5 68.5t108.5 44.5t119.5 24.5t122 7.5l132 -2l14 65q6 33 3 62.5t-16.5 51.5t-38 35.5t-61.5 14.5q-66 2 -112 -32.5
t-59 -99.5l-283 -1q4 90 49 156t113.5 109t151.5 62.5t163 18.5q85 -2 157.5 -28t123.5 -74.5t77 -118.5t17 -160l-74 -459q-5 -30 -9 -61t-5 -62t2.5 -61.5t14.5 -58.5l-1 -19h-277zM409 199q64 -2 118.5 28t94.5 78l35 187l-98 1q-43 -1 -86 -10.5t-78.5 -30.5t-60.5 -54
t-31 -81q-8 -54 22.5 -85.5t83.5 -32.5zM1020 1528q-3 -73 -32 -129.5t-76.5 -94.5t-110.5 -57.5t-133 -17.5q-68 1 -125.5 22t-99.5 59t-65.5 93t-24.5 125l198 -2q-2 -59 24.5 -95t90.5 -37q65 -2 104 34.5t50 97.5z" />
    <glyph glyph-name="uni04D2" unicode="&#x4d2;" horiz-adv-x="1347" 
d="M877 300h-508l-150 -300h-323l778 1456h271l277 -1456h-299zM489 543h351l-82 542zM484 1672q-1 28 9 51.5t28 41t42.5 27.5t51.5 11t52 -8t44 -25.5t30.5 -40t11.5 -51.5q1 -28 -9.5 -51.5t-28.5 -40.5t-42 -27t-51 -11t-51.5 8t-43.5 25.5t-30.5 39.5t-12.5 51z
M957 1672q-1 28 9 51.5t28 41t42 27.5t51 11t52 -8t44.5 -25.5t31 -40t12.5 -51.5q0 -28 -10.5 -51.5t-28.5 -41t-42 -27.5t-51 -11t-52 8t-44 25.5t-30.5 40t-11.5 51.5z" />
    <glyph glyph-name="uni04D3" unicode="&#x4d3;" horiz-adv-x="1075" 
d="M626 0q-8 25 -10 48.5t-1 49.5q-57 -57 -125.5 -88.5t-150.5 -29.5q-68 1 -127.5 24t-104 64.5t-69.5 99.5t-22 128q3 71 26.5 125.5t62 95.5t89.5 68.5t108.5 44.5t119.5 24.5t122 7.5l132 -2l14 65q6 33 3 62.5t-16.5 51.5t-38 35.5t-61.5 14.5q-66 2 -112 -32.5
t-59 -99.5l-283 -1q4 90 49 156t113.5 109t151.5 62.5t163 18.5q85 -2 157.5 -28t123.5 -74.5t77 -118.5t17 -160l-74 -459q-5 -30 -9 -61t-5 -62t2.5 -61.5t14.5 -58.5l-1 -19h-277zM409 199q64 -2 118.5 28t94.5 78l35 187l-98 1q-43 -1 -86 -10.5t-78.5 -30.5t-60.5 -54
t-31 -81q-8 -54 22.5 -85.5t83.5 -32.5zM294 1362q-1 28 9 51.5t28 41t42.5 27.5t51.5 11t52 -8t44 -25.5t30.5 -40t11.5 -51.5q1 -28 -9.5 -51.5t-28.5 -40.5t-42 -27t-51 -11t-51.5 8t-43.5 25.5t-30.5 39.5t-12.5 51zM767 1362q-1 28 9 51.5t28 41t42 27.5t51 11t52 -8
t44.5 -25.5t31 -40t12.5 -51.5q0 -28 -10.5 -51.5t-28.5 -41t-42 -27.5t-51 -11t-52 8t-44 25.5t-30.5 40t-11.5 51.5z" />
    <glyph glyph-name="uni04D4" unicode="&#x4d4;" horiz-adv-x="1877" 
d="M1706 0h-871l44 333h-423l-220 -333h-347l1015 1456h996l-42 -236h-580l-47 -355h488l-42 -236h-477l-53 -394h600zM615 582l298 -2l73 552z" />
    <glyph glyph-name="uni04D5" unicode="&#x4d5;" horiz-adv-x="1687" 
d="M1122 -20q-49 1 -98.5 9t-95.5 25t-86.5 44.5t-71.5 67.5q-85 -75 -187 -111.5t-217 -34.5q-76 1 -142 23t-114 63t-74 102.5t-22 142.5q3 68 27 120t63.5 89.5t90.5 62.5t108 40t116.5 21t116.5 6l167 -2l13 60q5 33 1.5 61.5t-17 50.5t-37.5 35t-60 14q-32 1 -62.5 -6
t-56.5 -22t-44.5 -39t-25.5 -57l-281 18q3 62 25 111.5t58.5 87.5t83.5 65t100 44.5t109 25t110 6.5q41 -1 82.5 -6.5t81 -18.5t74.5 -33.5t64 -51.5q74 55 156 82.5t175 25.5q105 -2 180.5 -42.5t122.5 -107t65 -154.5t7 -185l-25 -162h-642q-5 -52 5 -94.5t34.5 -73.5
t64.5 -49t94 -19q81 -2 154 20t145 56l61 -193q-38 -33 -86.5 -56t-101 -36.5t-106 -19t-102.5 -5.5zM425 191q29 0 57.5 6.5t55.5 17.5t53 25.5t50 30.5l38 190l-139 1q-37 -1 -76.5 -9.5t-74 -27t-59.5 -47.5t-32 -71q-6 -32 3 -53.5t27 -35.5t43.5 -20.5t53.5 -6.5z
M1236 869q-53 2 -93.5 -16.5t-71 -50.5t-53 -73.5t-38.5 -85.5h369l7 31q6 36 4 70.5t-15.5 61.5t-40 44t-68.5 19z" />
    <glyph glyph-name="uni04D6" unicode="&#x4d6;" horiz-adv-x="1127" 
d="M982 631h-558l-68 -390h656l-42 -241h-949l253 1456h947l-43 -243h-653l-61 -347h560zM1155 1841q-3 -73 -32 -129.5t-76.5 -94.5t-110.5 -57.5t-133 -17.5q-68 1 -125.5 22t-99.5 59t-65.5 93t-24.5 125l198 -2q-2 -59 24.5 -95t90.5 -37q65 -2 104 34.5t50 97.5z" />
    <glyph glyph-name="uni04D7" unicode="&#x4d7;" horiz-adv-x="1084" 
d="M505 -20q-112 2 -199.5 43t-146.5 111t-86 164.5t-17 202.5l4 40q12 113 56 216t116.5 180.5t171.5 122.5t220 42q114 -2 194 -46.5t128 -118t65 -169t5 -198.5l-19 -123h-662q-3 -48 8 -90t35.5 -73.5t62.5 -50t89 -19.5q81 -3 149 29.5t123 89.5l128 -161
q-34 -51 -82.5 -88t-105 -60.5t-117.5 -34t-120 -9.5zM609 870q-52 1 -91.5 -18t-70 -51.5t-52.5 -74t-39 -83.5h389l6 27q7 40 2.5 76t-22 63t-48 43t-74.5 18zM1013 1528q-3 -73 -32 -129.5t-76.5 -94.5t-110.5 -57.5t-133 -17.5q-68 1 -125.5 22t-99.5 59t-65.5 93
t-24.5 125l198 -2q-2 -59 24.5 -95t90.5 -37q65 -2 104 34.5t50 97.5z" />
    <glyph glyph-name="uni04D8" unicode="&#x4d8;" horiz-adv-x="1390" 
d="M735 1475q150 -2 267.5 -52t194.5 -139t109.5 -213t13.5 -272l-21 -148q-13 -89 -44 -174t-77 -160.5t-107 -138t-135 -107t-160 -69t-182 -22.5q-149 3 -254 58.5t-168 149t-84 216.5t-3 260l26 162l915 -1q14 84 1.5 154t-50.5 121t-102 80t-152 31q-100 2 -197 -15
t-193 -47l-25 250q43 27 97 42t111 23t113.5 9.5t105.5 1.5zM610 240q78 -2 139.5 26.5t108.5 77t81 111.5t58 129l-627 -1l-7 -34q-13 -69 -2.5 -125t42 -96.5t84 -63t123.5 -24.5z" />
    <glyph glyph-name="uni04D9" unicode="&#x4d9;" horiz-adv-x="1061" 
d="M564 1102q112 -2 195.5 -45t137.5 -115t77 -166.5t14 -199.5l-4 -40q-12 -109 -54.5 -210.5t-112.5 -179t-165.5 -123t-213.5 -42.5q-106 3 -183 42t-125.5 105t-67 153.5t-7.5 187.5l25 163h629q3 47 -6 89t-31 73.5t-58 51t-87 21.5q-83 4 -157 -18t-147 -58l-65 190
q40 34 89 57.5t102.5 38t108.5 20.5t106 5zM453 212q49 -2 86 18.5t65 53t48.5 73t35.5 79.5h-355l-7 -30q-7 -38 -4 -72.5t18 -61t42.5 -43t70.5 -17.5z" />
    <glyph glyph-name="uni04DA" unicode="&#x4da;" horiz-adv-x="1390" 
d="M735 1475q150 -2 267.5 -52t194.5 -139t109.5 -213t13.5 -272l-21 -148q-13 -89 -44 -174t-77 -160.5t-107 -138t-135 -107t-160 -69t-182 -22.5q-149 3 -254 58.5t-168 149t-84 216.5t-3 260l26 162l915 -1q14 84 1.5 154t-50.5 121t-102 80t-152 31q-100 2 -197 -15
t-193 -47l-25 250q43 27 97 42t111 23t113.5 9.5t105.5 1.5zM610 240q78 -2 139.5 26.5t108.5 77t81 111.5t58 129l-627 -1l-7 -34q-13 -69 -2.5 -125t42 -96.5t84 -63t123.5 -24.5zM441 1628q-1 28 9 51.5t28 41t42.5 27.5t51.5 11t52 -8t44 -25.5t30.5 -40t11.5 -51.5
q1 -28 -9.5 -51.5t-28.5 -40.5t-42 -27t-51 -11t-51.5 8t-43.5 25.5t-30.5 39.5t-12.5 51zM914 1628q-1 28 9 51.5t28 41t42 27.5t51 11t52 -8t44.5 -25.5t31 -40t12.5 -51.5q0 -28 -10.5 -51.5t-28.5 -41t-42 -27.5t-51 -11t-52 8t-44 25.5t-30.5 40t-11.5 51.5z" />
    <glyph glyph-name="uni04DB" unicode="&#x4db;" horiz-adv-x="1061" 
d="M564 1102q112 -2 195.5 -45t137.5 -115t77 -166.5t14 -199.5l-4 -40q-12 -109 -54.5 -210.5t-112.5 -179t-165.5 -123t-213.5 -42.5q-106 3 -183 42t-125.5 105t-67 153.5t-7.5 187.5l25 163h629q3 47 -6 89t-31 73.5t-58 51t-87 21.5q-83 4 -157 -18t-147 -58l-65 190
q40 34 89 57.5t102.5 38t108.5 20.5t106 5zM453 212q49 -2 86 18.5t65 53t48.5 73t35.5 79.5h-355l-7 -30q-7 -38 -4 -72.5t18 -61t42.5 -43t70.5 -17.5zM289 1363q-1 28 9 51.5t28 41t42.5 27.5t51.5 11t52 -8t44 -25.5t30.5 -40t11.5 -51.5q1 -28 -9.5 -51.5t-28.5 -40.5
t-42 -27t-51 -11t-51.5 8t-43.5 25.5t-30.5 39.5t-12.5 51zM762 1363q-1 28 9 51.5t28 41t42 27.5t51 11t52 -8t44.5 -25.5t31 -40t12.5 -51.5q0 -28 -10.5 -51.5t-28.5 -41t-42 -27.5t-51 -11t-52 8t-44 25.5t-30.5 40t-11.5 51.5z" />
    <glyph glyph-name="uni04DC" unicode="&#x4dc;" horiz-adv-x="1992" 
d="M1324 593h-174l-103 -593h-293l103 593h-162l-410 -593h-382l588 797l-299 658l349 1l212 -587h151l102 587h293l-102 -587h131l409 587h381l-541 -690l296 -766h-352zM807 1675q-1 28 9 51.5t28 41t42.5 27.5t51.5 11t52 -8t44 -25.5t30.5 -40t11.5 -51.5
q1 -28 -9.5 -51.5t-28.5 -40.5t-42 -27t-51 -11t-51.5 8t-43.5 25.5t-30.5 39.5t-12.5 51zM1280 1675q-1 28 9 51.5t28 41t42 27.5t51 11t52 -8t44.5 -25.5t31 -40t12.5 -51.5q0 -28 -10.5 -51.5t-28.5 -41t-42 -27.5t-51 -11t-52 8t-44 25.5t-30.5 40t-11.5 51.5z" />
    <glyph glyph-name="uni04DD" unicode="&#x4dd;" horiz-adv-x="1707" 
d="M1091 401h-134l-69 -401h-283l70 401h-114l-279 -401h-358l441 582l-235 499l335 1l148 -404h110l70 404h282l-70 -404h94l289 404h368l-426 -525l233 -557h-333zM629 1357q-1 28 9 51.5t28 41t42.5 27.5t51.5 11t52 -8t44 -25.5t30.5 -40t11.5 -51.5q1 -28 -9.5 -51.5
t-28.5 -40.5t-42 -27t-51 -11t-51.5 8t-43.5 25.5t-30.5 39.5t-12.5 51zM1102 1357q-1 28 9 51.5t28 41t42 27.5t51 11t52 -8t44.5 -25.5t31 -40t12.5 -51.5q0 -28 -10.5 -51.5t-28.5 -41t-42 -27.5t-51 -11t-52 8t-44 25.5t-30.5 40t-11.5 51.5z" />
    <glyph glyph-name="uni04DE" unicode="&#x4de;" horiz-adv-x="1235" 
d="M639 858q50 1 94 13.5t78.5 38t57.5 63.5t30 91q6 45 -8 77t-41 52.5t-63.5 30.5t-76.5 11q-42 1 -82.5 -9.5t-74 -32t-56.5 -54.5t-31 -77l-294 -1q6 105 57 183.5t129 130.5t174 77t191 24q63 -1 124 -12t115 -32.5t99 -54t76.5 -77.5t47.5 -102.5t11 -128.5
q-4 -62 -27.5 -112t-61 -90t-85.5 -71t-100 -55q97 -47 142.5 -132.5t38.5 -192.5q-5 -77 -31.5 -139.5t-70 -111.5t-100.5 -84t-121.5 -57.5t-134.5 -33t-138 -9.5q-98 1 -186 28.5t-154 80t-104 131.5t-37 184h292q-1 -45 14 -79t42.5 -57t64.5 -34.5t80 -12.5
q48 -1 96.5 10t89.5 35.5t70 62.5t37 90q16 103 -34 152t-148 52l-192 1l41 235zM414 1680q-1 28 9 51.5t28 41t42.5 27.5t51.5 11t52 -8t44 -25.5t30.5 -40t11.5 -51.5q1 -28 -9.5 -51.5t-28.5 -40.5t-42 -27t-51 -11t-51.5 8t-43.5 25.5t-30.5 39.5t-12.5 51zM887 1680
q-1 28 9 51.5t28 41t42 27.5t51 11t52 -8t44.5 -25.5t31 -40t12.5 -51.5q0 -28 -10.5 -51.5t-28.5 -41t-42 -27.5t-51 -11t-52 8t-44 25.5t-30.5 40t-11.5 51.5z" />
    <glyph glyph-name="uni04DF" unicode="&#x4df;" horiz-adv-x="1030" 
d="M510 646q31 1 60 8t52 22t39.5 38.5t22.5 56.5q5 28 -1.5 49t-21 35.5t-36.5 21.5t-49 8q-61 2 -109 -26t-63 -88l-285 -2q5 87 46.5 150.5t105 104.5t141.5 60t157 18q72 -1 145 -17.5t131.5 -52.5t94 -94.5t31.5 -143.5q-2 -46 -19 -83t-45 -66.5t-63.5 -52.5
t-73.5 -42q72 -33 106 -95.5t31 -140.5q-2 -62 -24.5 -111.5t-59 -87t-84.5 -63.5t-101.5 -42.5t-109.5 -23.5t-109 -6q-79 1 -151.5 22.5t-129 63.5t-90 106t-34.5 150l278 -1q0 -33 12 -56t32.5 -38t48 -22t58.5 -7q32 0 63.5 8.5t57.5 25.5t44 42.5t24 59.5t-1 57
t-23.5 37.5t-41 21.5t-55.5 8l-171 1l33 188zM275 1362q-1 28 9 51.5t28 41t42.5 27.5t51.5 11t52 -8t44 -25.5t30.5 -40t11.5 -51.5q1 -28 -9.5 -51.5t-28.5 -40.5t-42 -27t-51 -11t-51.5 8t-43.5 25.5t-30.5 39.5t-12.5 51zM748 1362q-1 28 9 51.5t28 41t42 27.5t51 11
t52 -8t44.5 -25.5t31 -40t12.5 -51.5q0 -28 -10.5 -51.5t-28.5 -41t-42 -27.5t-51 -11t-52 8t-44 25.5t-30.5 40t-11.5 51.5z" />
    <glyph glyph-name="uni04E0" unicode="&#x4e0;" horiz-adv-x="1158" 
d="M830 1211l-586 2l43 243h926l-36 -213l-415 -380q82 -18 141 -60.5t96 -102t52 -132.5t9 -153q-8 -112 -60.5 -195t-132.5 -137.5t-179.5 -80.5t-202.5 -24q-97 2 -179.5 31.5t-142.5 84t-93 133t-31 178.5h290q-2 -81 42.5 -131t128.5 -53q46 -1 91.5 11.5t82.5 38
t62.5 63t33.5 86.5q18 120 -33 188.5t-173 72.5l-149 1l35 201z" />
    <glyph glyph-name="uni04E1" unicode="&#x4e1;" horiz-adv-x="1160" 
d="M765 846l-590 2l41 234h924l-34 -204l-418 -391q82 -17 141.5 -58.5t97 -101t53 -132.5t9.5 -153q-9 -112 -60.5 -195t-130.5 -137.5t-177.5 -80.5t-201.5 -24q-96 2 -178 31t-141.5 83.5t-92.5 132.5t-31 178h280q-2 -85 44 -136t133 -54q48 -2 94.5 11t84.5 39t64 65
t34 89q18 122 -34 191t-176 73l-151 1l35 197z" />
    <glyph glyph-name="uni04E2" unicode="&#x4e2;" horiz-adv-x="1401" 
d="M1111 1456h304l-253 -1456h-294l165 948l-719 -948h-303l253 1456h293l-165 -949zM1223 1601h-710l27 167h710z" />
    <glyph glyph-name="uni04E3" unicode="&#x4e3;" 
d="M814 1082h291l-187 -1082h-283l113 648l-453 -648h-292l188 1082h283l-113 -647zM1044 1283h-710l27 167h710z" />
    <glyph glyph-name="uni04E4" unicode="&#x4e4;" horiz-adv-x="1401" 
d="M1111 1456h304l-253 -1456h-294l165 948l-719 -948h-303l253 1456h293l-165 -949zM506 1675q-1 28 9 51.5t28 41t42.5 27.5t51.5 11t52 -8t44 -25.5t30.5 -40t11.5 -51.5q1 -28 -9.5 -51.5t-28.5 -40.5t-42 -27t-51 -11t-51.5 8t-43.5 25.5t-30.5 39.5t-12.5 51z
M979 1675q-1 28 9 51.5t28 41t42 27.5t51 11t52 -8t44.5 -25.5t31 -40t12.5 -51.5q0 -28 -10.5 -51.5t-28.5 -41t-42 -27.5t-51 -11t-52 8t-44 25.5t-30.5 40t-11.5 51.5z" />
    <glyph glyph-name="uni04E5" unicode="&#x4e5;" 
d="M814 1082h291l-187 -1082h-283l113 648l-453 -648h-292l188 1082h283l-113 -647zM327 1357q-1 28 9 51.5t28 41t42.5 27.5t51.5 11t52 -8t44 -25.5t30.5 -40t11.5 -51.5q1 -28 -9.5 -51.5t-28.5 -40.5t-42 -27t-51 -11t-51.5 8t-43.5 25.5t-30.5 39.5t-12.5 51zM800 1357
q-1 28 9 51.5t28 41t42 27.5t51 11t52 -8t44.5 -25.5t31 -40t12.5 -51.5q0 -28 -10.5 -51.5t-28.5 -41t-42 -27.5t-51 -11t-52 8t-44 25.5t-30.5 40t-11.5 51.5z" />
    <glyph glyph-name="uni04E6" unicode="&#x4e6;" horiz-adv-x="1382" 
d="M1305 696q-13 -93 -41.5 -183t-72.5 -170t-103.5 -147.5t-133.5 -116t-162.5 -75t-190.5 -24.5q-99 2 -177.5 31.5t-137.5 79.5t-99.5 118t-63 147t-28 165t5.5 174l8 64q13 93 42 183t73.5 170t104 148t134 116.5t163 75t190.5 24.5q100 -2 178 -31.5t137 -80
t98.5 -118.5t61.5 -147t27 -166t-5 -174zM1016 768q5 44 8 95t-0.5 101.5t-16 97t-38.5 83t-66.5 59.5t-100.5 25q-64 2 -116.5 -16.5t-94 -53t-73 -81.5t-54 -100t-37 -109.5t-21.5 -110.5l-8 -65q-6 -45 -8.5 -96t1 -102.5t16.5 -99t38.5 -84.5t66.5 -60.5t102 -25.5
q65 -3 117 16.5t93.5 54.5t72.5 83t53 101.5t36 110t21 110.5zM498 1672q-1 28 9 51.5t28 41t42.5 27.5t51.5 11t52 -8t44 -25.5t30.5 -40t11.5 -51.5q1 -28 -9.5 -51.5t-28.5 -40.5t-42 -27t-51 -11t-51.5 8t-43.5 25.5t-30.5 39.5t-12.5 51zM971 1672q-1 28 9 51.5t28 41
t42 27.5t51 11t52 -8t44.5 -25.5t31 -40t12.5 -51.5q0 -28 -10.5 -51.5t-28.5 -41t-42 -27.5t-51 -11t-52 8t-44 25.5t-30.5 40t-11.5 51.5z" />
    <glyph glyph-name="uni04E7" unicode="&#x4e7;" horiz-adv-x="1133" 
d="M55 544q13 115 58 217.5t117.5 179t172 120.5t222.5 41q117 -2 202 -47.5t138 -121t74.5 -173.5t10.5 -206l-2 -22q-14 -115 -59.5 -216.5t-118.5 -177t-172.5 -118.5t-220.5 -40q-116 2 -201 47t-138 119t-74.5 171.5t-10.5 205.5zM335 523q-5 -48 -4.5 -101.5
t15.5 -99.5t49.5 -77.5t96.5 -33.5q67 -2 115 27t81 75.5t51.5 104.5t25.5 114l3 21q3 31 4 66.5t-2.5 70t-13.5 66.5t-28.5 56.5t-47.5 39.5t-71 17q-67 2 -115 -27.5t-80.5 -77t-51 -106.5t-25.5 -114zM318 1362q-1 28 9 51.5t28 41t42.5 27.5t51.5 11t52 -8t44 -25.5
t30.5 -40t11.5 -51.5q1 -28 -9.5 -51.5t-28.5 -40.5t-42 -27t-51 -11t-51.5 8t-43.5 25.5t-30.5 39.5t-12.5 51zM791 1362q-1 28 9 51.5t28 41t42 27.5t51 11t52 -8t44.5 -25.5t31 -40t12.5 -51.5q0 -28 -10.5 -51.5t-28.5 -41t-42 -27.5t-51 -11t-52 8t-44 25.5t-30.5 40
t-11.5 51.5z" />
    <glyph glyph-name="uni04E8" unicode="&#x4e8;" horiz-adv-x="1377" 
d="M1309 696q-13 -93 -41.5 -183t-72.5 -170t-103.5 -147.5t-133.5 -116t-162.5 -75t-190.5 -24.5q-99 2 -177.5 31.5t-137.5 79.5t-99.5 118t-63 147t-28 165t5.5 174l8 64q13 93 42 183t73.5 170t104 148t134 116.5t163 75t190.5 24.5q99 -2 177.5 -31.5t137.5 -80
t98.5 -118.5t61.5 -147t27 -166t-5 -174zM618 225q88 -3 153.5 33t111.5 96t74.5 135.5t43.5 150.5h-605q-4 -44 -4 -91.5t6.5 -92.5t21 -86.5t40.5 -72.5t64.5 -50.5t93.5 -21.5zM806 1229q-87 3 -152.5 -31.5t-112 -93t-75.5 -132.5t-45 -149h605q3 43 3.5 89.5t-6 91
t-21 84.5t-40 70.5t-64 49.5t-92.5 21z" />
    <glyph glyph-name="uni04E9" unicode="&#x4e9;" horiz-adv-x="1131" 
d="M54 544q13 115 58 217.5t117.5 179t172 120.5t222.5 41q117 -2 202 -47.5t138 -121t74.5 -173.5t10.5 -206l-2 -22q-14 -115 -59.5 -216.5t-118.5 -177t-172.5 -118.5t-220.5 -40q-116 2 -201 47t-138 119t-74.5 171.5t-10.5 205.5zM608 869q-54 2 -96 -18t-73 -53.5
t-52 -78t-34 -90.5h418q0 42 -6.5 84.5t-24.5 76t-49.5 55.5t-82.5 24zM491 211q54 -2 96 17.5t73.5 52.5t52.5 76t34 90h-418q-1 -42 5.5 -83.5t24.5 -75t49.5 -54.5t82.5 -23z" />
    <glyph glyph-name="uni04EA" unicode="&#x4ea;" horiz-adv-x="1377" 
d="M1309 696q-13 -93 -41.5 -183t-72.5 -170t-103.5 -147.5t-133.5 -116t-162.5 -75t-190.5 -24.5q-99 2 -177.5 31.5t-137.5 79.5t-99.5 118t-63 147t-28 165t5.5 174l8 64q13 93 42 183t73.5 170t104 148t134 116.5t163 75t190.5 24.5q99 -2 177.5 -31.5t137.5 -80
t98.5 -118.5t61.5 -147t27 -166t-5 -174zM618 225q88 -3 153.5 33t111.5 96t74.5 135.5t43.5 150.5h-605q-4 -44 -4 -91.5t6.5 -92.5t21 -86.5t40.5 -72.5t64.5 -50.5t93.5 -21.5zM806 1229q-87 3 -152.5 -31.5t-112 -93t-75.5 -132.5t-45 -149h605q3 43 3.5 89.5t-6 91
t-21 84.5t-40 70.5t-64 49.5t-92.5 21zM515 1674q-1 28 9 51.5t28 41t42.5 27.5t51.5 11t52 -8t44 -25.5t30.5 -40t11.5 -51.5q1 -28 -9.5 -51.5t-28.5 -40.5t-42 -27t-51 -11t-51.5 8t-43.5 25.5t-30.5 39.5t-12.5 51zM988 1674q-1 28 9 51.5t28 41t42 27.5t51 11t52 -8
t44.5 -25.5t31 -40t12.5 -51.5q0 -28 -10.5 -51.5t-28.5 -41t-42 -27.5t-51 -11t-52 8t-44 25.5t-30.5 40t-11.5 51.5z" />
    <glyph glyph-name="uni04EB" unicode="&#x4eb;" horiz-adv-x="1131" 
d="M54 544q13 115 58 217.5t117.5 179t172 120.5t222.5 41q117 -2 202 -47.5t138 -121t74.5 -173.5t10.5 -206l-2 -22q-14 -115 -59.5 -216.5t-118.5 -177t-172.5 -118.5t-220.5 -40q-116 2 -201 47t-138 119t-74.5 171.5t-10.5 205.5zM608 869q-54 2 -96 -18t-73 -53.5
t-52 -78t-34 -90.5h418q0 42 -6.5 84.5t-24.5 76t-49.5 55.5t-82.5 24zM491 211q54 -2 96 17.5t73.5 52.5t52.5 76t34 90h-418q-1 -42 5.5 -83.5t24.5 -75t49.5 -54.5t82.5 -23zM311 1370q-1 28 9 51.5t28 41t42.5 27.5t51.5 11t52 -8t44 -25.5t30.5 -40t11.5 -51.5
q1 -28 -9.5 -51.5t-28.5 -40.5t-42 -27t-51 -11t-51.5 8t-43.5 25.5t-30.5 39.5t-12.5 51zM784 1370q-1 28 9 51.5t28 41t42 27.5t51 11t52 -8t44.5 -25.5t31 -40t12.5 -51.5q0 -28 -10.5 -51.5t-28.5 -41t-42 -27.5t-51 -11t-52 8t-44 25.5t-30.5 40t-11.5 51.5z" />
    <glyph glyph-name="uni04EC" unicode="&#x4ec;" horiz-adv-x="1302" 
d="M326 485q1 -60 13 -108t39 -82.5t70.5 -54t107.5 -21.5q87 -3 149 30.5t105.5 88.5t72 126t48.5 143l-457 -1l43 243h438q5 42 6 86.5t-5 86.5t-20 80t-39.5 66.5t-63 46t-89.5 19.5q-69 3 -123 -15t-94 -53.5t-66 -87.5t-38 -116l-292 -2q17 120 72 216.5t138 164
t189.5 102.5t226.5 33q98 -2 175 -30.5t134.5 -78t96 -116.5t60 -144.5t26 -162.5t-6.5 -171l-13 -94q-20 -138 -72 -265.5t-137.5 -225t-204.5 -154.5t-271 -54q-117 2 -209.5 38.5t-157.5 102t-101.5 158t-40.5 207.5zM450 1681q-1 28 9 51.5t28 41t42.5 27.5t51.5 11
t52 -8t44 -25.5t30.5 -40t11.5 -51.5q1 -28 -9.5 -51.5t-28.5 -40.5t-42 -27t-51 -11t-51.5 8t-43.5 25.5t-30.5 39.5t-12.5 51zM923 1681q-1 28 9 51.5t28 41t42 27.5t51 11t52 -8t44.5 -25.5t31 -40t12.5 -51.5q0 -28 -10.5 -51.5t-28.5 -41t-42 -27.5t-51 -11t-52 8
t-44 25.5t-30.5 40t-11.5 51.5z" />
    <glyph glyph-name="uni04ED" unicode="&#x4ed;" horiz-adv-x="1043" 
d="M542 869q-77 2 -126.5 -43t-62.5 -118l-266 -1q5 91 45.5 165.5t104.5 126t146 79t171 25.5q116 -3 199 -49t134 -121.5t71 -173t10 -202.5l-3 -29q-13 -112 -56.5 -213t-115 -176.5t-168.5 -118.5t-217 -40q-94 2 -167 34t-122.5 88t-74 133t-22.5 168h264
q-2 -36 4 -69.5t21.5 -60.5t42.5 -44t68 -18q55 -2 95.5 19.5t70.5 57t51 80t36 89.5l-292 -1l32 177h274q3 40 -1 81.5t-20 75.5t-46.5 55.5t-79.5 23.5zM267 1362q-1 28 9 51.5t28 41t42.5 27.5t51.5 11t52 -8t44 -25.5t30.5 -40t11.5 -51.5q1 -28 -9.5 -51.5t-28.5 -40.5
t-42 -27t-51 -11t-51.5 8t-43.5 25.5t-30.5 39.5t-12.5 51zM740 1362q-1 28 9 51.5t28 41t42 27.5t51 11t52 -8t44.5 -25.5t31 -40t12.5 -51.5q0 -28 -10.5 -51.5t-28.5 -41t-42 -27.5t-51 -11t-52 8t-44 25.5t-30.5 40t-11.5 51.5z" />
    <glyph glyph-name="uni04EE" unicode="&#x4ee;" horiz-adv-x="1264" 
d="M678 769l376 687h330l-682 -1172q-36 -66 -78 -122.5t-93.5 -98t-115.5 -64.5t-145 -23q-29 0 -56.5 1.5t-56.5 3.5l22 243q17 -3 35.5 -4.5t36.5 -2.5q40 0 70.5 9.5t55 27.5t44.5 44t38 58l38 63l-311 1037h299zM1178 1601h-710l27 167h710z" />
    <glyph glyph-name="uni04EF" unicode="&#x4ef;" horiz-adv-x="1007" 
d="M462 412l309 670h314l-633 -1245q-28 -59 -63.5 -110t-80.5 -88t-101 -58t-126 -21q-35 0 -68.5 6.5t-67.5 14.5l21 220q10 -1 19.5 -1.5t19.5 -0.5q74 -2 125 25t86 92l53 99l-177 1067h292zM981 1289h-710l27 167h710z" />
    <glyph glyph-name="uni04F0" unicode="&#x4f0;" horiz-adv-x="1264" 
d="M678 769l376 687h330l-682 -1172q-36 -66 -78 -122.5t-93.5 -98t-115.5 -64.5t-145 -23q-29 0 -56.5 1.5t-56.5 3.5l22 243q17 -3 35.5 -4.5t36.5 -2.5q40 0 70.5 9.5t55 27.5t44.5 44t38 58l38 63l-311 1037h299zM461 1675q-1 28 9 51.5t28 41t42.5 27.5t51.5 11t52 -8
t44 -25.5t30.5 -40t11.5 -51.5q1 -28 -9.5 -51.5t-28.5 -40.5t-42 -27t-51 -11t-51.5 8t-43.5 25.5t-30.5 39.5t-12.5 51zM934 1675q-1 28 9 51.5t28 41t42 27.5t51 11t52 -8t44.5 -25.5t31 -40t12.5 -51.5q0 -28 -10.5 -51.5t-28.5 -41t-42 -27.5t-51 -11t-52 8t-44 25.5
t-30.5 40t-11.5 51.5z" />
    <glyph glyph-name="uni04F1" unicode="&#x4f1;" horiz-adv-x="1007" 
d="M462 412l309 670h314l-633 -1245q-28 -59 -63.5 -110t-80.5 -88t-101 -58t-126 -21q-35 0 -68.5 6.5t-67.5 14.5l21 220q10 -1 19.5 -1.5t19.5 -0.5q74 -2 125 25t86 92l53 99l-177 1067h292zM264 1362q-1 28 9 51.5t28 41t42.5 27.5t51.5 11t52 -8t44 -25.5t30.5 -40
t11.5 -51.5q1 -28 -9.5 -51.5t-28.5 -40.5t-42 -27t-51 -11t-51.5 8t-43.5 25.5t-30.5 39.5t-12.5 51zM737 1362q-1 28 9 51.5t28 41t42 27.5t51 11t52 -8t44.5 -25.5t31 -40t12.5 -51.5q0 -28 -10.5 -51.5t-28.5 -41t-42 -27.5t-51 -11t-52 8t-44 25.5t-30.5 40t-11.5 51.5
z" />
    <glyph glyph-name="uni04F2" unicode="&#x4f2;" horiz-adv-x="1264" 
d="M678 769l376 687h330l-682 -1172q-36 -66 -78 -122.5t-93.5 -98t-115.5 -64.5t-145 -23q-29 0 -56.5 1.5t-56.5 3.5l22 243q17 -3 35.5 -4.5t36.5 -2.5q40 0 70.5 9.5t55 27.5t44.5 44t38 58l38 63l-311 1037h299zM1117 1848h275l-310 -301h-236zM739 1848l269 -1
l-274 -300h-228z" />
    <glyph glyph-name="uni04F3" unicode="&#x4f3;" horiz-adv-x="1007" 
d="M462 412l309 670h314l-633 -1245q-28 -59 -63.5 -110t-80.5 -88t-101 -58t-126 -21q-35 0 -68.5 6.5t-67.5 14.5l21 220q10 -1 19.5 -1.5t19.5 -0.5q74 -2 125 25t86 92l53 99l-177 1067h292zM920 1535h275l-310 -301h-236zM542 1535l269 -1l-274 -300h-228z" />
    <glyph glyph-name="uni04F4" unicode="&#x4f4;" horiz-adv-x="1391" 
d="M1403 1456l-253 -1456h-294l106 554q-67 -17 -136 -23.5t-138 -5.5q-112 1 -206.5 31.5t-160 90.5t-97.5 150t-18 210l75 449h293l-74 -450q-16 -121 31.5 -178.5t169.5 -60.5q72 -2 143.5 6t142.5 19l122 664h294zM543 1675q-1 28 9 51.5t28 41t42.5 27.5t51.5 11t52 -8
t44 -25.5t30.5 -40t11.5 -51.5q1 -28 -9.5 -51.5t-28.5 -40.5t-42 -27t-51 -11t-51.5 8t-43.5 25.5t-30.5 39.5t-12.5 51zM1016 1675q-1 28 9 51.5t28 41t42 27.5t51 11t52 -8t44.5 -25.5t31 -40t12.5 -51.5q0 -28 -10.5 -51.5t-28.5 -41t-42 -27.5t-51 -11t-52 8t-44 25.5
t-30.5 40t-11.5 51.5z" />
    <glyph glyph-name="uni04F5" unicode="&#x4f5;" horiz-adv-x="1110" 
d="M889 0h-282l69 342q-35 -7 -70 -11t-70 -4q-97 0 -179 25.5t-140 77t-86.5 129t-17.5 181.5l55 342h283l-57 -343q-12 -94 24 -135t130 -44q38 -1 76 3t76 10l95 509h282zM316 1357q-1 28 9 51.5t28 41t42.5 27.5t51.5 11t52 -8t44 -25.5t30.5 -40t11.5 -51.5
q1 -28 -9.5 -51.5t-28.5 -40.5t-42 -27t-51 -11t-51.5 8t-43.5 25.5t-30.5 39.5t-12.5 51zM789 1357q-1 28 9 51.5t28 41t42 27.5t51 11t52 -8t44.5 -25.5t31 -40t12.5 -51.5q0 -28 -10.5 -51.5t-28.5 -41t-42 -27.5t-51 -11t-52 8t-44 25.5t-30.5 40t-11.5 51.5z" />
    <glyph glyph-name="uni04F6" unicode="&#x4f6;" horiz-adv-x="1117" 
d="M1160 1213h-633l-211 -1213h-293l253 1456h926zM464 -357h-282l97 562h283z" />
    <glyph glyph-name="uni04F7" unicode="&#x4f7;" horiz-adv-x="842" 
d="M867 848h-435l-147 -848h-282l188 1082h717zM437 -357h-282l97 562h283z" />
    <glyph glyph-name="uni04F8" unicode="&#x4f8;" horiz-adv-x="1741" 
d="M481 931l212 -1q101 -2 191 -31.5t156 -86t101 -140t27 -193.5q-9 -119 -62 -209.5t-135.5 -150.5t-187 -90t-215.5 -29h-544l253 1456h295zM439 689l-78 -448l214 -1q56 0 106.5 16.5t90.5 47t67 75.5t36 103q7 49 -4 86.5t-36 63.5t-63 40t-85 16zM1500 0h-293
l252 1456h293zM687 1675q-1 28 9 51.5t28 41t42.5 27.5t51.5 11t52 -8t44 -25.5t30.5 -40t11.5 -51.5q1 -28 -9.5 -51.5t-28.5 -40.5t-42 -27t-51 -11t-51.5 8t-43.5 25.5t-30.5 39.5t-12.5 51zM1160 1675q-1 28 9 51.5t28 41t42 27.5t51 11t52 -8t44.5 -25.5t31 -40
t12.5 -51.5q0 -28 -10.5 -51.5t-28.5 -41t-42 -27.5t-51 -11t-52 8t-44 25.5t-30.5 40t-11.5 51.5z" />
    <glyph glyph-name="uni04F9" unicode="&#x4f9;" horiz-adv-x="1654" 
d="M437 765l179 -1q85 -2 161 -26.5t132.5 -71t87.5 -116t25 -162.5q-6 -100 -51 -173.5t-115 -121.5t-157.5 -71t-177.5 -22h-500l188 1082h284zM397 533l-52 -302l181 -1q38 1 73.5 10.5t64.5 28.5t49 48.5t27 69.5q12 70 -24.5 105.5t-103.5 39.5zM1402 0h-282l188 1082
h282zM587 1357q-1 28 9 51.5t28 41t42.5 27.5t51.5 11t52 -8t44 -25.5t30.5 -40t11.5 -51.5q1 -28 -9.5 -51.5t-28.5 -40.5t-42 -27t-51 -11t-51.5 8t-43.5 25.5t-30.5 39.5t-12.5 51zM1060 1357q-1 28 9 51.5t28 41t42 27.5t51 11t52 -8t44.5 -25.5t31 -40t12.5 -51.5
q0 -28 -10.5 -51.5t-28.5 -41t-42 -27.5t-51 -11t-52 8t-44 25.5t-30.5 40t-11.5 51.5z" />
    <glyph glyph-name="uni04FA" unicode="&#x4fa;" horiz-adv-x="1203" 
d="M1245 1213h-633l-211 -1213h-293l253 1456h926zM726 666h-680l33 183h680zM703 258l-46 -291q-12 -89 -44 -164t-84.5 -129t-126.5 -84t-168 -29q-38 0 -75 5t-74 13l36 232q23 -7 47 -11.5t48 -4.5q37 0 63.5 14.5t45.5 38.5t30 55t17 63l48 292h283z" />
    <glyph glyph-name="uni04FB" unicode="&#x4fb;" horiz-adv-x="847" 
d="M946 848h-435l-147 -848h-282l188 1082h717zM681 490h-680l33 183h680zM635 252l-46 -291q-12 -89 -44 -164t-84.5 -129t-126.5 -84t-168 -29q-38 0 -75 5t-74 13l36 232q23 -7 47 -11.5t48 -4.5q37 0 63.5 14.5t45.5 38.5t30 55t17 63l48 292h283z" />
    <glyph glyph-name="uni04FC" unicode="&#x4fc;" horiz-adv-x="1272" 
d="M679 956l343 500h352l-535 -736l302 -720h-324l-191 508l-351 -508h-356l547 748l-293 708h320zM1327 258l-46 -291q-12 -89 -44 -164t-84.5 -129t-126.5 -84t-168 -29q-38 0 -75 5t-74 13l36 232q23 -7 47 -11.5t48 -4.5q37 0 63.5 14.5t45.5 38.5t30 55t17 63l48 292
h283z" />
    <glyph glyph-name="uni04FD" unicode="&#x4fd;" horiz-adv-x="1021" 
d="M524 761l227 321h317l-392 -544l219 -538h-286l-133 338l-239 -338h-319l408 566l-209 516h286zM1074 258l-46 -291q-12 -89 -44 -164t-84.5 -129t-126.5 -84t-168 -29q-38 0 -75 5t-74 13l36 232q23 -7 47 -11.5t48 -4.5q37 0 63.5 14.5t45.5 38.5t30 55t17 63l48 292
h283z" />
    <glyph glyph-name="uni04FE" unicode="&#x4fe;" horiz-adv-x="1272" 
d="M982 655h-116l275 -655h-324l-191 508l-351 -508h-356l479 655h-96l33 183h94l-256 618h320l186 -500l343 500h352l-449 -618h90z" />
    <glyph glyph-name="uni04FF" unicode="&#x4ff;" horiz-adv-x="1021" 
d="M831 464h-125l189 -464h-286l-133 338l-239 -338h-319l334 464h-101l33 183h109l-176 435h286l121 -321l227 321h317l-314 -435h110z" />
    <glyph glyph-name="dieresis" horiz-adv-x="937" 
d="M209 1362q-1 28 9 51.5t28 41t42.5 27.5t51.5 11t52 -8t44 -25.5t30.5 -40t11.5 -51.5q1 -28 -9.5 -51.5t-28.5 -40.5t-42 -27t-51 -11t-51.5 8t-43.5 25.5t-30.5 39.5t-12.5 51zM682 1362q-1 28 9 51.5t28 41t42 27.5t51 11t52 -8t44.5 -25.5t31 -40t12.5 -51.5
q0 -28 -10.5 -51.5t-28.5 -41t-42 -27.5t-51 -11t-52 8t-44 25.5t-30.5 40t-11.5 51.5z" />
    <glyph glyph-name="macron" horiz-adv-x="1005" 
d="M960 1290h-710l27 167h710z" />
    <glyph glyph-name="acute" horiz-adv-x="669" 
d="M426 1536h327l-318 -310h-249z" />
    <glyph glyph-name="AE" horiz-adv-x="1877" 
d="M1706 0h-871l44 333h-423l-220 -333h-347l1015 1456h996l-42 -236h-580l-47 -355h488l-42 -236h-477l-53 -394h600zM615 582l298 -2l73 552z" />
    <glyph glyph-name="ae" horiz-adv-x="1687" 
d="M1122 -20q-49 1 -98.5 9t-95.5 25t-86.5 44.5t-71.5 67.5q-85 -75 -187 -111.5t-217 -34.5q-76 1 -142 23t-114 63t-74 102.5t-22 142.5q3 68 27 120t63.5 89.5t90.5 62.5t108 40t116.5 21t116.5 6l167 -2l13 60q5 33 1.5 61.5t-17 50.5t-37.5 35t-60 14q-32 1 -62.5 -6
t-56.5 -22t-44.5 -39t-25.5 -57l-281 18q3 62 25 111.5t58.5 87.5t83.5 65t100 44.5t109 25t110 6.5q41 -1 82.5 -6.5t81 -18.5t74.5 -33.5t64 -51.5q74 55 156 82.5t175 25.5q105 -2 180.5 -42.5t122.5 -107t65 -154.5t7 -185l-25 -162h-642q-5 -52 5 -94.5t34.5 -73.5
t64.5 -49t94 -19q81 -2 154 20t145 56l61 -193q-38 -33 -86.5 -56t-101 -36.5t-106 -19t-102.5 -5.5zM425 191q29 0 57.5 6.5t55.5 17.5t53 25.5t50 30.5l38 190l-139 1q-37 -1 -76.5 -9.5t-74 -27t-59.5 -47.5t-32 -71q-6 -32 3 -53.5t27 -35.5t43.5 -20.5t53.5 -6.5z
M1236 869q-53 2 -93.5 -16.5t-71 -50.5t-53 -73.5t-38.5 -85.5h369l7 31q6 36 4 70.5t-15.5 61.5t-40 44t-68.5 19z" />
    <glyph glyph-name="dotlessi" horiz-adv-x="554" 
d="M307 0h-282l188 1082h282z" />
    <glyph glyph-name="schwa" horiz-adv-x="1061" 
d="M564 1102q112 -2 195.5 -45t137.5 -115t77 -166.5t14 -199.5l-4 -40q-12 -109 -54.5 -210.5t-112.5 -179t-165.5 -123t-213.5 -42.5q-106 3 -183 42t-125.5 105t-67 153.5t-7.5 187.5l25 163h629q3 47 -6 89t-31 73.5t-58 51t-87 21.5q-83 4 -157 -18t-147 -58l-65 190
q40 34 89 57.5t102.5 38t108.5 20.5t106 5zM453 212q49 -2 86 18.5t65 53t48.5 73t35.5 79.5h-355l-7 -30q-7 -38 -4 -72.5t18 -61t42.5 -43t70.5 -17.5z" />
    <glyph glyph-name="breve" horiz-adv-x="892" 
d="M911 1528q-3 -73 -32 -129.5t-76.5 -94.5t-110.5 -57.5t-133 -17.5q-68 1 -125.5 22t-99.5 59t-65.5 93t-24.5 125l198 -2q-2 -59 24.5 -95t90.5 -37q65 -2 104 34.5t50 97.5z" />
    <glyph glyph-name="hungarumlaut" horiz-adv-x="825" 
d="M766 1535h275l-310 -301h-236zM388 1535l269 -1l-274 -300h-228z" />
    <glyph glyph-name="uni030F" horiz-adv-x="10" 
d="M-369 1252h-256l-237 266h301zM-42 1252h-247l-192 266h293z" />
    <glyph glyph-name="Gamma" horiz-adv-x="1117" 
d="M1160 1213h-633l-211 -1213h-293l253 1456h926z" />
    <glyph glyph-name="Pi" horiz-adv-x="1416" 
d="M1174 0h-294l210 1213h-563l-211 -1213h-293l253 1456h1150z" />
    <glyph glyph-name="Psi" horiz-adv-x="1453" 
d="M869 630q69 16 120 49.5t86.5 80.5t57 106.5t32.5 126.5l79 463h295l-79 -463q-19 -128 -69 -233.5t-128 -183.5t-184 -125.5t-236 -59.5l-76 -391h-293l76 392q-120 13 -207 66t-141 133.5t-74.5 184t-6.5 217.5l77 463h293l-78 -464q-8 -57 -6.5 -113.5t18.5 -104.5
t53 -85t98 -55l151 822h293z" />
    <glyph glyph-name="gamma" horiz-adv-x="1024" 
d="M462 344l322 738h306l-546 -1086l-72 -413h-283l80 458l-164 1041h284z" />
    <glyph glyph-name="psi" horiz-adv-x="1488" 
d="M954 1082l-157 -859q144 38 229 135t108 243q20 121 12.5 243.5t-40.5 240.5l250 -2q50 -113 61.5 -237.5t-2.5 -245.5q-16 -135 -69 -242.5t-136 -185t-194 -124.5t-244 -60l-89 -466h-282l89 469q-119 18 -205 70t-139.5 130.5t-73.5 179.5t-6 218l83 493h283l-83 -497
q-8 -59 -6 -114.5t20 -103t54.5 -84t97.5 -57.5l157 856h282z" />
    <glyph glyph-name="crossbar" horiz-adv-x="959" 
d="M824 649h-680l33 183h680z" />
    <glyph glyph-name="cyrillictic" horiz-adv-x="469" 
d="M203 -357h-282l97 562h283z" />
    <glyph glyph-name="cyrillichook" horiz-adv-x="533" 
d="M354 258l-46 -291q-12 -89 -44 -164t-84.5 -129t-126.5 -84t-168 -29q-38 0 -75 5t-74 13l36 232q23 -7 47 -11.5t48 -4.5q37 0 63.5 14.5t45.5 38.5t30 55t17 63l48 292h283z" />
    <glyph glyph-name="K.alt" horiz-adv-x="1293" 
d="M595 595h-175l-104 -595h-293l253 1456h293l-102 -583h122l447 583h376l-568 -704l346 -752h-335z" />
    </font>
</defs>
</svg>
